<?xml version="1.0" encoding="UTF-8"?><svg xmlns="http://www.w3.org/2000/svg" viewBox="0 0 1000 1000"><defs><style>.cls-1{fill:#6db7f0;}.cls-2{fill:#32294f;}.cls-3{isolation:isolate;}.cls-4{fill:#ea5961;}.cls-5{fill:#ffb800;}.cls-6{fill:#b6dbf8;}.Graphic_Style_68{mix-blend-mode:overlay;opacity:.5;}.cls-7{fill:#ef7f6f;}.cls-8{fill:#f19277;}.cls-9{fill:#ff7903;}.cls-10{fill:#8bd000;}.cls-11{fill:#a3443a;}.cls-12{fill:#802d2b;}.cls-13{fill:#f3a184;}</style></defs><g class="cls-3"><g id="Layer_1"><path class="cls-1" d="M755.03,717.73c-172.22-7.55-136.39-146-136.39-146,0,0,51.86-23.06,56.91,3.11,8.38-6.99,22.19-16.44,45.69-29.01.28-22.94-14.44-40.55-29.96-52.72-17.29-13.55-38.05-21.91-59.8-24.97-53.86-7.58-177.77-8.57-176.79,143.09,6.29,109.44,89.31,207.56,291.84,182.4,81.62-10.14,126.05-1.62,161.47,8.2-47.75-79.72-152.97-84.1-152.97-84.1Z"/><path class="cls-6" d="M622.83,765.75s-58.85-19.22-62.45-46.84c-3-18.01,27.62-16.21,45.04,0-3-28.82,25.22-12.01,34.83,3.6,7.81-14.41,21.02,11.98,21.02,11.98,0,0,19.82-10.77,31.23,31.26-21.02-19.22-37.83-24.62-36.63-10.21-21.02-27.02-65.45-34.23-33.03,10.21Z"/><path class="cls-1" d="M656.58,463.51c-1,.35,39.02,8.84,68.67,37.18,20.89,20.34,32.69,1.55,15.7-16.63-16.99-18.17-54.9-30.97-84.36-20.55Z"/><path class="cls-6" d="M536.15,425.84c-2.78,0-5.03,2.25-5.03,5.03s2.25,5.03,5.03,5.03,5.03-2.25,5.03-5.03-2.25-5.03-5.03-5.03Z"/><circle class="cls-1" cx="600.94" cy="420.1" r="5.03"/><path class="cls-6" d="M524.3,628.48c-3.81,0-6.89,3.09-6.89,6.89s3.09,6.89,6.89,6.89,6.89-3.09,6.89-6.89-3.08-6.89-6.89-6.89Z"/><path class="cls-6" d="M543.04,482.45c-3.81,0-6.89,3.09-6.89,6.89s3.09,6.89,6.89,6.89,6.89-3.09,6.89-6.89-3.08-6.89-6.89-6.89Z"/><path class="cls-6" d="M661.02,499.36c-3.81,0-6.89,3.09-6.89,6.89s3.09,6.89,6.89,6.89,6.89-3.09,6.89-6.89-3.08-6.89-6.89-6.89Z"/><path class="cls-1" d="M420.96,553.22c-5.22,0-9.46,4.24-9.46,9.46s4.24,9.46,9.46,9.46,9.46-4.24,9.46-9.46-4.23-9.46-9.46-9.46Z"/><path class="cls-1" d="M661.09,625.91c-5.22,0-9.46,4.24-9.46,9.46s4.24,9.46,9.46,9.46,9.46-4.24,9.46-9.46-4.23-9.46-9.46-9.46Z"/><path class="Graphic_Style_68" d="M600.76,642.64c-10.57-26.5-13.44-55.79-7.86-83.8.85-4.27-5.7-6.1-6.55-1.81-5.81,29.16-3.17,59.77,7.86,87.41.68,1.7,2.27,2.9,4.18,2.37,1.62-.44,3.06-2.46,2.37-4.18Z"/><path class="Graphic_Style_68" d="M625.72,685.17c-6.31-5.45-10.73-11.29-14.3-18.86-.76-1.61-3.2-2.15-4.65-1.22-1.66,1.07-2.03,2.92-1.22,4.65,3.63,7.71,8.92,14.67,15.36,20.24,1.34,1.16,3.5,1.42,4.8,0,1.17-1.27,1.44-3.56,0-4.8Z"/><path class="Graphic_Style_68" d="M562.37,638.25c-9.06-18.62-14.37-38.99-15.57-59.65-.25-4.35-7.05-4.37-6.79,0,1.27,21.92,6.88,43.34,16.49,63.08,1.91,3.93,7.77.49,5.87-3.43Z"/><path class="Graphic_Style_68" d="M544.33,688.07c-16.77-24.89-31.56-51.72-37.33-81.48-1.64-8.44-2.43-17-2.37-25.6.03-4.37-6.76-4.38-6.79,0-.23,31.36,11.14,61.35,26.6,88.19,4.39,7.62,9.12,15.03,14.03,22.32,2.43,3.61,8.32.21,5.87-3.43Z"/><path class="Graphic_Style_68" d="M572.19,752.09c-18.89-9.83-35.58-23.75-48.42-40.77-1.1-1.46-2.93-2.22-4.65-1.22-1.44.84-2.33,3.17-1.22,4.65,13.55,17.96,30.87,32.81,50.85,43.21,3.87,2.02,7.31-3.85,3.43-5.87Z"/><path class="Graphic_Style_68" d="M596.56,763.8c-1.09-.33-2.17-.7-3.24-1.1-.28-.11-.57-.22-.85-.33-.14-.06-.28-.11-.42-.17-.34-.14-.28-.12.18.08-.49-.12-1-.44-1.46-.65-2.07-.96-4.07-2.07-5.99-3.31-1.5-.96-3.82-.35-4.65,1.22-.89,1.69-.38,3.62,1.22,4.65,4.14,2.67,8.69,4.74,13.41,6.17,1.7.52,3.78-.62,4.18-2.37.42-1.83-.55-3.63-2.37-4.18Z"/><path class="cls-6" d="M727.66,531.35c-37.11-36.48-73.59-9.43-77.99,28.3-8.18-11.32-17.61-8.81-17.61-8.81,0,0,15.72-25.79,3.77-32.08-11.95-6.29-23.9,3.14-25.79,19.5-2.23-19.2-27.29-32.06-34.43-15.61l7.74,8.94s-2.95,20.4,28.03,24.88c-10.19,4.89-10.78,15.12-10.78,15.12l.31,1.81c1.4,7.05,8.39,31.49,35.54,11.4-11.95,24.53,16.98,42.77,31.45,15.72,4.4,22.64,25.16,16.35,27.67,2.52,6.29,28.3,86.17-16.35,32.08-71.7Z"/><path class="Graphic_Style_68" d="M695.46,602.43c-1.41-9.37,2.18-18.81,6.9-26.72,1.53-2.58-1-5.73-3.84-4.99-11.59,3.03-22.11-6.41-21.09-18.14.38-4.35-6.42-4.33-6.79,0-.65,7.45,2.47,15.27,8.27,20.04,4.15,3.41,9.28,5.23,14.53,5.39-3.87,8.17-5.98,17.17-4.52,26.23.4,2.47,1.11,4.92,2.1,7.26,2.27-2.16,3.97-5.08,4.58-8.44-.04-.21-.1-.41-.13-.62Z"/><path class="Graphic_Style_68" d="M533.15,526.78c-2.47.83-4.82,2.03-6.96,3.61-10.01,7.4-12.96,20.85-8.56,32.25.66,1.71,2.28,2.89,4.18,2.37,1.63-.45,3.04-2.46,2.37-4.18-3.31-8.56-2.04-19.16,5.82-24.86.85-.62,1.75-1.16,2.69-1.63.37-2.67.51-5.19.46-7.57Z"/><path class="cls-1" d="M439.24,519.41s-97.48,15.59-93.28,108.49c3.34,73.85,138.11,149.32,331.87,160.53-28.02,20.02-184.95,2.4-254.61-20.82,22.42,20.02,133.71,42.43,164.93,41.63-53.64,20.02-250.6-.8-309.05-54.44,13.61,26.42,68.06,56.05,104.08,68.06-74.46-2.4-178.55-52.84-220.98-140.91-25.62-44.84-12.01-64.85-12.01-64.85l16.01-32.83-7.21-21.62s61.65-144.92,245.8-164.13c101.68-10.41,180.15,46.44,180.15,68.06s-65.65,33.63-65.65,33.63l-52.04-4.8-28.02,24.02Z"/><path class="cls-6" d="M320.15,743.19s-58.85-19.22-62.45-46.84c-3-18.01,27.62-16.21,45.04,0-3-28.82,25.22-12.01,34.83,3.6,7.81-14.41,21.02,11.98,21.02,11.98,0,0,19.82-10.77,31.23,31.26-21.02-19.22-37.83-24.62-36.63-10.21-21.02-27.02-65.45-34.23-33.03,10.21Z"/><path class="cls-1" d="M230.29,451.65c-.07,1.23,27.09-37.78,70.82-56.71,31.21-13.17,16.42-34.29-10.71-24.31-27.13,9.98-57.95,44.78-60.11,81.03Z"/><path class="cls-1" d="M442.69,711.93c1.16.42-28.64-36.62-34.52-83.91-3.87-33.66-28.29-25.4-26.34,3.44,1.95,28.84,26.68,68.21,60.86,80.47Z"/><circle class="cls-6" cx="85.82" cy="577.71" r="7.72"/><circle class="cls-1" cx="378.37" cy="379.85" r="5.03" transform="translate(-55.96 65.51) rotate(-9.22)"/><circle class="cls-1" cx="106.37" cy="554.35" r="5.03" transform="translate(-360.83 237.58) rotate(-45)"/><circle class="cls-1" cx="118.98" cy="597.3" r="5.03" transform="translate(-134.05 43.32) rotate(-13.28)"/><circle class="cls-6" cx="140.02" cy="527.28" r="7.72"/><path class="cls-1" d="M191.49,740.61c-16.91-14.71-30.69-32.64-40.56-52.77-1.92-3.93-7.79-.49-5.87,3.43,10.1,20.59,24.32,39.09,41.62,54.14,3.29,2.86,8.11-1.93,4.8-4.8Z"/><path class="cls-1" d="M206.79,757.96l-5.7-5.71c-.61-.62-1.53-.99-2.4-.99s-1.83.37-2.4.99c-.59.65-1.04,1.5-1,2.4.04.9.35,1.75,1,2.4l5.7,5.71c.61.62,1.53.99,2.4.99s1.83-.37,2.4-.99c.59-.65,1.04-1.5,1-2.4-.04-.9-.35-1.75-1-2.4Z"/><path class="cls-1" d="M540.92,408.35c-10.71-8.62-23.15-14.82-36.56-17.93-4.25-.99-6.07,5.56-1.81,6.55,12.22,2.84,23.77,8.31,33.56,16.19,1.43,1.15,3.41,1.4,4.8,0,1.19-1.19,1.44-3.65,0-4.8Z"/><path class="cls-1" d="M558.93,420.42c-.11-.27-.23-.54-.34-.81-.3-.51-.71-.92-1.22-1.22-1.09-.82-2.17-1.63-3.26-2.45-.39-.25-.81-.38-1.26-.4-.45-.1-.9-.08-1.35.06-.44.11-.83.31-1.16.61-.37.24-.66.56-.87.95-.11.27-.23.54-.34.81-.16.6-.16,1.2,0,1.81.11.27.23.54.34.81.3.51.71.92,1.22,1.22,1.09.82,2.17,1.63,3.26,2.45.39.25.81.38,1.26.4.45.1.9.08,1.35-.06.44-.1.83-.31,1.16-.61.37-.24.66-.56.87-.95l.34-.81c.16-.6.16-1.2,0-1.81Z"/><path class="Graphic_Style_68" d="M330.58,653.45c-6.41-11.81-8.61-25.7-6.03-38.9.83-4.27-5.71-6.1-6.55-1.81-2.94,15.05-.61,30.65,6.72,44.14,2.09,3.84,7.96.42,5.87-3.43Z"/><path class="Graphic_Style_68" d="M398.32,495.18c-28.39,16.94-51.79,42.07-66.73,71.57-4.2,8.28-7.73,16.91-10.57,25.75-1.34,4.17,5.22,5.96,6.55,1.81,9.69-30.22,28.12-57.34,52.37-77.78,6.83-5.76,14.14-10.91,21.8-15.48,3.75-2.24.34-8.11-3.43-5.87Z"/><path class="Graphic_Style_68" d="M295.68,512.15c-1.74-1.02-3.53-.25-4.65,1.22-16.12,21.22-25.62,47.15-27.51,73.7-.54,7.55-.41,15.12.34,22.65.18,1.83,1.43,3.4,3.4,3.4,1.7,0,3.58-1.56,3.4-3.4-2.56-25.56,2.47-51.67,14.43-74.41,3.41-6.49,7.37-12.67,11.8-18.5,1.11-1.46.23-3.8-1.22-4.65Z"/><path class="Graphic_Style_68" d="M209.13,680.05c-8.12-12.22-15.15-25.21-20.73-38.78-2.81-6.82-5.35-13.77-7.4-20.86-2.17-7.51-3.52-15.15-2.48-22.96.24-1.82-1.73-3.4-3.4-3.4-2.04,0-3.15,1.57-3.4,3.4-1.08,8.07.31,16.22,2.5,23.99,2.08,7.35,4.72,14.57,7.62,21.64,5.82,14.14,12.96,27.67,21.42,40.4,2.41,3.63,8.29.23,5.87-3.43Z"/><path class="Graphic_Style_68" d="M232.75,709.18c-2.44-1.99-4.76-4.12-6.95-6.37-1.08-1.11-2.13-2.26-3.14-3.44-.51-.59-1-1.18-1.49-1.79-.26-.32-.51-.64-.77-.96-.08-.11-.17-.27-.28-.36-.03-.04-.06-.08-.09-.12-.56-.73-1.1-1.31-2.03-1.56-.81-.22-1.9-.12-2.62.34-1.39.9-2.37,3.13-1.22,4.65,4.04,5.32,8.6,10.17,13.78,14.4.72.59,1.44.99,2.4.99.83,0,1.83-.37,2.4-.99,1.14-1.24,1.47-3.6,0-4.8Z"/><path class="Graphic_Style_68" d="M249.94,726.23c-1.61-1.65-3.23-3.29-4.84-4.94-.61-.62-1.54-.99-2.4-.99s-1.83.37-2.4.99c-.59.65-1.04,1.5-1,2.4.04.91.35,1.74,1,2.4,1.61,1.65,3.23,3.29,4.84,4.94.61.62,1.54.99,2.4.99s1.83-.37,2.4-.99c.59-.65,1.04-1.5,1-2.4-.04-.91-.35-1.74-1-2.4Z"/><path class="Graphic_Style_68" d="M583.31,467.86c-29.6-25.74-65.5-44.03-103.74-52.81-10.92-2.51-22.01-4.22-33.17-5.18-4.36-.38-4.33,6.42,0,6.79,37.91,3.27,74.82,16.16,106.71,36.87,8.9,5.78,17.38,12.17,25.39,19.13,3.29,2.86,8.11-1.93,4.8-4.8Z"/><path class="Graphic_Style_68" d="M556.46,470.71c-19.48-13.29-41.04-23.41-63.68-29.98-4.21-1.22-6,5.33-1.81,6.55,22.11,6.42,43.04,16.32,62.06,29.3,3.62,2.47,7.02-3.41,3.43-5.87Z"/><path class="Graphic_Style_68" d="M368.31,481.56c-21.75,13.54-39.94,32.65-52.37,55.06-3.54,6.39-6.58,13.04-9.17,19.86-.65,1.72.72,3.73,2.37,4.18,1.91.52,3.52-.65,4.18-2.37,8.65-22.77,23.28-43.12,41.85-58.85,5.22-4.42,10.76-8.41,16.56-12.02,3.7-2.31.3-8.19-3.43-5.87Z"/><path class="Graphic_Style_68" d="M261.84,674.32c-5.31-6.8-9.02-14.79-11.05-23.19-.43-1.78-2.45-2.85-4.18-2.37-1.82.5-2.81,2.39-2.37,4.18,2.32,9.58,6.74,18.43,12.79,26.19,1.13,1.45,3.62,1.19,4.8,0,1.43-1.43,1.13-3.35,0-4.8Z"/><path class="Graphic_Style_68" d="M242.17,539.57c-9.47,30.89-10.57,64.07-3.29,95.54.99,4.26,7.54,2.46,6.55-1.81-7.02-30.31-5.83-62.19,3.29-91.93,1.28-4.19-5.27-5.98-6.55-1.81Z"/><path class="Graphic_Style_68" d="M215.1,557.04c-1.43-.83-3.93-.48-4.65,1.22-8.76,20.64-10.79,43.55-5.55,65.38,1.02,4.25,7.57,2.45,6.55-1.81-4.78-19.9-3.13-41.28,4.87-60.15.72-1.69.51-3.64-1.22-4.65Z"/><path class="cls-6" d="M162.22,681.94c1.55,4.4-61.65-42.43-8.81-86.47-27.22-29.62.8-52.84,16.01-40.83,8.01-20.82,26.42-3.23,26.42-3.23,0,0-5.6-26.39,22.42-24.79-55.25-29.62,5.6-87.27,29.62-36.83-1.6-24.02,27.22-24.82,28.82,2.4,2.4-18.41,18.42-.8,18.42-3.2s17.61-60.05,55.24-11.21c-3.2-25.62,21.62-18.41,27.22,2.4,4-19.22,16.81-4.8,16.81-4.8,0,0-18.42-39.23,12.81-47.24,31.23-8.01,41.63,14.41,36.03,35.23,20.82-27.22,46.44-8.81,41.63,24.02,8.01-13.61,23.22-6.41,23.22-6.41,0,0,2.4-49.64,44.84-27.22,15.21-44.84,78.46-11.21,40.83,29.62,30.42-25.62,47.24,24.02,16.01,35.23,30.42,18.42-18.42,69.66-36.83,12.01-15.21,11.21-24.02-6.41-24.02-6.41,0,0-15.21,38.43-32.83,25.62-17.61-12.81-16.81-32.03-16.81-32.03,0,0-18.42,12.81-28.02-6.41-8.01,44.84-58.45,34.43-64.85-1.6-16.81,26.42-44.04.8-47.24-13.61-8.81,24.82-22.42,7.21-22.42,7.21,0,0-24.9,34.1-39.23,7.21,2.4,42.43-36.83,32.83-44.84,17.61,8.81,41.63-28.02,45.64-40.83,38.43,16.81,24.82-25.62,26.42-25.62,26.42,0,0,17.25,23.71-18.42,28.82-20.82,22.42-10.41,46.44-5.6,60.05Z"/><path class="Graphic_Style_68" d="M478.45,519.81c.43-9.03-1.84-18.07-6.56-25.87-5.98-9.87-16.5-18.75-28.5-19.01-4.37-.09-4.37,6.7,0,6.79,9.75.21,18.27,8.19,22.95,16.18,2.45,4.19,4.12,8.84,4.91,13.63,0-.04.02-.08.03-.12,2.07,4.15,4.56,6.8,7.18,8.41Z"/><path class="Graphic_Style_68" d="M568.78,484.63c-11.86.19-22.85,7.67-27.26,18.69-3.72,9.3-1.91,20.27,3.95,28.27,2.11-4.03,3.34-7.08,3.45-7.35-2.86-5.69-3.42-12.49-1.07-18.54,3.27-8.42,12-14.14,20.93-14.28,4.37-.07,4.38-6.86,0-6.79Z"/><path class="cls-13" d="M864.73,360.39c-2.1,1.12-10.26,6.88-17.03,11.73-.15-.26-.32-.52-.5-.78,7-5.05,19.15-13.91,21.24-16.07,4.08-4.21.48-9.58-4.88-6.72-2.88,1.54-17.11,11.76-23.59,16.45l-.72-.51c7.01-5.09,16.31-11.95,18.11-13.81,4.07-4.21.48-9.58-4.87-6.72-2.66,1.42-15.01,10.25-21.98,15.28-.24-.14-.47-.28-.69-.42,6.49-4.74,13.76-10.16,15.33-11.78,4.07-4.21.48-9.58-4.87-6.72-2.62,1.4-14.61,9.97-21.64,15.04-1.05.57-2.29,1.45-3.95,2.65l-3.94,2.77-75.05-13.37-92.72-56.7c-1.2-.63-2.43-1.17-3.67-1.63-8.84-4.77-18.97-8.09-26.92-10-.97-.23-1.95-.45-2.94-.65-.02-.11-.05-.22-.07-.33,1.26-2.7,2.21-5.59,2.89-8.53,2.76-7.2,3.02-12.32,3.06-19.13,5.43-2.93,10.96-6.64,13.87-12.08,2.91-5.44,4.99-10.2,1.19-15.06-2.36,2.59-5.6,4.1-9.1,4.32-3.49.23-10.73-1.72-14.17-2.39,5.26-2.18,9.97-6.12,12.08-11.33-7.23.78-11.27,1.64-18.49.3-4.21-.78-9.42-2.48-13.72-2.98-15.75-1.86-30.28,3.1-41.01,14.91-6.12,6.73-9.66,14.3-11.19,23.26-.77,4.52-.65,7.26.45,11.63,1.15,4.58,2.44,7.71,5.07,11.63,1.39,2.08,4.23,6.73,5.67,6.56-1.65.19-3.53,1.71-2.98,3.28.18.51-.41,1.2-.07,1.61-4.11,1.06-8.21,2.27-12.3,3.72-6.69,2.38-15.89,5.99-22.55,10.8l-42.56,43.99-68.84,30.17-4.48-1.76c-1.9-.78-3.31-1.35-4.46-1.65-8.02-3.28-21.69-8.8-24.56-9.54-5.88-1.53-8.11,4.54-3.16,7.68,1.91,1.21,10.25,4.77,17.67,7.86-.19.18-.38.37-.57.57-7.96-3.26-22.03-8.95-24.95-9.7-5.88-1.53-8.11,4.54-3.16,7.68,2.18,1.39,12.84,5.87,20.84,9.17l-.58.67c-7.4-3.04-23.62-9.63-26.79-10.45-5.88-1.53-8.11,4.54-3.16,7.68,2.53,1.6,16.43,7.37,24.41,10.64-.11.3-.21.59-.3.88-7.72-3.13-17-6.81-19.31-7.4-5.88-1.53-8.11,4.54-3.16,7.68,3.34,2.11,26.37,11.44,29.68,12.79.27.11.54.22.81.33-.2.34-.41.63-.64.85-1.54,1.47-2.84,1.62-4.92,1.73-4.71.24-9.56,1.79-12.03,6.15-.88,1.56-1.14,3.91.41,4.81.56.32,28.52.72,32.91.42,1.39-.09,10.29-2.7,19.47-7.09l78.12-30.01c2.84-.87,5.56-2.32,7.96-4.38.07-.06.15-.13.23-.2l28.6-19.99c.48,1.28.98,2.56,1.48,3.83.53,1.36,1.08,2.71,1.63,4.06,2.27,5.51,2.63,11.5,3.09,17.44.29,3.66,1.39,9.14,2.22,14.02.42,2.46.77,4.77.91,6.62,0,.04,0,.07.01.11-2.52,1.66-5.23,3.58-8.1,5.71-9.77,7.26-21.36,17.04-33.52,28.02-18.81,16.99-38.95,36.85-55.7,54.69.56.73,1.48,1.94,2.76,3.52-.28.31-.56.62-.84.93-4.21,4.68-8.03,9.09-11.33,13.09-4.39,5.32-6.59,11.81-6.63,18.29-.08,1.17-.09,2.35-.01,3.53,4.85,22.46,10.96,45.82,17.39,68.92-26.68-9.84-51.83-16.58-78.51-26.42-9.77-3.6-20.93-6.84-31.8-9.97-12.74-3.67-26.29-7.47-39.02-7.73-3.98-.08-7.99.76-11.86,1.2-9.58,1.09-17.76,2.73-23.72,10.31-5.16,6.55-10.18,12.27-11.58,18.96-14.38,59.25,98.05,128.03,134.31,144.68,111.87,51.37,236.57,79.43,358.4,97.12,21.67,3.15,33.55,1.17,48.13-4.64,7.08-2.82,19.47-9.26,23.81-16.45,1.01-1.4-.29-5.51.42-7.1,11.61-25.87-4.92-44.46-34.72-65.15-14.3-9.93-29.16-18.24-47.27-26.64-6.82-3.17-14.14-6.35-21.14-9.28-4.22-1.77-8.32-3.14-12.55-4.81-13.82-5.48-27.68-10.32-40.57-14.78-13.97-4.84-27.67-12.88-38.68-16.42-4.9-32.09-10.74-69.8-12.69-77.4-1.64-6.41-3.74-14.15-6.62-21.82.27-.24.55-.49.83-.73,1.81-1.6,3.66-3.24,5.54-4.91,1.11.21,2.23.41,3.36.6,1.6.26,3.23.5,4.88.7,6.63-6.09,13.36-12.38,19.92-18.65,5.83-5.57,11.53-11.11,16.91-16.46,16.27-16.18,29.62-30.57,34.9-38.43,1.95-2.9,3.72-6.03,5.26-9.31,1.2-2.57,2.26-5.24,3.15-7.98,2.95-7.65,3.92-17.36,3.62-24.85-.66-16.99-3.31-25.7-6.72-42.37-.22-1.08-.55-2.06-.98-2.96-.25-5.13-.74-10.9-1.12-14.92-.24-2.58-.44-4.43-.51-4.93-.41-3.04-.82-6.07-1.28-9.1l39.96,17.8c1.64.86,3.34,1.5,5.06,1.92.96.35,1.97.61,3.01.77l85.39,11.16c9.95,2.11,19.22,2.55,20.59,2.32,4.33-.74,31.42-7.68,31.89-8.13,1.3-1.23.49-3.46-.73-4.77-3.42-3.66-8.5-4.03-13.13-3.16-2.05.38-3.35.54-5.19-.53-.28-.16-.55-.39-.82-.68.24-.17.48-.35.71-.51,2.9-2.09,23.1-16.55,25.85-19.39,4.07-4.21.48-9.58-4.88-6.72ZM535.02,529.05c-.32.5-.64.99-.95,1.48-3.25,5.07-6.18,9.84-8.7,14.15-1.01,1.73-1.83,3.53-2.45,5.37-1.44,3.69-2.13,7.64-1.85,11.63,5.52,25.56,12.66,52.26,20.07,78.45-13.1-4.83-26.21-9.67-39.32-14.5-1.04-8.48-2.12-17.17-3.17-25.42-2.66-20.86-5.14-38.88-6.3-43.42-1.4-5.47-3.13-11.92-5.4-18.46,1.43-.9,2.88-1.82,4.35-2.76,2.63.97,5.35,1.87,8.16,2.69,2.93-1.93,5.88-3.88,8.84-5.86,12.39-8.28,24.81-16.87,35.95-24.91-4.43,6.24-8.69,12.41-12.7,18.36.7.66,1.87,1.76,3.48,3.19Z"/><path class="cls-5" d="M769.98,733.24c-14.3-9.93-31.44-19.15-49.55-27.55-6.82-3.17-13.78-6.21-20.78-9.14-4.22-1.77-8.46-3.49-12.68-5.17-13.82-5.48-27.55-10.47-40.44-14.94-13.97-4.84-26.94-9.05-37.96-12.59,2.98,19.52,5.61,36.96,6.81,44.29l-69.27,13.83c-2.14-10.71,2.42-21.2,10.79-27.14-5.06-17.56-10.49-35.99-15.77-54.68-13.1-4.83-26.21-9.67-39.32-14.5,3.41,27.89,6.36,53.5,6.36,53.5l-.1-.02v.02s-70.56,2.94-70.56,2.94h0c-.44-10.43,5.14-19.7,13.65-24.5-5.29-18.26-10.89-37.35-16.25-56.61-26.68-9.84-53.35-19.68-80.03-29.52-9.76-3.6-20.34-7.43-31.22-10.56-12.74-3.67-25.9-6.38-38.63-6.65-3.98-.08-7.91.07-11.78.51-9.58,1.09-19.2,5.08-25.16,12.67-5.15,6.55-8.27,13.21-9.67,19.9-17.13,59.08,97.01,131.04,133.26,147.69,111.87,51.37,237.36,79.54,359.19,97.23,21.67,3.15,34.73-.06,49.32-5.87,7.08-2.82,18.54-11.16,22.88-18.34,1.01-1.4,1.88-2.89,2.6-4.48,11.6-25.87-5.9-49.63-35.7-70.32Z"/><path class="cls-4" d="M596.22,275.61c-4.42-.04-7.96-.63-12.08-2.24-.32,1.2-.17,1.73-.12,3.16.44,1.11,1.14,2.11,2,2.81,1.82,1.49,4.41,1.91,6.66,1.23.87-.26,1.71-.69,2.39-1.28.04-.38.21-.64.39-.87.49-1.21.93-1.63.75-2.82Z"/><path class="cls-7" d="M611.03,269.26c-.5-2.22-2.04-4.24-4.04-4.86-.7-3.11-5.15-3.8-6.7-.89-.67,1.26-.48,2.91.43,4.01-.49.9-.77,1.9-.75,2.93.06,2.71,2.18,5.23,4.83,5.75,2.19.44,4.45-.62,5.61-2.51.81-1.31.95-2.92.61-4.43Z"/><path class="cls-7" d="M576.62,263.51c-.12.23-.22.48-.28.73-2.86-.38-5.23,2.16-5.87,5.02-.34,1.51-.2,3.12.61,4.43,1.16,1.89,3.42,2.95,5.61,2.51,2.65-.53,4.77-3.05,4.83-5.75.02-.66-.1-1.32-.31-1.94.06-.02.11-.05.17-.07,1.36-.66,2.2-2.24,2-3.73-.46-3.38-5.16-4.21-6.76-1.2Z"/><path class="cls-11" d="M630.32,221.44c-2.36,2.59-5.92,3.82-9.41,4.04-3.49.23-6.98-.44-10.41-1.11,5.25-2.18,9.05-7.25,11.17-12.46-7.23.78-13.96,1-21.18-.34-4.21-.78-8.02-2.38-12.31-2.89-15.75-1.86-32.93,4.07-43.67,15.88-6.12,6.73-10.2,15.26-11.73,24.22-.77,4.52-.51,8.04.59,12.42,1.15,4.58,3.17,8.94,5.79,12.87,1.39,2.08,3.5,4.92,4.94,4.76-1.65.19-2.5,2.3-1.96,3.87.18.51.45.97.79,1.38,3.87-1,7.76-1.88,11.67-2.75-1.38-.09-2.74-.41-4.04-.91-4.53-1.77-8.24-5.85-9.01-10.67-.39-2.45-.19-5.05.92-7.27,2.23-4.45,6.78-6.16,11.24-5.5,1.25.18,2.5.55,3.69,1.1.31.14.61.29.9.45.87.47,1.69,1.02,2.44,1.63.79.65,1.51,1.37,2.15,2.15.71.87,1.32,1.81,1.82,2.81,3.43-1.27,6.72-2.95,9.76-4.99.08.08.16.14.27.18.21.08.45.07.68.05l6.15-.4c.63-.04,1.37-.16,1.65-.72.24-.49,0-1.08-.31-1.53-.63-.98-1.55-1.81-2.66-2.15,1.29-1.21,2.52-2.49,3.66-3.84,3.58-4.23,6.13-9.05,7.61-14.25,2.86,5.39,6.68,10.28,11.23,14.35,3.26,2.92,6.91,5.42,10.83,7.37-.11,3.38-.53,6.9-1.32,10.35,3.66-5.43,5.2-11.52,5.24-18.33,5.43-2.93,10.57-6.86,13.48-12.3,2.91-5.44,3.15-12.62-.65-17.49Z"/><path class="cls-8" d="M517.29,346.19c-2.24-6.77-4.23-13.61-5.97-20.52-.47-1.88-.93-3.76-1.37-5.64-1.39-6.01-5.44-15.77-1.87-21.41l-42.56,43.99-68.84,30.17-4.48-1.76c-1.9-.78-3.31-1.35-4.46-1.65-8.02-3.28-21.69-8.8-24.56-9.54-5.88-1.53-8.11,4.54-3.16,7.68,1.91,1.21,10.25,4.77,17.67,7.86-.19.18-.38.37-.57.57-7.96-3.26-22.03-8.95-24.95-9.7-5.88-1.53-8.11,4.54-3.16,7.68,2.18,1.39,12.84,5.87,20.84,9.17l-.58.67c-7.4-3.04-23.62-9.63-26.79-10.45-5.88-1.53-8.11,4.54-3.16,7.68,2.53,1.6,16.43,7.37,24.41,10.64-.11.3-.21.59-.3.88-7.72-3.13-17-6.81-19.31-7.4-5.88-1.53-8.11,4.54-3.16,7.68,3.34,2.11,26.37,11.44,29.68,12.79.27.11.54.22.81.33-.2.34-.41.63-.64.85-1.54,1.47-2.84,1.62-4.92,1.73-4.71.24-9.56,1.79-12.03,6.15-.88,1.56-1.14,3.91.41,4.81.56.32,28.52.72,32.91.42,1.39-.09,10.29-2.7,19.47-7.09l78.12-30.01c2.84-.87,5.56-2.32,7.96-4.38.07-.06.15-.13.23-.2l28.6-19.99c-1.5-3.97-2.92-7.97-4.25-12Z"/><path class="cls-10" d="M687.63,444.6c-.66-16.99-3.31-25.7-6.72-42.37-.22-1.08-.55-2.06-.98-2.96.3,6.07.28,11.25-.63,11.53-26.89,8.39-55.71,13.69-84.03,13.53-12.47-.07-25.09-1.78-36.95-5.69-3.13-1.03-19.15-6.47-25.16-11.33-1.3-1.06-2.14-2.08-2.27-3.04-2.52,1.66-5.23,3.58-8.1,5.71-9.77,7.26-21.36,17.04-33.52,28.02-18.81,16.99-38.95,36.85-55.7,54.69.56.73,1.48,1.94,2.76,3.52,0,.5-.16.63-.4,1.09,15.57,17.87,40.59,49.14,40.59,49.14,0,0,9.78,18.65,20.86,49.13-2.66-20.87-4.97-34.08-6.13-38.61-1.4-5.47-4.23-12.1-6.5-18.65,1.43-.9,3.97-2.65,6.54-2.72,2.63.97,5.35,1.87,8.16,2.69,2.93-1.93,5.88-3.88,8.84-5.86,13.37-12.06,24.84-20.35,35.95-24.91-4.43,6.24-8.69,12.41-12.7,18.36.7.66,1.87,1.76,3.48,3.19-.32.5.12,1.15-.19,1.64,12.2,11.14,24.52,20.04,38.44,26.5,5.74,2.67,11.16,4.54,17.29,4.74,1.81-1.6,3.22-1.28,5.09-2.96,1.11.21,2.23.41,3.36.6,1.6.26,3.23.5,4.88.7,6.63-6.09,13.36-12.38,19.92-18.65,5.83-5.57,11.53-11.11,16.91-16.46,16.27-16.18,29.62-30.57,34.9-38.43,1.95-2.9,3.72-6.03,5.26-9.31,1.2-2.57,2.26-5.24,3.15-7.98,2.95-7.65,3.92-17.36,3.62-24.85Z"/><path class="cls-8" d="M508.18,679.13s-2.95-25.61-6.36-53.5c-1.04-8.48-2.12-17.17-3.17-25.42-2.66-20.86-5.14-38.88-6.3-43.42-1.4-5.47-3.13-11.92-5.4-18.46,1.43-.9,2.88-1.82,4.35-2.76-3.16-1.16-6.18-2.42-9.07-3.75-8.85-4.08-16.47-8.84-22.89-13.63-11.36-8.48-18.97-17.03-23-21.99-.28.31-.56.62-.84.93-4.21,4.68-8.03,9.09-11.33,13.09-4.39,5.32-6.59,11.81-6.63,18.29-.08,1.17-.09,2.35-.01,3.53,4.85,22.46,10.96,45.82,17.39,68.92,5.36,19.26,10.96,38.35,16.25,56.61-8.51,4.79-14.09,14.07-13.65,24.5h0l70.57-2.94v-.02s.09.02.09.02Z"/><path class="cls-10" d="M556.24,430.59c-10.47-9.83-18.95-18.26-23.08-23.28-1.3-1.06-2.14-2.08-2.27-3.04-2.52,1.66-5.23,3.58-8.1,5.71-9.77,7.26-21.36,17.04-33.52,28.02-18.81,16.99-38.95,36.85-55.7,54.69.56.73,1.48,1.94,2.76,3.52,0,.5-.16.63-.4,1.09,15.57,17.87,40.59,49.14,40.59,49.14,0,0,9.78,18.65,20.86,49.13-2.66-20.87-4.97-34.08-6.13-38.61-1.4-5.47-4.23-12.1-6.5-18.65,1.43-.9,3.97-2.65,6.54-2.72,2.63.97,5.35,1.87,8.16,2.69,2.93-1.93,5.88-3.88,8.84-5.86,13.37-12.06,24.84-20.35,35.95-24.91.52-.73,1.03-1.45,1.55-2.18,10.07-14.13,20.92-28.56,31.4-41.7,2.19-2.74,4.36-5.42,6.51-8.03-9.62-8.54-19.17-17.21-27.47-25Z"/><path class="cls-8" d="M679.93,399.27c-.25-5.13-.74-10.9-1.12-14.92-1.75-2.92-2.14-3.9-1.49-5.4-.41-3.04-1.04-6.51-.3-8.64l-28.46-12.68c.39.46.79.91,1.19,1.36-.21-.02-.41-.03-.62-.04-4.49-.21-8.89,1.1-13.19,2.4-17.51,5.29-34.81,10.9-52.14,16.78-7.09,2.41-14.17,4.81-21.25,7.21-7.99,2.71-23.31,5.53-32.59,12.19.42,2.46.77,4.77.91,6.62,0,.04,0,.07.01.11.13.95.96,1.98,2.27,3.04,6.01,4.86,22.03,10.3,25.16,11.33,11.86,3.91,24.49,5.62,36.95,5.69,28.33.15,57.14-5.15,84.03-13.53.9-.28.92-5.45.63-11.53Z"/><path class="cls-2" d="M787.26,819.74c-11.88,4.73-26.79,7.02-40.35,6.7-3.38-.08-6.68-.32-9.83-.73-3.13-.4-6.25-.83-9.38-1.26-3.98-.55-7.95-1.12-11.93-1.71-12.87-1.92-25.73-4.06-38.57-6.42-103.88-19.06-206.35-52.26-301.85-96.12-4.98-2.29-11.41-5.38-18.76-9.16-12.39-6.38-27.4-14.72-42.53-24.46-41.14-26.48-83.15-63.33-75.63-99.27-17.13,59.08,97.01,131.04,133.26,147.69,111.87,51.37,237.36,79.54,359.19,97.23,21.67,3.15,34.73-.06,49.32-5.87,7.08-2.82,18.54-11.16,22.88-18.34-3.85,5.33-9.66,9.25-15.83,11.71Z"/><path class="cls-9" d="M677.2,816.32c12.84,2.36,25.7,4.5,38.57,6.42l-28.8-131.36c-13.82-5.48-27.55-10.47-40.44-14.94l30.67,139.89Z"/><path class="cls-9" d="M314.06,686.59c15.13,9.74,30.14,18.08,42.53,24.46l-32.92-150.15c-12.74-3.67-25.9-6.38-38.63-6.65l29.02,132.34Z"/><path class="cls-9" d="M727.7,824.45c3.13.43,6.25.85,9.38,1.26,3.15.41,6.45.65,9.83.73l-26.48-120.76c-6.82-3.17-13.78-6.21-20.78-9.14l28.04,127.91Z"/><path class="cls-2" d="M498.65,600.22c-2.66-20.86-5.14-38.88-6.3-43.42-1.4-5.47-3.13-11.92-5.4-18.46,1.43-.9,2.88-1.82,4.35-2.76-3.16-1.16-6.18-2.42-9.07-3.75-8.85-4.08-16.47-8.84-22.89-13.63-11.36-8.48-18.97-17.03-23-21.99-.28.31-.56.62-.84.93,13.6,18.71,39.74,50.32,39.74,50.32,0,0,10.94,23.26,23.4,52.76Z"/><path class="cls-2" d="M562.52,461.27s-34.32,46.27-54.24,71.14c12.39-8.28,24.81-16.87,35.95-24.91.52-.73,1.03-1.45,1.55-2.18,10.07-14.13,20.92-28.56,31.4-41.7,2.19-2.74,4.36-5.42,6.51-8.03-9.62-8.54-19.17-17.21-27.47-25l6.29,30.68Z"/><path class="cls-2" d="M511.31,325.67c-.08,11.15-.39,23.5-2.12,26.51-5.13,8.95-10.63,17.7-16.48,26.2.07-.06.15-.13.23-.2l28.6-19.99c-1.5-3.97-2.92-7.97-4.25-12-2.24-6.77-4.23-13.61-5.97-20.52Z"/><path class="cls-2" d="M535.02,529.05c-.32.5-.64.99-.95,1.48,10.55,12.77,24.21,21.71,38.13,28.18,5.74,2.67,11.78,4.98,17.91,5.19,1.81-1.6,3.66-3.24,5.54-4.91-31.18-5.99-52.12-22.4-60.62-29.93Z"/><path class="cls-2" d="M648.56,357.64c.39.46.79.91,1.19,1.36,2.32,2.62,4.73,5.15,7.23,7.59,6.19,6.03,13.74,13.29,21.82,17.76-.24-2.58-.44-4.43-.51-4.93-.41-3.04-.82-6.07-1.28-9.1l-28.46-12.68Z"/><path class="cls-2" d="M602.08,287.98c-8.25,7.03-19.99,7.7-29.84,3.79-6.24-2.48-12.41-5.83-17.48-10.39,2.12,6.47,6.27,11.47,12.48,15.23,7.46,4.52,16.17,6.99,24.9,6.92,6.9-.05,13.63-3.75,16.65-10.11,1.9-4.02,1.81-9.47.75-14.59-.03-.14-.06-.28-.09-.42-.02-.11-.05-.22-.07-.33-1.78,3.81-4.17,7.24-7.29,9.9Z"/><path class="cls-7" d="M590.24,270.21c-.66-.02-.65,1,0,1.02,1.63.06,3.41-.56,4.2-2.09.76-1.46.24-3.37-1.36-3.98-.98-.37-2.04-.15-3.03.07-.64.15-.37,1.13.27.98.82-.19,1.81-.43,2.61-.01.62.33.92,1.04.85,1.73-.17,1.7-2.09,2.34-3.54,2.29Z"/><path class="cls-2" d="M587.58,275.68c2.54.07,5.2.99,6.92,2.88.21.23.4.47.58.73.22-.19.42-.39.61-.62.76-.93,1.12-2.23.94-3.41-4.42-.04-8.82-.9-12.93-2.52-.32,1.2-.16,2.55.34,3.79,1.03-.63,2.34-.89,3.55-.85Z"/><path class="cls-2" d="M605.05,268.44c1.36-.66,2.2-2.24,1.99-3.73-.01-.1-.03-.21-.06-.31-.7-3.11-5.15-3.8-6.7-.89-.67,1.26-.48,2.91.43,4.01.05.06.11.12.16.18,1.05,1.09,2.81,1.4,4.17.74Z"/><path class="cls-2" d="M577.21,267.7c1,1.04,2.67,1.37,4,.81.06-.02.11-.05.17-.07,1.36-.66,2.2-2.24,2-3.73-.46-3.38-5.16-4.21-6.76-1.2-.12.23-.22.48-.28.73-.31,1.2.01,2.56.87,3.46Z"/><path class="cls-11" d="M600.94,259.96l6.15.4c.23.02.46.03.68-.05.48-.18.65-.78.61-1.29-.2-2.44-3.92-4.07-6.02-3.49-1.16.32-2.11,1.17-2.77,2.18-.3.46-.54,1.04-.3,1.53.27.57,1.02.68,1.65.72Z"/><path class="cls-12" d="M579.49,244.25c-5.71,5.91-12,11.25-18.76,15.92.79.65,1.51,1.37,2.15,2.15,6.96-4.47,12.76-10.74,16.61-18.06Z"/><path class="cls-12" d="M563.2,245.36l-9.5,11.63c1.25.18,2.5.55,3.69,1.1.31.14.61.29.9.45,1.86-4.31,3.5-8.71,4.91-13.18Z"/><path class="cls-7" d="M549.91,262.32c1.87,1.49,3.29,3.43,4.14,5.61-.6-.43-1.26-.79-1.94-1.06-1.23-.48-2.89-.55-3.75.64-.97,1.33-.2,3.15.48,4.43.77,1.44,1.88,2.64,3.2,3.6.79.58,1.56-.75.77-1.32-.93-.68-1.74-1.54-2.35-2.53-.46-.75-1.46-2.36-.91-3.25.52-.83,1.96-.22,2.59.11,1.12.58,2.05,1.39,2.83,2.38.52.67,1.38-.09,1.27-.74-.58-3.51-2.48-6.74-5.27-8.96-.76-.61-1.85.46-1.08,1.08Z"/><path class="cls-8" d="M637.71,292.05c.67-.29,1.33-.58,2-.86-13.69,3.46-27.55,7.56-39.5,15.09,13-2.85,25.32-8.92,37.5-14.23Z"/><path class="cls-8" d="M528.86,294.03c.69.22,1.38.44,2.07.66,12.65,4.07,25.52,8.88,38.74,10.41-12.64-6.3-26.85-8.99-40.81-11.07Z"/><path class="cls-9" d="M192.04,448.99c-23.43-8.8-51.04-17.84-83.83-24.63-1.21,7.38-2.1,14.9-2.64,22.54-4.94-.88-10.01-1.7-15.2-2.45,1.06-22.37,4.98-43.85,11.44-63.96,5.63,1.32,11.14,2.69,16.51,4.12-2.39,6.8-4.47,13.78-6.24,20.91,33.63,7.86,62.01,17.88,86.19,27.61-2.28,5.14-4.36,10.43-6.23,15.85Z"/><path class="cls-9" d="M210.7,409.69c-29.16-13.12-64.01-26.75-106.18-37.15,3.46-9.58,7.51-18.82,12.1-27.68,10.04-19.51,30.65-23.35,54.23-13.31,7.1,3.01,12.19,6.45,15.45,10.21,3.27,3.77,4.44,8.31,3.8,13.76,20.35,2.71,39.76,6.54,58.32,11.18-4.3,3.51-8.44,7.24-12.41,11.18-16.57-3.56-33.86-6.51-51.95-8.59-1.92,2.79-3.78,5.64-5.56,8.55,14.94,6.07,28.7,12.31,41.44,18.46-3.25,4.29-6.33,8.76-9.22,13.39ZM128.62,360.03c12.78,3.94,24.86,8.14,36.29,12.48,1.65-2.86,3.37-5.68,5.15-8.44,1.66-2.57,2.63-4.73,2.88-6.53.24-1.8-.07-3.42-.97-4.86-.97-1.35-2.45-2.61-4.48-3.79-2.03-1.17-4.54-2.35-7.54-3.52-3.01-1.17-5.79-2.04-8.32-2.62-2.53-.58-4.96-.74-7.26-.47-4.44.73-8.34,3.79-11.36,9.33-1.51,2.77-2.97,5.58-4.37,8.43Z"/><path class="cls-9" d="M255.73,361.08c-31.22-18.85-68.28-38.51-113.08-55.53,11.55-13.92,24.73-26.28,39.25-36.8,6.15,3.02,12.16,6.08,18.02,9.17-9.68,6.49-18.79,13.8-27.26,21.87,12.65,5.69,24.66,11.56,36.05,17.51,7.52-6.16,15.48-11.73,23.83-16.65,5.27,3.14,10.41,6.29,15.43,9.44-8.36,4.52-16.36,9.69-23.94,15.47,10.85,6.02,21.12,12.09,30.86,18.13,8.81-5.69,18.13-10.56,27.85-14.53,4.78,3.41,9.43,6.81,13.96,10.19-14.61,5.26-28.39,12.58-40.98,21.73Z"/><path class="cls-9" d="M305.75,336.38c-31.55-24.59-69.11-50.27-114.8-73.83,4.85-3.15,9.83-6.1,14.93-8.85,35.54,10.99,68.35,25.01,98.43,41.22.11-.02.22-.04.32-.06-21.78-17.76-46.14-35.57-73.53-52.72,5.68-2.17,11.46-4.11,17.34-5.8,45.18,30.54,81.82,62.66,112.28,93.4-5.11-.23-10.19-.22-15.23,0-26.77-17.09-56-32.4-87.8-45.23-.1.04-.21.08-.31.12,23.73,15.98,44.77,32.2,63.65,48.02-5.17,1.01-10.27,2.25-15.28,3.74Z"/><path class="cls-9" d="M375.48,331.01c-29.93-32.39-66.09-66.26-110.91-98.68,8.95-1.86,18.07-3.18,27.34-3.94,10.79-.89,22.13,1.62,33.43,7.1,11.29,5.48,21.86,13.47,31.29,23.29,17.84,18.57,33.84,37.17,48.27,55.55,8.65,11.07,11.85,18.07,10.42,21.12-1.46,3.1-7.08,2.68-16.88.07-7.66-2.02-15.32-3.52-22.94-4.5ZM300.38,243.33c30.66,25.45,56.8,51.37,79.41,76.66,2.58.45,5.17.96,7.75,1.53,4.73,1.04,7.18.87,7.32-.83.15-1.68-1.74-4.93-5.82-9.76-15.24-17.96-32.11-36.15-50.91-54.26-4.6-4.44-9.3-7.93-14-10.38-4.69-2.45-9.82-3.66-15.26-3.46-2.84.11-5.67.27-8.49.49Z"/></g></g></svg>