<?xml version="1.0" encoding="UTF-8"?><svg id="Layer_1" xmlns="http://www.w3.org/2000/svg" viewBox="0 0 1000 1000"><defs><style>.cls-1{fill:#aa7846;}.cls-2{fill:#d65804;}.cls-3{fill:#0076f3;}.cls-4{fill:#77b004;}.cls-5{fill:#0074cb;}.cls-6{fill:#32294f;}.cls-7{fill:#ff7000;}.cls-8{fill:#ff4417;}.cls-9{fill:#ea5961;}.cls-10{fill:#ffb800;}.cls-11{fill:#fff;}.cls-12{fill:#ef7f6f;}.cls-13{fill:#e56865;}.cls-14{fill:#8bd000;}.cls-15{fill:#d98e04;}.cls-16{fill:#14081c;}.cls-17{fill:#a3443a;}.cls-18{fill:#fc9f86;}</style></defs><polygon class="cls-14" points="754.71 791.05 672.95 791.05 672.95 733.5 544.1 733.5 544.1 630.11 565.99 630.11 565.99 711.61 694.84 711.61 694.84 769.17 754.71 769.17 754.71 791.05"/><polygon class="cls-14" points="743.07 809.94 743.07 750.28 786.73 780.11 743.07 809.94"/><polyline class="cls-14" points="99.7 361.57 99.7 450.91 195.2 450.91 195.2 325.65 135.63 325.65"/><polyline class="cls-4" points="135.63 325.65 135.63 361.57 99.7 361.57"/><path class="cls-10" d="M165.04,389.9l-6.77-9.01c-1.61-2.14-4.95-1.66-5.88.85l-9.25,24.8c-1.05,2.81-4.95,2.97-6.23.27l-6.84-14.41c-1.35-2.84-5.51-2.47-6.33.57l-11.81,43.61h71.03v-61.08c0-3.78-5.24-4.72-6.56-1.18l-5.48,14.74c-.93,2.51-4.27,2.99-5.88.85Z"/><path class="cls-11" d="M180.63,338h-17.33c-.48,0-.87-.39-.87-.87s.39-.87.87-.87h17.33c.48,0,.87.39.87.87s-.39.87-.87.87Z"/><path class="cls-11" d="M180.63,344.47h-17.33c-.48,0-.87-.39-.87-.87s.39-.87.87-.87h17.33c.48,0,.87.39.87.87s-.39.87-.87.87Z"/><path class="cls-10" d="M164.22,616.34c-.71,0-1.29-.58-1.29-1.29v-22.08c0-.71.58-1.29,1.29-1.29s1.29.58,1.29,1.29v22.08c0,.71-.58,1.29-1.29,1.29Z"/><path class="cls-10" d="M175.27,605.3h-22.08c-.71,0-1.29-.58-1.29-1.29s.58-1.29,1.29-1.29h22.08c.71,0,1.29.58,1.29,1.29s-.58,1.29-1.29,1.29Z"/><path class="cls-10" d="M156.42,613.1c-.33,0-.66-.13-.91-.38-.5-.5-.5-1.32,0-1.82l15.62-15.62c.5-.5,1.32-.5,1.82,0,.5.5.5,1.32,0,1.82l-15.62,15.62c-.25.25-.58.38-.91.38Z"/><path class="cls-10" d="M172.03,613.1c-.33,0-.66-.13-.91-.38l-15.62-15.62c-.5-.5-.5-1.32,0-1.82.5-.5,1.32-.5,1.82,0l15.62,15.62c.5.5.5,1.32,0,1.82-.25.25-.58.38-.91.38Z"/><rect class="cls-3" x="254.93" y="228.03" width="383.78" height="241.06"/><path class="cls-7" d="M624.44,201.05h-355.25c-7.88,0-14.27,6.39-14.27,14.27v12.71h383.78v-12.71c0-7.88-6.39-14.27-14.27-14.27Z"/><circle class="cls-14" cx="269.12" cy="214.54" r="5.05"/><circle class="cls-10" cx="287.78" cy="214.54" r="5.05"/><circle class="cls-10" cx="306.44" cy="214.54" r="5.05"/><rect class="cls-10" x="376.77" y="275.89" width="37.99" height="193.2"/><rect class="cls-14" x="414.76" y="275.89" width="51.92" height="193.2"/><rect class="cls-14" x="488.16" y="338.55" width="37.99" height="130.54"/><rect class="cls-14" x="526.15" y="338.55" width="51.92" height="130.54"/><rect class="cls-10" x="601.29" y="403.82" width="37.99" height="65.27"/><rect class="cls-14" x="639.28" y="403.82" width="51.92" height="65.27"/><path class="cls-7" d="M876.4,634.81v-34.03h-18.34c-.7-2.06-1.52-4.06-2.46-6l13.43-13.43-24.06-24.06-13.2,13.2c-2.22-1.13-4.52-2.1-6.91-2.91v-19.98h-34.03v19.98c-2.61.89-5.13,1.97-7.54,3.24l-14.69-14.69-24.06,24.06,15.24,15.24c-.81,1.73-1.53,3.52-2.15,5.35h-21.62v34.03h21.62c.81,2.38,1.79,4.69,2.91,6.91l-14.84,14.84,24.06,24.06,15.07-15.07c1.94.94,3.94,1.76,6,2.46v19.98h34.03v-19.98c1.83-.62,3.61-1.34,5.35-2.15l13.6,13.6,24.06-24.06-13.05-13.05c1.27-2.41,2.35-4.93,3.24-7.54h18.34ZM838.97,617.8c0,17.17-13.97,31.13-31.13,31.13s-31.13-13.97-31.13-31.13,13.97-31.13,31.13-31.13,31.13,13.96,31.13,31.13Z"/><path class="cls-10" d="M502.91,130.99c-1.99,0-3.93.24-5.78.7-2.27-21.51-20.47-38.28-42.59-38.28-19.55,0-36.03,13.09-41.17,30.99-1.24-.17-2.52-.26-3.81-.26-15.17,0-27.46,12.3-27.46,27.46s12.3,27.46,27.46,27.46h93.34c13.28,0,24.04-10.76,24.04-24.04s-10.76-24.04-24.04-24.04Z"/><path class="cls-3" d="M686.16,680.93c-7.06,0-12.6-11.15-12.6-25.38s5.53-25.38,12.6-25.38,12.6,11.15,12.6,25.38-5.53,25.38-12.6,25.38Z"/><path class="cls-3" d="M654.19,636.03c-2.02,0-4.09,1.94-5.67,5.33-1.76,3.77-2.73,8.81-2.73,14.19s.97,10.43,2.73,14.19c1.58,3.39,3.65,5.33,5.67,5.33s4.09-1.94,5.67-5.33c1.76-3.77,2.73-8.81,2.73-14.19s-.97-10.43-2.73-14.19c-1.58-3.39-3.65-5.33-5.67-5.33Z"/><path class="cls-3" d="M626.58,671.61c-4.7,0-8.24-6.9-8.24-16.05s3.54-16.06,8.24-16.06,8.24,6.9,8.24,16.06-3.54,16.05-8.24,16.05Z"/><circle class="cls-14" cx="454.53" cy="128.64" r="5.46" transform="translate(224.91 541.45) rotate(-76.72)"/><circle class="cls-14" cx="480.66" cy="152.61" r="5.46" transform="translate(221.7 585.35) rotate(-76.72)"/><circle class="cls-14" cx="424.66" cy="141.7" r="5.46"/><polygon class="cls-14" points="436.4 201.89 434.75 201.89 434.75 185.04 453.7 161.8 453.7 130.12 455.36 130.12 455.36 162.39 436.4 185.63 436.4 201.89"/><rect class="cls-14" x="479.83" y="152.61" width="1.66" height="49.27"/><rect class="cls-14" x="423.83" y="141.7" width="1.66" height="60.39"/><polygon class="cls-14" points="504.56 202.09 502.9 202.09 502.9 188.71 480.08 166.6 481.23 165.41 504.56 188 504.56 202.09"/><path class="cls-14" d="M210.59,594.48v100.92h149.92v-100.92c0-2.24-1.82-4.06-4.06-4.06h-141.81c-2.24,0-4.06,1.82-4.06,4.06Z"/><rect class="cls-10" x="215.18" y="595.03" width="140.72" height="95.78" rx="1.71" ry="1.71"/><path class="cls-14" d="M360.51,695.41h-149.92l-74.96,45.65v3.6c0,3.17,2.57,5.73,5.73,5.73h142.58c1.05,0,2.08-.29,2.98-.84l70.84-43.14c1.71-1.04,2.75-2.9,2.75-4.9v-6.11Z"/><polygon class="cls-11" points="135.63 741.06 210.59 695.41 360.51 695.41 285.55 741.06 135.63 741.06"/><rect class="cls-7" x="170.56" y="652.63" width="16.89" height="76.36"/><rect class="cls-7" x="197.64" y="702.25" width="16.89" height="26.74"/><rect class="cls-7" x="224.72" y="637.72" width="16.89" height="91.26"/><rect class="cls-7" x="251.8" y="672.3" width="16.89" height="56.68"/><rect class="cls-7" x="278.88" y="632.48" width="16.89" height="96.5"/><path class="cls-5" d="M420.11,540.01h0c4.07-4.07,4.07-10.67,0-14.74l-45.96-45.96c-4.07-4.07-10.67-4.07-14.74,0h0c-4.07,4.07-4.07,10.67,0,14.74l45.96,45.96c4.07,4.07,10.67,4.07,14.74,0Z"/><path class="cls-7" d="M368.04,487.93h0c-2.21,2.21-5.79,2.21-8,0l-26.46-26.46,8-8,26.46,26.46c2.21,2.21,2.21,5.79,0,8Z"/><circle class="cls-10" cx="314.98" cy="434.87" r="51.17"/><circle class="cls-14" cx="314.98" cy="434.87" r="43.88"/><rect class="cls-7" x="295.62" y="423.39" width="38.73" height="35.65" rx="4.2" ry="4.2"/><path class="cls-11" d="M320.05,437.99c0-2.8-2.27-5.07-5.07-5.07s-5.07,2.27-5.07,5.07c0,1.96,1.11,3.65,2.73,4.5v9.77h4.68v-9.77c1.62-.85,2.73-2.54,2.73-4.5Z"/><path class="cls-11" d="M324.23,426.54c-.6,0-1.09-.49-1.09-1.09v-12.06c0-4.5-3.66-8.16-8.16-8.16s-8.16,3.66-8.16,8.16v12.06c0,.6-.49,1.09-1.09,1.09s-1.09-.49-1.09-1.09v-12.06c0-5.7,4.64-10.34,10.34-10.34s10.34,4.64,10.34,10.34v12.06c0,.6-.49,1.09-1.09,1.09Z"/><path class="cls-11" d="M346.9,257.57h-64.17c-.6,0-1.09-.49-1.09-1.09s.49-1.09,1.09-1.09h64.17c.6,0,1.09.49,1.09,1.09s-.49,1.09-1.09,1.09Z"/><path class="cls-11" d="M346.9,277.69h-64.17c-.6,0-1.09-.49-1.09-1.09s.49-1.09,1.09-1.09h64.17c.6,0,1.09.49,1.09,1.09s-.49,1.09-1.09,1.09Z"/><path class="cls-11" d="M346.9,297.82h-64.17c-.6,0-1.09-.49-1.09-1.09s.49-1.09,1.09-1.09h64.17c.6,0,1.09.49,1.09,1.09s-.49,1.09-1.09,1.09Z"/><path class="cls-11" d="M346.9,317.94h-64.17c-.6,0-1.09-.49-1.09-1.09s.49-1.09,1.09-1.09h64.17c.6,0,1.09.49,1.09,1.09s-.49,1.09-1.09,1.09Z"/><path class="cls-11" d="M346.9,338.06h-64.17c-.6,0-1.09-.49-1.09-1.09s.49-1.09,1.09-1.09h64.17c.6,0,1.09.49,1.09,1.09s-.49,1.09-1.09,1.09Z"/><path class="cls-7" d="M235.63,512.1h-51.99v51.99c-28.71,0-51.99-23.27-51.99-51.99s23.27-51.99,51.99-51.99,51.99,23.27,51.99,51.99Z"/><circle class="cls-7" cx="742.16" cy="417.88" r="7.51"/><circle class="cls-7" cx="892.59" cy="417.88" r="7.51" transform="translate(337.13 1232.01) rotate(-80.78)"/><path class="cls-3" d="M725.04,419.25h-11.36c-.76,0-1.37-.61-1.37-1.37s.61-1.37,1.37-1.37h11.36c.76,0,1.37.61,1.37,1.37s-.61,1.37-1.37,1.37Z"/><path class="cls-3" d="M770.63,419.25h-11.36c-.76,0-1.37-.61-1.37-1.37s.61-1.37,1.37-1.37h11.36c.76,0,1.37.61,1.37,1.37s-.61,1.37-1.37,1.37Z"/><path class="cls-3" d="M791.6,419.25h-11.36c-.76,0-1.37-.61-1.37-1.37s.61-1.37,1.37-1.37h11.36c.76,0,1.37.61,1.37,1.37s-.61,1.37-1.37,1.37Z"/><path class="cls-3" d="M812.57,419.25h-11.36c-.76,0-1.37-.61-1.37-1.37s.61-1.37,1.37-1.37h11.36c.76,0,1.37.61,1.37,1.37s-.61,1.37-1.37,1.37Z"/><path class="cls-3" d="M833.54,419.25h-11.36c-.76,0-1.37-.61-1.37-1.37s.61-1.37,1.37-1.37h11.36c.76,0,1.37.61,1.37,1.37s-.61,1.37-1.37,1.37Z"/><path class="cls-3" d="M854.51,419.25h-11.36c-.76,0-1.37-.61-1.37-1.37s.61-1.37,1.37-1.37h11.36c.76,0,1.37.61,1.37,1.37s-.61,1.37-1.37,1.37Z"/><path class="cls-3" d="M875.48,419.25h-11.36c-.76,0-1.37-.61-1.37-1.37s.61-1.37,1.37-1.37h11.36c.76,0,1.37.61,1.37,1.37s-.61,1.37-1.37,1.37Z"/><circle class="cls-8" cx="364.7" cy="764.4" r="7.51" transform="translate(-264.76 197.75) rotate(-22.5)"/><circle class="cls-8" cx="476.38" cy="764.4" r="7.51"/><circle class="cls-8" cx="544.85" cy="764.4" r="7.51"/><path class="cls-3" d="M346.95,765.76h-11.36c-.76,0-1.37-.61-1.37-1.37s.61-1.37,1.37-1.37h11.36c.76,0,1.37.61,1.37,1.37s-.61,1.37-1.37,1.37Z"/><path class="cls-3" d="M393.82,765.76h-11.36c-.76,0-1.37-.61-1.37-1.37s.61-1.37,1.37-1.37h11.36c.76,0,1.37.61,1.37,1.37s-.61,1.37-1.37,1.37Z"/><path class="cls-3" d="M415.42,765.76h-11.36c-.76,0-1.37-.61-1.37-1.37s.61-1.37,1.37-1.37h11.36c.76,0,1.37.61,1.37,1.37s-.61,1.37-1.37,1.37Z"/><path class="cls-3" d="M437.03,765.76h-11.36c-.76,0-1.37-.61-1.37-1.37s.61-1.37,1.37-1.37h11.36c.76,0,1.37.61,1.37,1.37s-.61,1.37-1.37,1.37Z"/><path class="cls-3" d="M458.63,765.76h-11.36c-.76,0-1.37-.61-1.37-1.37s.61-1.37,1.37-1.37h11.36c.76,0,1.37.61,1.37,1.37s-.61,1.37-1.37,1.37Z"/><path class="cls-3" d="M505.5,765.76h-11.36c-.76,0-1.37-.61-1.37-1.37s.61-1.37,1.37-1.37h11.36c.76,0,1.37.61,1.37,1.37s-.61,1.37-1.37,1.37Z"/><path class="cls-3" d="M527.1,765.76h-11.36c-.76,0-1.37-.61-1.37-1.37s.61-1.37,1.37-1.37h11.36c.76,0,1.37.61,1.37,1.37s-.61,1.37-1.37,1.37Z"/><path class="cls-3" d="M595.57,765.76h-11.36c-.76,0-1.37-.61-1.37-1.37s.61-1.37,1.37-1.37h11.36c.76,0,1.37.61,1.37,1.37s-.61,1.37-1.37,1.37Z"/><path class="cls-3" d="M573.97,765.76h-11.36c-.76,0-1.37-.61-1.37-1.37s.61-1.37,1.37-1.37h11.36c.76,0,1.37.61,1.37,1.37s-.61,1.37-1.37,1.37Z"/><polygon class="cls-3" points="152.21 486.18 125.08 486.18 125.08 446.18 126.82 446.18 126.82 484.44 152.21 484.44 152.21 486.18"/><path class="cls-10" d="M765.35,284.24c-4.43-16.43-19.46-28.56-37.27-28.56-21.28,0-38.6,17.32-38.6,38.6s17.32,38.6,38.6,38.6c17.81,0,32.83-12.13,37.27-28.56h18.79v18.51h20.09v-18.51h17.46v11h20.09v-31.09h-76.42ZM728.09,312.8c-10.21,0-18.51-8.3-18.51-18.51s8.31-18.51,18.51-18.51,18.51,8.3,18.51,18.51-8.3,18.51-18.51,18.51Z"/><g id="_3"><path class="cls-7" d="M738.6,541.02c-.52,4.1-1.82,8.09-4.07,11.34-.8,1.15-1.65,2.23-2.58,3.24-3.16,3.44-16.74,15.18-33.31,15.03-8.58-.08-10.42-3.28-25.82-9.82-2.56-1.09-5.03-2.07-7.4-2.96-27.23-10.2-41.52-8.15-52.44-22.67-3.16-4.2-4.31-8.03-5.7-10.64-13.75-26-65.13-94.54-43.8-102.29,0,0,81.35,10.06,101.08,36.21,14.54,19.28,50.39,41.09,68.78,60.19,4.02,4.17,6.4,13.57,5.26,22.38Z"/><path class="cls-2" d="M665.41,557.86c-27.23-10.2-41.52-8.15-52.44-22.67-3.16-4.2-4.31-8.03-5.7-10.64v-40.12c3.56,8.38,8.27,17.7,14.57,27.36,14.24,21.84,30.83,36.64,43.57,46.08Z"/><path class="cls-11" d="M677.69,559.06c-9.04-14.76-14.97-31.58-15.59-48.97-.22-6.29.23-12.63,1.58-18.79.98-4.48,2.4-8.97,4.72-12.96.86-1.48,1.85-2.93,3.13-4.09.46-.42.85-.71,1.47-1.03.32-.16.89-.31,1.21-.31,1.1-.01,1.1-1.72,0-1.71-2.72.03-4.84,2.61-6.24,4.64-2.55,3.7-4.15,8.1-5.29,12.42-3.62,13.63-2.81,28.35.71,41.91,2.73,10.5,7.19,20.5,12.85,29.75.57.94,2.05.08,1.47-.86h0Z"/><path class="cls-7" d="M483.49,425.44c-.04-.45,1.53-6.97,7.33-10.54,14.62-8.99,52.08-16.27,59.23,6.75,10.83,34.87-65.3,18.7-66.56,3.78Z"/><path class="cls-7" d="M612.97,665.57c-3.04,6.68-191.69,3.64-191.69-2.43,0-1.08-.03-6.05-.09-13.53-.11-14-.31-36.82-.57-59.51-.37-33.09-.86-65.92-1.36-70.76-1.02-9.95-6.3-62.37,1.01-68.11,1.72-1.35,75.31-52.44,174.61-21.91,6.44,1.98,4.59,6,8.09,11.77,6.14,10.11,14.09,27.27,16.57,41,9.1,50.53-3.52,176.8-6.57,183.49Z"/><path class="cls-2" d="M421.19,649.6c-.11-14-.31-36.82-.57-59.51,36.15-22.14,117.99-56.49,124.52-30.6,6.41,25.44-67.97,68.24-123.95,90.11Z"/><path class="cls-2" d="M558.89,454.45s-6.62,3.1-14.5-4.48c-7.88-7.59-12.08-11.38-12.08-11.38,0,0,0-2.19-2.74,1.68-2.75,3.87-12.68,15.01-13.21,18.11-.16.94-4.7,6.39-4.7,6.39-.05-.03-.3.01-.34-.02,3.03.36,3.3-3.27,4.24-4.8,1.78-2.88,1.96-6.34,2.12-9.73.17-3.38,1.38-7.37,4.64-8.27.94-.26,1.93-.21,2.89-.41,2.38-.51,4.16-2.44,5.77-4.27l1.66-.21c1.73.23,2.06.27,3.79.5,2.37.31,4.79.64,6.89,1.78,3.28,1.78,5.25,5.26,6.55,8.75.8,2.18,1.58,4.63,3.59,5.78,1.59.9,3.53.67,5.14-.25.2.52.3.82.3.82Z"/><path class="cls-11" d="M495.14,418.19c-.7,7.07,2.7,14.19,8.54,18.19.91.62,1.76-.86.86-1.47-5.37-3.68-8.34-10.26-7.69-16.72.11-1.09-1.6-1.08-1.71,0h0Z"/><path class="cls-11" d="M544.32,422.47c.57,2.36,1.14,4.72,1.72,7.07.26,1.07,1.91.62,1.65-.45-.57-2.36-1.14-4.72-1.72-7.07-.26-1.07-1.91-.62-1.65.45h0Z"/><path class="cls-11" d="M531.48,438.82c1.99,14.69,3.74,29.42,5.24,44.17,1.49,14.69,2.73,29.4,3.71,44.13.98,14.83,1.69,29.67,2.12,44.52.42,14.75.56,29.52.4,44.27-.17,14.76-.64,29.52-1.44,44.26-.1,1.83-.2,3.65-.31,5.48-.07,1.1,1.64,1.09,1.71,0,.88-14.73,1.43-29.47,1.67-44.22.24-14.9.17-29.8-.19-44.7-.36-14.85-1.01-29.7-1.93-44.53-.92-14.81-2.11-29.61-3.55-44.38-1.44-14.77-3.14-29.52-5.08-44.24-.23-1.74-.46-3.49-.7-5.23-.15-1.08-1.79-.62-1.65.45h0Z"/><path class="cls-11" d="M530.39,452.67c-.05-.28-.19-.53-.36-.75-.03-.04-.06-.07-.1-.1-.02-.04-.03-.07-.05-.11-.08-.13-.19-.23-.3-.31-.08-.25-.27-.52-.51-.64-.26-.14-.58-.21-.88-.11-.28.09-.48.26-.65.49-.16,0-.32,0-.48,0-.4,0-.79.22-.98.56-.23.41-.37.91-.33,1.38.04.47.16.96.43,1.35.13.19.27.38.45.52.07.06.14.1.2.14.05.05.11.08.17.12.14.08.28.15.45.21.07.03.14.04.21.05.17.03.34.06.51.05.35-.02.62-.1.94-.25.42-.2.79-.58,1.02-.98.28-.5.37-1.05.26-1.62Z"/><path class="cls-11" d="M533.76,501.78s.07-.02.1-.03c.25.03.51,0,.72-.14.26-.19.39-.31.58-.57.07-.1.12-.21.16-.32.02-.03.05-.06.08-.09.06-.08.11-.17.15-.26.08-.18.16-.36.2-.55.04-.19.07-.38.06-.57-.01-.19-.03-.39-.09-.57-.05-.13-.1-.27-.17-.4-.02-.04-.15-.2-.19-.24,0,0-.02-.01-.02-.02-.09-.07-.18-.15-.28-.21-.03-.02-.07-.04-.11-.06-.12-.06-.25-.12-.38-.15-.13-.03-.27-.05-.4-.06-.04,0-.08,0-.12,0-.11,0-.21.04-.31.05-.18,0-.37.04-.52.15,0,0-.02.02-.03.02-.05,0-.09.01-.14.02-.35.06-.68.27-.93.51-.13.12-.24.27-.33.42-.1.15-.17.33-.23.5-.03.08-.05.17-.07.26-.03.18-.06.37-.05.56.02.18.03.37.09.53.06.16.12.34.23.48.07.1.16.23.26.32.01.01.03.03.05.04.07.06.17.14.25.19.08.05.2.09.29.12.18.07.38.09.57.11.2.02.39-.01.59-.05Z"/><path class="cls-11" d="M534.29,543.01c-.05.1-.09.2-.12.3-.05.06-.1.12-.15.19-.39.56-.49,1.37-.29,2.02.13.42.39.83.85.94.19.05.39.07.58.08.06,0,.12,0,.18,0,.21.17.47.3.74.28.28-.01.62-.1.8-.33.15-.19.29-.38.38-.6.1-.08.19-.17.27-.26.23-.28.4-.56.5-.91.07-.25.11-.53.09-.79-.03-.37-.11-.68-.29-1.02-.16-.3-.41-.55-.7-.74-.61-.41-1.51-.37-2.11.04-.3.2-.58.46-.73.79Z"/><path class="cls-11" d="M535.68,599c-.09-.28-.22-.56-.42-.78-.35-.38-.9-.52-1.41-.45-1.77.25-2.28,2.33-1.75,3.8.12.34.31.67.63.85.51.29,1.35.17,1.88.04.46-.12.9-.38,1.12-.79.17-.3.21-.66.21-1.01,0-.54-.08-1.07-.23-1.58,0-.03-.02-.05-.03-.08Z"/><path class="cls-11" d="M535.18,649.68c-.84-.58-2.06-.26-2.92.81-.73.92-.76,2.12-.47,3.23.09.37.42.71.79.79,1.22.28,2.83-.11,3.52-1.07.4-.55.1-1.58-.04-2.24-.15-.73-.48-1.23-.89-1.52Z"/><path class="cls-11" d="M608.35,458.89c2.64,3.86,4.18,8.46,5.49,12.9,1.77,5.99,3.05,12.13,4.13,18.27,2.21,12.57,3.61,25.31,4.42,38.05.29,4.53.56,9.09.42,13.63-.03,1.1,1.67,1.1,1.71,0,.12-3.93-.09-7.89-.31-11.81-.34-5.96-.85-11.91-1.48-17.84-1.39-13.03-3.2-26.18-6.69-38.83-1.44-5.22-3.13-10.72-6.21-15.23-.62-.9-2.1-.05-1.47.86h0Z"/><path class="cls-11" d="M600.98,602.64c-.96,11.07-2.78,22.12-6.28,32.69-2.35,7.11-5.54,13.86-9.36,20.29-1.73,2.92-3.57,5.77-5.38,8.65-.59.93.89,1.79,1.47.86,3.45-5.49,6.94-10.94,9.79-16.77,3.91-8.01,6.66-16.51,8.51-25.22,1.43-6.76,2.35-13.62,2.95-20.5.1-1.09-1.61-1.09-1.71,0h0Z"/><path class="cls-11" d="M492.07,637.86c3.84,11.5,8.04,22.95,13.12,33.97.76,1.64,1.53,3.28,2.39,4.87.52.97,1.99.11,1.47-.86-1.73-3.23-3.21-6.61-4.65-9.98-2.34-5.48-4.51-11.05-6.56-16.65-1.43-3.91-2.81-7.85-4.13-11.8-.35-1.04-2-.59-1.65.45h0Z"/><path class="cls-11" d="M549.32,422.09c1.59,3.03,2.88,6.18,3.83,9.47.84,2.89,1.44,5.84,2.07,8.78.8,3.69,2.16,7.51,2.16,11.32,0,.97-.07,2.36-1.18,2.35-1.92-.01-3.41-1.57-4.17-3.15-1.35-2.81-2.47-5.74-4.06-8.43-1.21-2.05-2.87-4.2-5.21-5-.72-.25-1.51-.29-2.26-.37-1.48-.15-2.96-.25-4.44-.35-1.52-.11-3.04-.19-4.56-.24-.76-.03-1.02.1-1.54.67-.53.59-1.07,1.17-1.65,1.71-1.18,1.08-2.49,1.84-4.09,2.01-1.42.15-2.76.31-3.95,1.17-2.08,1.51-2.97,4.15-3.32,6.6-.32,2.3-.39,4.59-.84,6.88-.45,2.33-.99,4.85-2.22,6.91-.63,1.05-1.5,1.78-2.76,1.35-1.27-.43-2.45-1.36-3.53-2.13-1.45-1.04-2.8-2.27-4.13-3.45-4.12-3.68-7.9-7.58-11-12.17-3.47-5.12-6.19-10.67-7.64-16.7-.37-1.52-.65-3.07-.89-4.62-.16-1.08-1.81-.62-1.65.45,1.01,6.77,3.37,13.15,6.94,18.99,1.68,2.76,3.53,5.47,5.65,7.92,1.95,2.25,4.09,4.33,6.28,6.34,1.68,1.54,3.38,3.06,5.19,4.43,1.79,1.36,4.54,3.62,6.93,2.51,2.24-1.03,3.13-4.08,3.74-6.25.74-2.61,1.2-5.33,1.42-8.03.22-2.79.54-6.69,3.49-8.04.89-.4,1.88-.39,2.83-.52.92-.12,1.78-.4,2.59-.85,1.66-.9,2.97-2.34,4.2-3.75-.2.08-.4.17-.6.25,3,.1,5.99.29,8.98.56.75.07,1.57.09,2.29.33,1.04.36,1.94,1.15,2.66,1.96,1.98,2.23,3.16,5.19,4.38,7.86.92,2.01,1.61,4.42,3.58,5.66,1.26.8,3.22,1.68,4.68.88,1.24-.68,1.52-2.23,1.55-3.52.09-3.58-1.15-7.16-1.91-10.62-.72-3.25-1.35-6.53-2.25-9.73-1.01-3.57-2.4-7.01-4.13-10.3-.51-.97-1.98-.11-1.47.86h0Z"/><path class="cls-18" d="M544.39,427.25c.06,1.95-.74,3.77-2.12,5.04-.58.55-1.28.99-2.06,1.3-25.68,10.2-40.53-5.05-40.53-6.97,0-.84-.76-11.39-1.62-23.42-.4-5.61-.83-11.55-1.21-16.98-.75-10.73-1.33-19.47-1.22-19.78,12.63-35.76,35.22,7.83,44.21,27.86,2.4,5.37,3.84,9.05,3.84,9.05l.71,23.9Z"/><path class="cls-12" d="M544.39,427.25c.06,1.95-.74,3.77-2.12,5.04-25.89-2.11-32.8-31.63-32.8-31.63,6.9-11.72,19.23-11.57,30.38-6.36,2.4,5.37,3.84,9.05,3.84,9.05l.71,23.9Z"/><path class="cls-18" d="M497.32,366.3c.06.75-4.38,33.21,22.08,47.03,16.11,8.42,32.2,7.42,39.79-13.99,7.59-21.41-1.01-55.29-13.15-58.33s-50.41,5.23-48.72,25.29Z"/><path class="cls-12" d="M498.06,403.2c-.4-5.61-.83-11.55-1.21-16.98,3.32.08,7,.99,7.72,3.64,0,0,1.49,13.04-6.51,13.34Z"/><path class="cls-17" d="M495.62,345.85c-6.67,8.95-9.09,25.64-4.03,33.06s17.03,8.03,17.87,6.37-12.39-35.19,7.75-30.81c15.74,3.43,31.49,1.95,39.28-2.95,2.85-1.79,4.64-8.59,2.4-11.1-4.04-4.53-13.75-4.62-26.34-9.21-17.11-6.23-30.53,6.05-36.93,14.65Z"/><path class="cls-18" d="M505.75,387.34c-1.09-3.96-3.37-17.87-13.49-14.84-9.92,2.98-6.26,23.26,3.36,23.94,9.62.67,10.74-6.87,10.13-9.1Z"/><path class="cls-12" d="M493.89,380.07c3.25,1.65,5.64,4.67,6.5,8.21.26,1.07,1.9.62,1.65-.45-.95-3.94-3.67-7.39-7.28-9.23-.98-.5-1.84.98-.86,1.47h0Z"/><path class="cls-10" d="M549.84,340.55c-.06-.09-.09-.14-.09-.14,0,0-2.12.86-5.57,2.28-.02,0-.05.02-.08.03-2.59,1.05-5.9,2.42-9.65,3.95-.06.02-.12.05-.18.08-18.24,7.49-46.3,19.05-47.9,19.94,0,0-1.46-5.55-1.55-12.67-.11-7.78,1.43-17.46,8.28-23.92,11.43-10.78,30.53-19.04,48.62-.96,2.71,2.7,5.39,5.99,8.03,9.96.27.39.52.79.77,1.16,0,0,.77,2.37-.68.28Z"/><path class="cls-1" d="M550.52,340.26s0,0,0,0c-2.01.83-4.1,1.62-6.14,2.35-.07.02-.14.05-.2.08-.02,0-.05.02-.08.03-2.24.81-5.61,2.2-9.65,3.95-.06.02-.12.05-.18.08-18.24,7.49-46.3,19.05-47.9,19.94,0,0-.85-3.2-1.29-7.87-.29-3,1.03-5.95,3.47-7.72,13.86-10.03,33.1-15.97,48.72-20.64,2.82-.84,5.88.05,7.77,2.31,1.58,1.89,3.15,3.99,4.7,6.32.27.39.52.79.77,1.16Z"/><path class="cls-10" d="M470.25,372.14s48.14-34.09,85.11-38.13c21.96-2.4,20.59,4.04,16.8,7.71-3.79,3.67-39.18,11.83-47.88,15.62-8.7,3.79-37.81,19.98-42.81,23.85-8.85,6.86-21.84,1.56-11.22-9.05Z"/><path class="cls-11" d="M474.32,382.17c14.18-9.31,28.8-18.06,44.16-25.29,11.37-5.35,23.19-9.82,35.44-12.68,5.83-1.36,11.75-2.35,17.71-2.95,1.08-.11,1.09-1.82,0-1.71-11.19,1.12-22.18,3.61-32.82,7.22-13.59,4.62-26.58,10.89-39.09,17.89-8.95,5.01-17.68,10.41-26.26,16.04-.91.6-.06,2.08.86,1.47h0Z"/><path class="cls-11" d="M506.75,321.71c-1.57,2.04-2.44,4.57-2.53,7.13-.02.46.4.85.85.85.48,0,.84-.39.85-.85.08-2.28.9-4.46,2.29-6.27.28-.37.06-.96-.31-1.17-.44-.26-.89-.06-1.17.31h0Z"/><path class="cls-12" d="M524.74,375.59c-.08.26-.13.53-.14.8-2.98.18-4.88,3.23-4.97,6.26-.05,1.6.42,3.21,1.5,4.38,1.55,1.69,4.06,2.31,6.19,1.43,2.59-1.06,4.24-4.04,3.76-6.8-.12-.67-.36-1.32-.69-1.9.05-.03.1-.07.16-.11,1.25-.94,1.79-2.71,1.29-4.18-1.14-3.33-6.07-3.25-7.09.12Z"/><path class="cls-12" d="M543.06,382.02c-.67.11-.46,1.14.2,1.03,1.67-.27,3.35-1.24,3.85-2.95.48-1.64-.42-3.47-2.17-3.77-1.07-.18-2.1.25-3.06.67-.62.27-.15,1.22.47.94.8-.35,1.75-.8,2.64-.53.7.21,1.14.88,1.21,1.58.16,1.76-1.66,2.79-3.14,3.02Z"/><path class="cls-9" d="M551.38,393.38c-5.26.97-9.62,1.11-14.89.14-.1,1.5.2,2.09.6,3.79.78,1.21,1.85,2.25,3.04,2.88,2.51,1.35,5.69,1.24,8.21-.09.97-.52,1.87-1.22,2.55-2.08-.03-.46.1-.81.26-1.12.3-1.55.73-2.16.24-3.52Z"/><path class="cls-6" d="M541.11,395.47c3.04-.51,6.41-.04,8.9,1.82.3.22.59.47.86.73.22-.28.41-.57.58-.88.69-1.28.82-2.91.32-4.28-5.26.97-10.7.98-15.97.01-.1,1.5.41,3.07,1.28,4.43,1.08-.98,2.57-1.6,4.02-1.84Z"/><path class="cls-12" d="M561.82,372.28c-2.45-.31-5.1.93-5.94,3.7-.62,2.06.13,4.45,1.79,5.8.1.08.19.15.3.22,1.22.85,2.8,1.12,4.26.82-.05-3.52-.18-7.03-.4-10.55Z"/><path class="cls-6" d="M526.17,379.73c1.23.86,2.98.86,4.22.03.05-.03.1-.07.16-.11,1.25-.94,1.79-2.71,1.29-4.18-1.14-3.33-6.07-3.25-7.09.12-.08.26-.13.53-.14.8-.08,1.28.52,2.6,1.57,3.34Z"/><path class="cls-17" d="M523.96,370.22l6.37.1c.24,0,.48,0,.7-.09.48-.21.64-.84.57-1.37-.33-2.51-4.26-4-6.39-3.3-1.18.39-2.12,1.32-2.75,2.39-.28.49-.51,1.1-.24,1.6.31.57,1.09.65,1.74.66Z"/><path class="cls-17" d="M550.28,366.76l6.33-.69c.23-.03.48-.05.68-.18.45-.27.53-.91.4-1.42-.64-2.45-4.72-3.44-6.75-2.48-1.12.53-1.94,1.57-2.43,2.71-.22.52-.37,1.16-.04,1.61.38.53,1.16.52,1.81.44Z"/><path class="cls-6" d="M557.31,375.92c1.25-.94,1.79-2.71,1.28-4.18-.03-.1-.07-.21-.12-.3-1.32-3.02-5.98-2.84-6.98.43-.43,1.41.09,3.05,1.23,3.98.07.05.13.11.2.15,1.28.89,3.13.86,4.38-.08Z"/><path class="cls-7" d="M424.86,447.98s-53.13,27.7-90.05,91.05c0,0-4.38-2.06-9.44,2.63-5.06,4.69-9.78,24.37-6.74,30.95,3.03,6.57,3.29,2.78,3.29,2.78,0,0,.51-4.76,9.36-7.84,10.71-3.73,59.09-3.19,69.29,6.07l10.11-1.52s13.66-6.05,16.18-8.09c0,0,70.87-93.48-1.99-116.03Z"/><path class="cls-11" d="M424.33,458.89c6.69,11.88,11.95,24.54,15.69,37.65,3.72,13.05,5.94,26.53,6.57,40.09.35,7.62.2,15.27-.45,22.87-.09,1.09,1.61,1.09,1.71,0,1.17-13.68.7-27.47-1.34-41.05-2.03-13.55-5.63-26.87-10.73-39.59-2.87-7.15-6.19-14.11-9.97-20.83-.54-.96-2.01-.1-1.47.86h0Z"/><path class="cls-11" d="M447.02,542.81c-6.79,8.17-13.57,16.34-20.36,24.51-.7.84.5,2.05,1.21,1.21,6.79-8.17,13.57-16.34,20.36-24.51.7-.84-.5-2.05-1.21-1.21h0Z"/><path class="cls-11" d="M334.81,539.89c13.22-.84,26.46,1.33,39.04,5.34,6.36,2.03,12.57,4.53,18.58,7.42,5.61,2.7,11.36,5.6,16.18,9.6,2.56,2.12,4.85,4.58,6.53,7.46.33.57.61,1.27,1.23,1.59.53.28,1.27.22,1.61-.33.66-1.05-.65-2.38-1.63-1.49-.81.74.4,1.95,1.21,1.21.03-.03.06-.06.09-.08-.28.07-.55.15-.83.22-.13-.17-.26-.34-.4-.51.13-.17.26-.34.39-.51.23-.14.22.03.23-.2,0-.14-.21-.37-.28-.5-.15-.26-.3-.52-.46-.78-.39-.64-.81-1.26-1.26-1.85-.79-1.06-1.65-2.06-2.57-3-1.92-1.96-4.09-3.67-6.36-5.2-4.87-3.29-10.22-5.94-15.56-8.39-11.21-5.13-23.07-8.97-35.29-10.77-6.77-1-13.62-1.37-20.46-.94-1.09.07-1.1,1.78,0,1.71h0Z"/><path class="cls-7" d="M368.18,515.46c-.95,1.29-23.77,29.33-24.78,36.66h8.09s27.31-30.3,26.8-33.48-6-8.74-10.11-3.18Z"/><path class="cls-11" d="M365.65,519c-4.43,4.98-9.13,9.74-13.13,15.09-2.09,2.8-3.98,5.76-5.57,8.87-.84,1.64-1.6,3.32-2.29,5.02-.76,1.87-1.69,3.91-2.04,5.9-.73,4.19,5.14,4.6,7.94,4.22,1.69-.23,3.23-1.1,4.29-2.44.54-.69.88-1.48,1.28-2.25.51-.97,1.06-1.92,1.61-2.87.99-1.69,2.04-3.35,2.98-5.07.96-1.76,1.9-3.5,3.06-5.13,2.11-2.96,4.72-5.49,7.23-8.1,1.43-1.48,2.82-3,4.09-4.62.68-.86,1.33-1.74,1.94-2.65.53-.78,1.09-1.55,1.11-2.54.03-2.06-1.6-2.87-3.35-3.23-2.59-.53-5.22-.82-7.86-.88-1.1-.02-1.1,1.68,0,1.71,2.12.05,4.24.23,6.33.61,1.29.23,3.98.49,2.96,2.47-.83,1.61-2.13,3.11-3.29,4.49-1.03,1.22-2.11,2.39-3.22,3.53-2.21,2.29-4.48,4.53-6.44,7.06-2.11,2.72-3.59,5.76-5.34,8.7-.95,1.59-1.92,3.17-2.81,4.79-.82,1.49-1.39,3.15-2.91,4.07-1.47.89-3.42.85-5.06.62-.71-.1-1.67-.27-2.27-.71-.93-.68-.54-1.72-.25-2.63,2.05-6.36,5.1-12.29,9.06-17.67,3.98-5.4,8.73-10.17,13.18-15.18.73-.82-.48-2.03-1.21-1.21h0Z"/><path class="cls-18" d="M590.46,511.16c-1.01,4.05-23.52,15.92-23.52,15.92,6.58,2.52.26,13.93.26,13.93,5.56-.51,8.6,12.14,3.03,16.33-5.57,4.2-33.11,15.52-41.72,20.33-8.62,4.8-120.88,83.96-177.27,73.59-33.09-6.08-34.05-41.53-31.76-61.75.94-8.36,2.43-14.12,2.43-14.12,1.27-3.66,1.65-5.56,8.96-8.18,3.88-1.57,15.75-2.03,17.09-2.06,14.43-.29,28.08-.13,57.4,7.21,0,0,4.18-1.64,11.27-4.42,38.48-15.1,162.55-63.76,165.75-64.61,3.79-1.01,9.1,3.79,8.09,7.84Z"/><path class="cls-17" d="M509.8,575.46c5.46,3.8,12.55,4.92,18.93,3.02,1.05-.31.6-1.96-.45-1.65-5.97,1.77-12.5.7-17.61-2.85-.9-.63-1.76.85-.86,1.47h0Z"/><path class="cls-17" d="M558.72,530.23c3.43-1.56,6.86-3.12,10.29-4.68.42-.19.52-.8.31-1.17-.25-.43-.75-.5-1.17-.31-3.43,1.56-6.86,3.12-10.29,4.68-.42.19-.52.8-.31,1.17.25.43.75.5,1.17.31h0Z"/><path class="cls-17" d="M563.13,543.12c1.01-.35,2.01-.71,3.02-1.06.42-.15.74-.59.6-1.05-.13-.41-.6-.75-1.05-.6-1.01.35-2.01.71-3.02,1.06-.42.15-.74.59-.6,1.05.13.41.6.75,1.05.6h0Z"/><path class="cls-13" d="M405.35,572.35l-5.28.86c-14.7-8.14-75.89-8.14-80.6,16.29.94-8.36,2.43-14.12,2.43-14.12,1.27-3.66,1.65-5.56,8.96-8.18,3.88-1.57,15.75-2.03,17.09-2.06,14.43-.29,28.08-.13,57.4,7.21,0,0-7.09,2.78,0,0Z"/><path class="cls-17" d="M387.9,577.29c5.35-1.67,10.86-2.76,16.45-3.22,1.09-.09,1.1-1.8,0-1.71-5.74.48-11.41,1.57-16.9,3.28-1.05.33-.6,1.97.45,1.65h0Z"/><path class="cls-18" d="M590.35,362.4c-5.27-8.37-15.26-12.38-24.94-10.38-6.5,1.34-13.93,6.72-16.75,13.25-5.39,12.47,2.28,40.78,28.41,36.06,17.11-3.09,22.69-24,13.29-38.93Z"/><path class="cls-16" d="M571.36,403.76c-9.8,0-15.9-4.82-19.44-9.29-7.28-9.17-8.26-22.44-5.01-29.96,2.92-6.76,10.54-12.8,18.11-14.36,10.52-2.16,21.34,2.35,26.93,11.23h0c5.41,8.59,6.35,19.41,2.46,28.24-3.24,7.36-9.29,12.18-17.02,13.57-2.15.39-4.16.57-6.04.57ZM570.3,353.41c-1.5,0-3.01.15-4.51.46-6.35,1.31-12.97,6.53-15.4,12.15-2.75,6.36-1.81,18.14,4.5,26.1,3.57,4.5,10.26,9.43,21.83,7.35,6.46-1.17,11.51-5.2,14.23-11.37,3.39-7.69,2.54-17.15-2.2-24.68h0c-3.96-6.29-11.01-10-18.45-10Z"/><path class="cls-16" d="M587.85,394.93s36.58,32.86,42.65,33.2,10.45-10.62,5.39-13.82c-5.06-3.2-42.88-26.26-42.88-26.26,0,0-4.76,5.56-5.17,6.89Z"/><path class="cls-18" d="M634.2,428.98c7.23,6.89,10.17,8.09,18.21,20.61,9.98,15.54,10.87,31.1,25.29,75.23,6.1,18.68,11.92,30.13,23.45,36.44,2.34,1.28,9,4.81,17.52,3.87,14.39-1.59,22.18-14.6,23.26-16.46.75-1.29,3.2-5.73,4.17-11.97,3.8-24.29-17.15-56.88-17.15-56.88-21.4-33.28-47.58-65.62-89.18-88.91-16.71-9.35-44-14.77-44,15.36,0,16.99,11.51,3.82,11.51,3.82,0,0-3.1,14.04,1.31,14.29,7.81.43,9.44-6.19,9.44-6.19,0,0-2.81,8.14-.67,9.95,4.91,4.15,13.26-2.92,11.13-5.9,1.18,1.4,2.92,4.05,5.73,6.73Z"/><path class="cls-17" d="M608.31,409.39c.48-3.61,1.12-7.23,3.64-10.02,2.18-2.4,5.31-3.91,8.5-2.68,1.03.39,1.47-1.26.45-1.65-3.66-1.4-7.47.24-10.02,2.97-1.29,1.37-2.27,2.98-2.92,4.75-.78,2.13-1.07,4.4-1.37,6.63-.06.46.44.85.85.85.51,0,.79-.4.85-.85h0Z"/><path class="cls-17" d="M619.23,418.58c-.04-1.62-.02-3.27.31-4.87.29-1.42.82-2.92,2.03-3.82,1.26-.94,2.92-1.26,4.43-1.57,1.6-.33,3.24-.57,4.76-1.19.43-.17.72-.57.6-1.05-.11-.41-.62-.77-1.05-.6-3.23,1.31-7.21.94-10.01,3.24-2.76,2.27-2.84,6.59-2.77,9.85.02,1.1,1.73,1.1,1.71,0h0Z"/><path class="cls-17" d="M630.52,423.03c-.59-1.49-.15-3.19.91-4.36,1.18-1.3,2.85-1.94,4.54-2.24.45-.08.71-.63.6-1.05-.13-.48-.59-.68-1.05-.6-2.02.37-4.11,1.25-5.45,2.86-1.32,1.59-1.98,3.85-1.2,5.84.17.43.57.73,1.05.6.41-.11.77-.62.6-1.05h0Z"/><path class="cls-17" d="M649.04,433.19c3.42.15,6.81-.61,9.86-2.14.98-.49.12-1.97-.86-1.47-2.79,1.4-5.89,2.04-9,1.9-1.1-.05-1.1,1.66,0,1.71h0Z"/><path class="cls-5" d="M652.07,438.59c1.07-.36,14.49-5.56,18.37-9.27,3.88-3.71,3.54-13.83,10.62-15.18s19.89,8.32,17.2,18.15c-2.7,9.83-3.71,10.9-21.24,10.2,0,0-20.91,9.02-22.3,10.29-2.99,2.74-7.91-12.45-2.65-14.19Z"/><path class="cls-11" d="M683.96,417.88c-1.5-.01-2.92.73-3.8,1.94-1.85,2.55-4.04,7.47,1.25,12.53,8.09,7.75,14.5,1.02,13.49-4.21-.92-4.77-3.74-10.21-10.94-10.26Z"/><path class="cls-17" d="M637.75,424.07c-1.35-.77-2.66-1.61-3.92-2.51-.59-.42-1.17-.86-1.73-1.32-.3-.24-.6-.49-.9-.74-.08-.07-.16-.14-.25-.21-.09-.07-.08-.12-.05-.02.03.08.02.08.01,0,.01.11.02.22-.05.32l-.31.31s-.09.04-.14.05h-.45s-.07-.03-.11-.05c.96.55,1.82-.93.86-1.47-.56-.32-1.24-.08-1.44.54-.12.39-.05.85.16,1.19.25.4.73.7,1.09,1,.42.35.85.69,1.29,1.02,1.61,1.24,3.3,2.36,5.07,3.36.96.54,1.82-.93.86-1.47h0Z"/><path class="cls-10" d="M658.95,851.77c-13.08,8.92-51.49,10.32-80.94,9.98-.84,0-1.67-.02-2.5-.04-19.44-.31-34.39-1.34-34.39-1.34-.12.05-.25.09-.37.14-4.25,1.57-8.56,2.94-12.93,4.14-68.32,18.87-148.04-4.28-148.04-4.28,21.62-173.92,41.23-206.05,44.35-205.1,105.44,32.09,191.94-3.36,191.94-3.36,0,0-.74,17.44,4.66,23.48,14.14,15.8,38.21,176.37,38.21,176.37Z"/><path class="cls-15" d="M575.51,861.71c-19.44-.31-34.39-1.34-34.39-1.34-.12.05-.25.09-.37.14.26-1.02.52-2.09.78-3.19,1.93-8.09,4.13-18.4,7-30.07.02-.08.05-.16.06-.24,2.47-10.1,5.44-21.19,9.16-32.72,2-6.2-.46.16,2-6.2,0,0,16.99,56,15.76,73.62Z"/><path class="cls-11" d="M567.5,764.79c-1.19,1.89-2.36,4.16-4.03,5.64-.07.06,0-.02.05-.01.53.04.93.27.96.69,0,.12-.04.22-.06.25-.41.55-1.1.31-1.43-.18.08.12.02-.21,0-.05-.01.08,0,.17,0,.25,0,.11-.02.22-.03.33-.03.32,0,.11-.05.37-.19,1.19-.46,2.37-.74,3.54-1.01,4.18-2.26,8.29-3.47,12.41-2.28,7.77-4.52,15.55-6.7,23.34-2.48,8.88-4.91,17.77-7.14,26.72-1.69,6.76-3.43,13.59-4.37,20.5-.08.59-.15,1.19-.21,1.79-.11,1.09,1.6,1.08,1.71,0,.29-2.98.89-5.93,1.5-8.86.86-4.12,1.83-8.21,2.85-12.29,2.39-9.62,5-19.18,7.68-28.72,2.28-8.12,4.62-16.23,7.01-24.33,1.24-4.21,2.55-8.45,3.38-12.78.13-.7.9-3.83-.89-3.35-1.18.32-.85,2.33.47,2.01.49-.12.88-.57,1.2-.93.79-.9,1.46-1.9,2.13-2.89.57-.85,1.13-1.72,1.67-2.59.59-.93-.89-1.79-1.47-.86h0Z"/><path class="cls-11" d="M553.17,688.93c.23,18.93-2.07,37.84-3.44,56.7-.33,4.61-.63,9.23-.83,13.85-.19,4.31-.38,8.67-.23,12.99.05,1.42.35,3.16,1.88,3.66.72.24,1.49.15,2.21-.04,1.48-.38,2.89-1.12,4.25-1.82,2.19-1.13,4.34-2.36,6.43-3.68,1.92-1.22,4-2.55,5.27-4.49,1.3-1.99,1.79-4.35,2.02-6.69.38-3.85.48-7.73.61-11.59.41-12.06.57-24.13.7-36.2.1-8.55.17-17.09.21-25.64,0-.26,0-.51,0-.77,0-1.1-1.7-1.1-1.71,0-.03,7.05-.09,14.1-.16,21.15-.12,11.97-.27,23.95-.59,35.92-.12,4.6-.26,9.21-.53,13.81-.21,3.54-.25,7.44-2.78,10.06-2.36,2.45-5.69,4.11-8.63,5.73-1.57.86-3.18,1.76-4.88,2.35-.36.12-.92.29-1.18.31-.37.04-.48.03-.67-.03-.31-.1-.56-.54-.67-1.17-.17-.97-.09-2-.1-2.98,0-2.07.03-4.13.08-6.2.12-4.46.36-8.92.64-13.38,1.2-18.59,3.42-37.14,3.77-55.77.04-2.03.05-4.06.02-6.09-.01-1.1-1.72-1.1-1.71,0h0Z"/><path class="cls-11" d="M505.11,692.71c-1.7,11.37-3.19,22.77-4.68,34.16-1.56,11.96-3.1,23.93-4.81,35.88-1.71,11.93-3.59,23.85-5.82,35.69-2.19,11.62-4.72,23.19-7.84,34.61-2.95,10.83-6.43,21.53-10.73,31.91-.53,1.29-1.08,2.57-1.64,3.84-.44,1,1.03,1.87,1.47.86,4.48-10.23,8.14-20.79,11.24-31.52,3.26-11.31,5.91-22.79,8.19-34.33,2.35-11.92,4.31-23.91,6.08-35.92,1.75-11.91,3.32-23.84,4.87-35.78,1.51-11.59,3-23.18,4.68-34.75.2-1.4.41-2.8.62-4.2.16-1.07-1.48-1.54-1.65-.45h0Z"/><path class="cls-11" d="M603.78,683.17c4.96,23.37,5.23,47.35,5.34,71.14.1,23.6.04,47.36,4.18,70.68.52,2.94,1.08,5.88,1.88,8.76.73,2.65,1.57,5.27,2.35,7.91,1.56,5.25,3.24,10.94,2.49,16.47-.15,1.07,1.5,1.54,1.65.45.65-4.83-.37-9.7-1.63-14.36-1.31-4.84-3.05-9.57-4.09-14.48-2.47-11.62-3.66-23.51-4.31-35.35-1.33-23.94-.29-47.93-1.43-71.87-.64-13.36-1.99-26.71-4.77-39.81-.23-1.07-1.87-.62-1.65.45h0Z"/><path class="cls-11" d="M610.68,676.42c1.61,6.67,3.26,13.34,5.3,19.9.88,2.84,1.69,5.77,3.26,8.31,1.37,2.21,3.15,4.18,5.21,5.77,1.82,1.4,4.03,2.65,6.38,2.69,1.1.02,1.1-1.69,0-1.71-1.91-.04-3.72-1.11-5.21-2.22-1.95-1.45-3.63-3.32-4.91-5.39-1.53-2.47-2.29-5.32-3.15-8.08-.93-3.02-1.79-6.07-2.59-9.12-.93-3.52-1.8-7.06-2.65-10.6-.26-1.07-1.9-.62-1.65.45h0Z"/><path class="cls-11" d="M421.19,667.25c-3.41,9.36-5.75,19.17-8.01,28.86-1.2,5.11-2.32,10.24-3.27,15.4-1.01,5.5-1.6,11.05-2.33,16.59-1.89,14.42-4.03,28.8-6.48,43.13-2.31,13.52-4.87,27-7.63,40.44-2.94,14.35-6.08,28.65-9.29,42.94-.42,1.89-.85,3.78-1.28,5.67-.24,1.07,1.4,1.53,1.65.45,3.27-14.5,6.49-29,9.52-43.55,2.81-13.5,5.45-27.05,7.83-40.63,2.47-14.11,4.66-28.27,6.58-42.46.86-6.31,1.48-12.68,2.51-18.96.8-4.87,1.81-9.71,2.89-14.53,2.28-10.19,4.77-20.42,8.06-30.35.28-.85.57-1.7.88-2.54.38-1.03-1.27-1.48-1.65-.45h0Z"/><path class="cls-11" d="M406.45,751.23c12.47-5.86,24.71-12.27,36.22-19.86,11.2-7.39,21.7-15.93,30.64-25.97,5.1-5.73,9.66-11.92,13.59-18.5.56-.95-.91-1.81-1.47-.86-6.89,11.58-15.81,21.79-25.98,30.6-10.17,8.8-21.5,16.17-33.24,22.67-6.74,3.73-13.63,7.18-20.61,10.45-.99.47-.13,1.94.86,1.47h0Z"/><path class="cls-14" d="M423.94,656.18c-.93-.44-2.64-1.25-2.66-2.29-.02-.88-.4-2.85-.4-2.85-1.5-2.03-5.34-.35-5.54,5.9-.42,13.04-3.91,19.19.25,24.27,9.11,11.12,162.22,27.06,205.15-5.81,0,0,.76-25.98-1.96-27.95-.81-.59-1.8-2.23-2.73-1.68,0,0-.32,3.74-1.05,4.11-6.94,3.51-21.34,8.78-29.04,10.35-19.09,3.89-80.46,12.57-146.71.12-6.36-1.2-11.82-2.53-15.3-4.17Z"/><path class="cls-5" d="M539.88,695.39c.11,1.83,1.44,2.91,3.22,2.76.65-.05,1.3-.11,1.96-.16,2.52-.21,5.03-.42,7.55-.66,6.32-.58,12.69-1.15,18.94-2.26,2.72-.48,6.5-1.08,6.6-4.58.04-1.44-.19-2.93-.29-4.36-.11-1.5-.21-3-.32-4.5-.21-3-.43-6-.64-9-.2-2.83-.32-5.67-.61-8.49-.14-1.4-.68-2.78-2.12-3.28-1.01-.35-2.06-.16-3.09-.07-3.64.33-7.27.62-10.91.9-4.09.31-8.17.6-12.27.83-1.44.08-2.88.15-4.33.19-.43,0-.86.02-1.29,0-.13,0-.31-.05-.43-.02.2-.04.79.12,1.08.49.16.28.33.56.49.84,0,0,0,0,0,0-.51-2.09-3.72-1.63-3.73.5,0,9.56.03,19.12.16,28.68,0,.73.01,1.46.04,2.19.08,2.43,3.87,2.45,3.79,0-.21-6.65-.15-13.32-.18-19.97-.01-3.63-.02-7.27-.02-10.9-1.24.17-2.48.34-3.73.5.5,2.02,3.52,1.51,5.03,1.45,3-.11,6-.31,9-.52,3.69-.25,7.37-.53,11.05-.83,1.67-.14,3.34-.27,5-.42.74-.06,1.47-.13,2.21-.2.12-.01.25-.02.37-.03.11,0,.21-.02.32-.03.27-.02.19-.12-.23-.28-.03,0,.07,1.12.08,1.35.4,5.62.81,11.24,1.21,16.87.1,1.37.2,2.75.3,4.12.04.62.09,1.25.13,1.87.04.5.29,1.76.16,2.07.02-.04-.28.13-.26.13-.13.05-.27.09-.41.13-.42.13-.84.23-1.26.32-1.05.24-2.11.42-3.17.59-1.48.24-2.65.39-3.88.55-3.04.39-6.09.71-9.14,1.01-3.07.3-6.15.58-9.23.84-1.01.09-2.02.17-3.03.25-.28.02-.57.05-.85.07-.07,0-.16,0-.24.02-.39.1-.15-.34.33.22.16.28.33.56.49.84-.09-.28-.11-.29-.06-.04-.14-2.43-3.93-2.44-3.79,0Z"/><path class="cls-5" d="M553.85,682.47c4.25.37,8.64-.15,12.85-.76,2.17-.31,4.33-.7,6.44-1.28.79-.22,1.57-.47,2.33-.77.78-.31,1.53-.68,2.28-1.06.32-.16.64-.33.96-.49.21-.11.43-.21.64-.32.41-.14.43-.19.08-.15l-.99-.99s.03.09.05.14c.63,1.7,3.38.96,2.74-.76-.74-2-2.6-1.06-3.96-.38-1.16.58-2.31,1.21-3.54,1.63-2.06.69-4.22,1.11-6.37,1.47-4.4.72-9.05,1.26-13.51.87-1.82-.16-1.81,2.69,0,2.84h0Z"/><path class="cls-5" d="M592.85,670.77s-.08-.06-.13-.08c-.16-.08-.33-.16-.5-.2-.18-.05-.37-.06-.55-.08-.06,0-.11,0-.17,0-.15.02-.31.03-.46.06-.02,0-.05.01-.07.02-.17.05-.34.12-.5.21-.32.18-.55.43-.75.73-.09.14-.15.33-.21.47-.02.05-.03.1-.04.15-.03.17-.06.35-.06.52,0,.18.03.37.07.54,0,.05.02.09.04.14.05.14.11.28.17.41.01.02.03.05.04.07.09.14.19.28.31.4.06.06.14.11.2.16.07.05.14.12.21.16.31.17.7.29,1.06.27.1,0,.22-.02.34-.04.16,0,.35-.03.48-.05.17-.03.36-.13.5-.19.02-.01.04-.02.07-.03.01,0,.02-.02.04-.02.1-.07.22-.16.32-.24.14-.12.24-.27.34-.42.19-.31.3-.72.29-1.08,0-.4-.11-.74-.29-1.08-.18-.34-.44-.55-.74-.77Z"/><path class="cls-5" d="M611.6,665.46c-.06-.24-.17-.45-.33-.62-.09-.11-.1-.14-.16-.2-.12-.13-.26-.22-.41-.32,0,0-.02,0-.02-.01-.08-.04-.15-.07-.23-.1-.08-.03-.15-.07-.23-.1-.08-.03-.16-.04-.24-.06-.23-.08-.48-.12-.69-.11-.38.02-.66.08-.99.27-.16.09-.31.2-.43.33-.04.04-.07.1-.11.14-.13.08-.25.17-.35.27-.1.12-.19.25-.29.37-.17.29-.25.6-.25.93.01.12.02.24.04.36,0,.25.04.49.16.71.07.23.2.42.38.59.12.1.25.19.37.29.29.17.6.25.93.25.26-.01.53-.05.78-.09.05,0,.1-.02.15-.03.02,0,.04-.01.06-.02.09-.03.18-.08.28-.12.16-.03.32-.09.47-.18.2-.11.36-.26.49-.44.02-.02.04-.04.06-.06.06-.07.27-.31.35-.47.08-.17.19-.37.23-.56.03-.14.05-.36.07-.5,0-.01,0-.02,0-.03l-.07-.49Z"/><path class="cls-10" d="M424.79,656.21l1.73.25c1.8.26,3.74-.33,2.8,3.73-1.24,5.33-1.91,17.13-.82,31.01l-7.09-2.66s-.19-34.29,3.38-32.34Z"/><path class="cls-10" d="M529.14,664.7s-5.31-.71-5.31,0-1.39,32.7,0,32.95c1.39.25,5.65-.38,5.65-.38,0,0,.92-28.86-.34-32.57Z"/><path class="cls-10" d="M595.32,656.16c-.14.96.73,2.83.94,3.65.33,1.32.62,2.64.9,3.97.7,3.31,1.29,6.65,1.72,10.01.34,2.64.59,5.29.61,7.95,0,.48-.12,6.08-.69,6.05,0,0,4.13-.09,4.95-2.02.38-.89-.14-22.63-3.94-30.85-.18-.4-2.34-.09-2.65-.04-.58.1-1.36.43-1.72.92-.07.1-.11.22-.13.36Z"/></g><path class="cls-17" d="M565.05,368.37l11.2-1.21c.42-.04.84-.09,1.2-.31.8-.48.93-1.61.7-2.52-1.12-4.34-8.35-6.09-11.95-4.39-1.99.94-3.44,2.78-4.3,4.8-.39.92-.65,2.05-.07,2.86.67.94,2.05.91,3.2.79Z"/><path class="cls-12" d="M589.19,388.03c3.23-2.43,4.63-7.02,3.33-10.84-.09-.27-.19-.54-.31-.79-3.43-7.83-15.51-7.36-18.08,1.11-1.11,3.66.24,7.91,3.19,10.32.17.14.34.27.53.4,3.31,2.32,8.11,2.23,11.34-.2Z"/><path class="cls-6" d="M576.41,382.82c2.2-1.66,3.16-4.79,2.27-7.4-.06-.18-.13-.37-.21-.54-2.34-5.35-10.59-5.02-12.34.76-.76,2.5.16,5.4,2.18,7.05.12.09.23.19.36.27,2.26,1.58,5.53,1.52,7.74-.13Z"/></svg>