<?xml version="1.0" encoding="UTF-8"?><svg id="Layer_1" xmlns="http://www.w3.org/2000/svg" viewBox="0 0 1000 1000"><defs><style>.cls-1{fill:#32294f;}.cls-2{fill:#ffbc03;}.cls-3{fill:#ea5961;}.cls-4{fill:#ffb800;}.cls-5{fill:#fff;}.cls-6{fill:#ef7f6f;}.cls-7{fill:#5d2866;}.cls-8{fill:#ff7903;}.cls-9{fill:#8bd000;}.cls-10{fill:#f48462;}.cls-11{fill:#a3443a;}.cls-12{fill:#fc9f86;}</style></defs><path class="cls-2" d="M852.06,114.35l43.22,234.77-62.3-26.84c-12.85,23.13-32.02,42.03-44.51,64.94-224.81,412.39-421.79,428.43-548.74,412.39-47.85-5.64-96.11-22.1-135.01-60.02,22.44,6.87,75.84,15.91,98.69,18.21,66.29,7.02,136.09-6.87,193.3-38.21,72.74-39.41,301.89-367.02,324.85-445.3l-69.79-30.06,200.29-129.87Z"/><path class="cls-10" d="M519.72,588.86s-66.77,15.07-101.76,15.05c-34.99-.02,2.24,53.13,2.24,53.13,0,0,121.74,17.03,121.98-15.48.24-32.51-22.46-52.7-22.46-52.7Z"/><path class="cls-10" d="M661.69,655.49s43.67,70.23,55.33,103.23c11.65,32.99,48.85-21,48.85-21,0,0-35.61-133.67-69.15-137.65-32.29-3.83-35.03,55.42-35.03,55.42Z"/><polygon class="cls-5" points="420.2 657.04 393.19 657.79 388.31 602.19 417.96 603.91 420.2 657.04"/><path class="cls-9" d="M362.75,594.6l-17.97-.94-13.06-.68-23.55,148.94s5.8,1.13,13.08.56c8.57-.69,19.18-3.77,24.76-13.9,19.15-34.77,42.92-62.39,48.13-66.22,2.35-1.74,3.81-4.63,3.82-7.74l-1.06-47.4c.02-4.27-2.67-7.87-6.43-8.61l-12.27-2.41c-5.09-1-10.26-1.54-15.45-1.6Z"/><path class="cls-2" d="M344.78,593.66l-13.06-.68-.09.58-9.68-1.53-2.74,17.33,9.68,1.53-2.46,15.54-9.68-1.53-2.77,17.5,9.68,1.53-2.26,14.27-9.68-1.53-2.77,17.51,9.68,1.53-2.41,15.24-9.68-1.53-2.77,17.51,9.68,1.53-2.55,16.14-9.68-1.53-2.74,17.3,9.68,1.53s5.8,1.13,13.08.56l23.53-148.82Z"/><path class="cls-5" d="M366.52,695.87c-.36,0-.7-.23-.82-.59l-6.48-18.58c-.16-.45.08-.95.54-1.11.45-.15.95.08,1.11.54l6.48,18.58c.16.45-.08.95-.54,1.11-.09.03-.19.05-.29.05Z"/><path class="cls-5" d="M375.28,684.4c-.36,0-.7-.23-.82-.59l-6.48-18.58c-.16-.45.08-.95.54-1.11.45-.15.95.08,1.11.54l6.48,18.58c.16.45-.08.95-.54,1.11-.09.03-.19.05-.29.05Z"/><path class="cls-5" d="M388.38,706.75c-.79,0-1.56-.14-2.33-.43-7.66-2.88-11.51-19.6-11.67-20.31-.11-.47.19-.94.66-1.04.46-.11.93.19,1.04.66.04.16,3.8,16.51,10.58,19.06,1.76.67,3.57.3,5.51-1.12,1.81-1.32,2.63-2.78,2.49-4.46-.56-7.12-16.87-15.6-17.35-15.84-.15-.07-.28-.19-.37-.34-.24-.41-.1-.95.31-1.19.52-.3,12.7-7.36,19.22-5.51,1.53.43,2.66,1.31,3.36,2.62.81,1.53.46,2.59.01,3.22-2.13,3.01-11.78,2.5-17.84,1.85,5.25,3.17,13.93,9.26,14.39,15.06.18,2.31-.9,4.33-3.21,6.01-1.62,1.18-3.23,1.77-4.82,1.77ZM380.48,681.98c7.04.86,16.44,1.22,17.95-.92.1-.14.35-.5-.13-1.39-.47-.88-1.22-1.46-2.3-1.77-4.24-1.19-11.74,2.15-15.53,4.08Z"/><polygon class="cls-5" points="765.87 737.72 776.19 762.69 725.96 787.04 717.02 758.72 765.87 737.72"/><path class="cls-9" d="M504.06,577.48l20.44,101.62c18.73-1.92,37.12-5.7,52.85-12.26,42.76-17.87,62.08-58.21,62.08-58.21l-55.89-79.64s-29.38,35.36-73.75,47.06c-1.89.5-3.78.96-5.73,1.42Z"/><path class="cls-9" d="M727.97,813.63l5.52,17.13,4.02,12.45,147.56-31s-1.01-5.82-4.13-12.42c-3.7-7.76-10.35-16.58-21.81-18.19-39.31-5.52-73.58-17.9-79.01-21.41-2.46-1.58-5.69-1.91-8.59-.82l-43.92,17.87c-4,1.5-6.41,5.29-5.76,9.07l2.12,12.32c.88,5.11,2.21,10.13,4,15.01Z"/><path class="cls-2" d="M733.49,830.76l4.02,12.45.58-.12,2.02,9.59,17.17-3.61-2.02-9.59,15.39-3.23,2.02,9.59,17.34-3.64-2.02-9.59,14.14-2.97,2.02,9.59,17.35-3.65-2.02-9.59,15.1-3.17,2.02,9.59,17.35-3.65-2.02-9.59,16-3.36,2.02,9.59,17.14-3.6-2.02-9.59s-1.01-5.82-4.13-12.42l-147.45,30.98Z"/><path class="cls-5" d="M805.4,787.91c-.25,0-.49-.11-.67-.31-.31-.37-.26-.92.11-1.23l15.06-12.67c.36-.31.91-.26,1.23.11.31.37.26.92-.11,1.23l-15.06,12.67c-.16.14-.36.2-.56.2Z"/><path class="cls-5" d="M791.56,783.81c-.25,0-.49-.11-.67-.31-.31-.37-.26-.92.11-1.23l15.06-12.67c.36-.31.91-.26,1.23.11.31.37.26.92-.11,1.23l-15.06,12.67c-.16.14-.36.2-.56.2Z"/><path class="cls-5" d="M808.77,770.37c-.28,0-.56-.14-.72-.39-.27-.4-.16-.94.24-1.21.14-.09,14.08-9.43,14.05-16.68,0-1.89-.99-3.44-3-4.75-1.88-1.22-3.54-1.47-5.06-.74-6.46,3.06-8.57,21.33-8.63,21.86-.01.16-.08.32-.19.46-.3.38-.85.44-1.22.13-.47-.37-11.39-9.25-11.98-16-.14-1.59.28-2.96,1.25-4.07,1.14-1.3,2.27-1.35,3.01-1.16,3.57.92,6.53,10.12,8.08,16.01,1.1-6.04,3.7-16.32,8.95-18.81,2.1-.99,4.37-.7,6.76.86,2.51,1.64,3.78,3.72,3.79,6.21.03,8.18-14.22,17.73-14.83,18.13-.15.1-.31.15-.48.15ZM795.85,749.48c-.22,0-.58.1-1.05.65-.66.76-.93,1.66-.83,2.78.39,4.39,6.19,10.2,9.34,13.06-1.71-6.88-4.71-15.8-7.25-16.45-.05-.01-.12-.03-.21-.03Z"/><path class="cls-9" d="M733.49,629.99l-87.6,44.25s-21.34-25.46-41.31-59.02c-28.85-48.47-52.09-84.92-44.59-126.58,5.73-31.85,111.45,16.63,111.45,16.63,0,0,40.89,77.92,62.05,124.72Z"/><path class="cls-12" d="M555.73,363.82s-25.74,9.86-47.64,30.52c-22.56,21.28-32.55,69.74-32.55,69.74l29.38,14.18s20.3-32.26,39.28-42.83c18.98-10.57,34.99-16.53,34.99-16.53l-23.45-55.09Z"/><path class="cls-12" d="M698.46,436.58s28.92,13.86,59.84-2.99c29.76-16.22,53.59-63.27,53.59-63.27l-19.39-23.79s-35.69,27.26-56.43,33.75c-20.74,6.49-37.62,9.07-37.62,9.07v47.23Z"/><path class="cls-12" d="M515.09,462.3s-19.61,36.92-26.54,43.79c-6.93,6.87-27.39,25.37-29.88,20.34-2.52-5.09,9.17-17.29,9.17-17.29,0,0-12.65,11.32-16.64,11.77-3.99.46-5.06-4.84-.29-11.51,4.77-6.67,15.9-18.11,15.9-18.11,0,0-17.71,8.58-22.2,11.08-5.84,3.24-13.84-.31-3.99-8.57,6.56-5.5,18.3-13.83,18.3-13.83,0,0-19.95,4.51-21.2,2.41-1.24-2.1-.4-4.04,4.49-7.23,4.89-3.18,22.9-8.54,25-10.9.85-.96,2.75-3.83,4.71-6.89,3.46-5.42,10.24-7.68,16.25-5.37l26.93,10.32Z"/><path class="cls-11" d="M469.66,509.03c-.22,0-.45-.09-.62-.26-.34-.34-.34-.89,0-1.23l11.58-11.48c.34-.34.89-.34,1.23,0,.34.34.34.89,0,1.23l-11.58,11.48c-.17.17-.39.25-.61.25Z"/><path class="cls-11" d="M467.23,492.84c-.27,0-.54-.13-.71-.37-.28-.39-.19-.94.21-1.22l8.99-6.4c.39-.28.94-.19,1.21.2.28.39.19.94-.21,1.22l-8.99,6.4c-.15.11-.33.16-.5.16Z"/><path class="cls-11" d="M456.65,481.91c-.35,0-.68-.22-.82-.57-.17-.45.06-.95.51-1.12l13.01-4.87c.45-.18.95.06,1.12.51.17.45-.06.95-.51,1.12l-13.01,4.87c-.1.04-.2.06-.3.06Z"/><path class="cls-12" d="M784.28,358.6s1.2-18.13,3.19-22.42c1.99-4.29,11.41-8.6,11.41-8.6,0,0,15.38-10.5,19.85-9.05,4.47,1.45,5.46,9.74,5.46,9.74,0,0,16.58,14.14,17.37,26.63.79,12.49-37.89,27.49-37.89,27.49l-19.39-9.31v-14.48Z"/><path class="cls-8" d="M721.74,449.75v-66.8s-23.01-20.62-82.3-31.09c-60.26-10.63-124.35,25.96-124.35,25.96l27.09,61.82,19.15-7.12-5.53,66.87,125.66,11.66,7.34-63,32.93,1.7Z"/><path class="cls-5" d="M616.64,630.86c-.29,0-.57-.14-.73-.4-.38-.59-37.95-59.6-48.7-82.35-.21-.43-.02-.95.42-1.16.43-.21.95-.02,1.16.42,10.7,22.66,48.22,81.57,48.59,82.16.26.41.14.94-.27,1.2-.14.09-.31.14-.47.14Z"/><path class="cls-5" d="M571.52,533.67c-.12,0-.25,0-.38,0-.48,0-.86-.4-.86-.88,0-.48.33-.87.88-.86.11,0,.23,0,.35,0,18.7,0,24.2-21.11,24.25-21.33.12-.46.58-.75,1.06-.63.47.12.75.59.63,1.05-.06.23-5.87,22.65-25.94,22.65Z"/><path class="cls-5" d="M661.69,668.21c-.27,0-.54-.13-.71-.36-42.41-59.21-81.27-133.91-81.66-134.65-.22-.43-.05-.95.37-1.17.43-.22.95-.05,1.17.37.39.75,39.19,75.34,81.53,134.44.28.39.19.94-.2,1.22-.15.11-.33.16-.51.16Z"/><path class="cls-5" d="M507.58,595.82c-.42,0-.79-.31-.86-.73-.07-.48.25-.92.72-1,37.3-5.92,68.54-27.6,68.85-27.82.39-.27.94-.18,1.21.21.28.39.18.94-.21,1.21-.31.22-31.87,22.12-69.57,28.11-.05,0-.09.01-.14.01Z"/><path class="cls-12" d="M620.6,335.53l-.48,22.42s3.91,6.53,17,7.88c9.75,1,13.23-1.13,13.23-1.13l-1.12-11.39-1.11-11.1-23.58-5.71-3.95-.96Z"/><path d="M624.56,336.49c.04.61.26,1.34.61,2.18,4.78,11.31,18.44,14.01,24.08,14.64l-1.11-11.1-23.58-5.71Z"/><path class="cls-12" d="M654.22,291.21s11.17,28.36,6.2,43.88c-4.97,15.52-19.17,12.53-27.61,9.18-8.44-3.35-12.21-8.74-12.21-8.74,0,0-8.09,2.41-13.15-5.21-5.07-7.62-1.47-16.03,3.17-17.82,4.63-1.79,9.93,1.71,9.93,1.71l-3.95-8.27s19.4-40.57,37.63-14.74Z"/><path class="cls-11" d="M618.83,327.24c-.24,0-.49-.1-.66-.3l-7.23-8.36c-.32-.36-.28-.91.09-1.23.36-.31.91-.27,1.23.09l7.23,8.36c.32.36.28.91-.09,1.23-.16.14-.37.21-.57.21Z"/><path class="cls-11" d="M610.9,324.73c-.44,0-.82-.33-.87-.78-.05-.48.3-.91.77-.96l5.28-.57c.47-.07.9.3.96.77.05.48-.3.91-.77.96l-5.28.57s-.06,0-.09,0Z"/><path class="cls-12" d="M838.51,361.9s-13.63,16.16-20.77,10.24c-7.14-5.92-15.57-18.65-15.57-18.65l17.78-19.4,18.56,27.82Z"/><path class="cls-11" d="M620.86,314.78s6.02-1.08,9.72-7.62c3.7-6.54,4.48-15.91,4.48-15.91,0,0,3.78,4.73,11.78,4.47,8-.26,7.31-3.7,7.31-3.7l1.38,2.27s7.91-21.11-4.05-23.34c-11.95-2.24-16.42,4.04-16.42,4.04,0,0-19.62.95-28.39,14.02-8.77,13.07.2,26.77.2,26.77,0,0,5.47-5.52,13.99-1.01Z"/><path class="cls-10" d="M824.19,328.27l-8.88,7.91,8.88-7.91Z"/><path class="cls-11" d="M815.31,337.05c-.24,0-.48-.1-.65-.29-.32-.36-.29-.91.07-1.23l8.88-7.91c.36-.32.91-.29,1.23.07.32.36.29.91-.07,1.23l-8.88,7.91c-.17.15-.37.22-.58.22Z"/><path class="cls-12" d="M790.15,332.97s25.66-1.99,25.16,6.16c-.5,8.15-12.58,7.83-12.58,7.83,0,0,1.41,19.14-10.8,20.84l-1.78-34.83Z"/><path class="cls-11" d="M791.93,368.67c-.43,0-.8-.32-.86-.75-.07-.48.27-.91.74-.98,11.28-1.57,10.07-19.73,10.05-19.91-.02-.25.07-.49.24-.66s.4-.29.65-.27c.11-.01,11.25.2,11.69-7.01.05-.81-.24-1.5-.87-2.13-3.8-3.74-18.15-3.5-23.35-3.11-.49.03-.9-.32-.94-.8-.03-.48.32-.9.8-.94.79-.06,19.57-1.46,24.71,3.6,1,.99,1.47,2.16,1.39,3.48-.41,6.64-7.91,8.52-12.54,8.64.12,4.01-.18,19.24-11.6,20.84-.04,0-.08,0-.12,0Z"/><path class="cls-12" d="M821.03,363.94s-7.45-1.93-8.1-6.07c-.65-4.14,18.88-18.24,18.88-18.24l-10.78,24.31Z"/><path class="cls-11" d="M821.03,364.81c-.07,0-.14,0-.22-.03-.33-.08-8.02-2.12-8.74-6.78-.69-4.44,15.89-16.67,19.23-19.08.39-.28.93-.2,1.22.2.28.39.19.93-.19,1.22-9.39,6.78-18.88,15.14-18.53,17.4.46,2.93,5.54,4.86,7.46,5.36.47.12.75.6.63,1.06-.1.39-.46.65-.84.65Z"/><path class="cls-12" d="M825,372.14s-6.61-3.82-3.98-8.21c2.64-4.38,18.3-10.99,18.3-10.99l-14.32,19.2Z"/><path class="cls-11" d="M825,373.01c-.15,0-.3-.04-.44-.12-.16-.09-4.04-2.37-4.87-5.6-.34-1.32-.14-2.6.59-3.81,2.75-4.57,18.06-11.07,18.71-11.35.44-.19.96.02,1.14.46.19.44-.02.95-.46,1.14-4.29,1.81-15.85,7.25-17.89,10.64-.49.81-.62,1.61-.39,2.47.65,2.53,4.03,4.51,4.06,4.53.42.24.56.77.32,1.19-.16.28-.45.43-.75.43Z"/><path class="cls-11" d="M812.11,357.03c-1.36,0-3.35-.3-4.79-1.78-1.75-1.81-2.15-4.8-1.19-8.89.11-.47.57-.76,1.05-.65.47.11.76.58.65,1.05-.82,3.47-.57,5.92.74,7.28,1.68,1.75,4.7,1.17,4.73,1.16.46-.1.93.21,1.02.68.09.47-.21.93-.68,1.02-.06.01-.67.13-1.53.13Z"/><path class="cls-7" d="M640.34,367.73c-5.72,0-13.2-1.89-20.82-9.14-.35-.33-.36-.88-.03-1.23.33-.35.88-.36,1.23-.03,14.97,14.23,29.08,6.69,29.22,6.61.41-.23.95-.08,1.18.34.23.42.08.95-.34,1.18-.08.04-4.23,2.27-10.44,2.27Z"/><path class="cls-7" d="M688.81,448.92c-.53-.03-.9-.44-.87-.92l1.05-18.84c.02-.48.44-.87.92-.82.48.03.85.44.82.92l-1.05,18.84c-.02.46-.41.82-.87.82Z"/><path class="cls-9" d="M620.86,314.78s11.46-12.61,23.74-14.59c12.28-1.97,12.94.99,12.94.99l-1.15-9.85s-5.14-4-20.31.86c-15.88,5.09-23.21,20.91-23.21,20.91l7.99,1.68Z"/><path class="cls-11" d="M370.68,273.17s-25.79-21.74-42.98,0c-17.19,21.74-9.53,89.41-9.53,89.41h39.68l4.79-63.47,8.04-25.93Z"/><path class="cls-11" d="M406.27,268.12s-4.11-9.98-32.39-2.98c-28.28,7-30.36,69.77,13.68,64.63,44.04-5.14,18.71-61.65,18.71-61.65Z"/><path class="cls-4" d="M127.13,527.59l122.24-52.19c5.36-2.29,11.58-.05,14.2,5.09l5.92,11.58,24.93,48.8-50.65,30.7s-46.56-10.42-80.4-10.55c-15.97-.05-27.87-6.23-36.03-12.74-1.25-1.01-2.39-2.01-3.46-3-5.7-5.31-3.96-14.63,3.24-17.7Z"/><path class="cls-8" d="M127.13,527.59l122.24-52.19c5.36-2.29,11.58-.05,14.2,5.09l5.92,11.58-142.14,56.22c-1.25-1.01-2.39-2.01-3.46-3-5.7-5.31-3.96-14.63,3.24-17.7Z"/><path class="cls-8" d="M212.12,595.25c-1.41,0-2.34-.62-2.91-1.22-2.85-2.99-2.27-11.32-.96-18.92-2.55,5.99-5.85,11.94-9.29,13.26-1.3.5-2.55.37-3.73-.37-1.12-.7-1.79-1.78-2-3.19-1.29-8.51,15.41-28.21,16.12-29.05.3-.35.82-.39,1.16-.09.35.29.39.82.09,1.16-.17.2-16.92,19.96-15.75,27.73.14.93.55,1.6,1.25,2.05.73.46,1.45.53,2.26.22,5.28-2.03,11.08-18.78,13.04-25.59.05-.16.08-.29.11-.4.13-.45.59-.7,1.02-.57.44.12.69.58.57,1.02-.01.05-.04.14-.08.29-2.14,7.58-6.58,27.16-2.62,31.32.64.68,1.48.86,2.63.59,1.52-.36,2.63-1.23,3.39-2.67,3.89-7.36-3.1-25.78-3.17-25.96-.16-.43.05-.9.47-1.07.43-.17.9.05,1.07.48.3.78,7.33,19.31,3.09,27.33-.98,1.86-2.49,3.04-4.47,3.51-.47.11-.9.16-1.29.16Z"/><polygon class="cls-12" points="434.82 736.55 459.62 808.03 490.61 827.58 539.23 828.05 516.69 779.64 488.82 721.56 434.82 736.55"/><path class="cls-8" d="M405.01,482.56l120.95,267.46-90.32,20.51-38.95-87.09s-54.82,29.44-93.94-11.38c-39.11-40.83-70.21-100.84-70.21-100.84l61.88-35.31s3.49-61.79,28.19-74.23,82.39,20.88,82.39,20.88Z"/><path class="cls-4" d="M602.54,853.55l-133.26,1.86c-5.85.08-10.71-4.34-11.11-10.07l-.92-12.93-4.33-43.66,59.21-19.96s38.88,27.25,70.06,40.19c14.72,6.09,23.28,16.3,28.25,25.41.75,1.41,1.42,2.76,2.02,4.08,3.18,7.06-2.08,15-9.93,15.1Z"/><path class="cls-12" d="M405.01,415.17s33.06,33,66.43,31.78c32.13-1.17,90.52-25.72,90.52-25.72l-7.04-30.68s-39.55-.14-59.9-3.34c-20.35-3.2-35.77-8.06-35.77-8.06l-54.24,36.02Z"/><path class="cls-12" d="M542.83,397.21s8.69-14.63,12.18-17.39c3.5-2.75,13.33-2.44,13.33-2.44,0,0,17.5-2.37,20.68.7,3.18,3.07.52,10.4.52,10.4,0,0,8.1,18.7,3.49,29.45s-43.79,7.2-43.79,7.2l-12.52-15.83,6.12-12.09Z"/><path class="cls-12" d="M587.47,422.5s-18.4,7.82-21.96-.09c-3.56-7.91-5.33-22.04-5.33-22.04l23.29-8.8,4,30.93Z"/><path class="cls-12" d="M558.65,378.26s22.62,9,18.76,15.6c-3.86,6.59-13.99,1.31-13.99,1.31,0,0-6.89,16.56-17.98,12.91l13.21-29.81Z"/><path class="cls-11" d="M548.68,409.43c-1.11,0-2.28-.18-3.5-.58-.43-.14-.67-.61-.53-1.04.14-.43.61-.67,1.04-.53,10.22,3.38,16.9-12.28,16.96-12.44.09-.21.26-.38.48-.46.22-.08.46-.06.66.04.09.05,9.47,4.84,12.89-.99.38-.64.43-1.33.16-2.1-1.61-4.69-13.91-10.48-18.52-12.31-.42-.17-.63-.65-.46-1.07.17-.42.65-.63,1.07-.46.7.28,17.28,6.94,19.47,13.31.42,1.24.32,2.41-.3,3.47-3.15,5.38-10.31,3.82-14.29,2.01-1.4,3-6.79,13.16-15.15,13.16Z"/><path class="cls-12" d="M571.78,416.93s-5.51-4.7-4.31-8.43c1.2-3.73,23.74-7.38,23.74-7.38l-19.42,15.81Z"/><path class="cls-11" d="M571.78,417.75c-.19,0-.38-.06-.54-.2-.24-.21-5.92-5.11-4.56-9.31,1.26-3.9,18.99-7.07,24.39-7.94.44-.07.87.23.95.68.07.45-.23.87-.68.95-10.83,1.76-22.43,4.79-23.08,6.82-.85,2.62,2.65,6.34,4.06,7.55.35.3.39.82.09,1.16-.16.19-.39.29-.63.29Z"/><path class="cls-12" d="M571.68,425.43s-4-5.94.09-8.5c4.09-2.56,20.18-1.57,20.18-1.57l-20.28,10.07Z"/><path class="cls-11" d="M571.69,426.25c-.27,0-.53-.13-.69-.36-.1-.15-2.43-3.65-1.78-6.7.27-1.25.98-2.25,2.11-2.96,4.26-2.67,20-1.74,20.67-1.7.45.03.8.42.77.88-.03.45-.4.81-.88.77-4.4-.27-16.53-.54-19.7,1.45-.75.47-1.2,1.09-1.37,1.9-.42,1.97.96,4.59,1.53,5.44.26.38.15.89-.22,1.15-.14.1-.3.14-.46.14Z"/><path class="cls-11" d="M568.69,408.03c-.07,0-.14,0-.21-.03-.15-.04-3.72-1.01-4.68-4.04-.71-2.24.22-4.9,2.76-7.91.3-.35.81-.39,1.16-.1.35.3.39.82.1,1.16-2.15,2.54-2.97,4.67-2.45,6.34.68,2.16,3.5,2.94,3.53,2.95.44.12.7.57.59,1.01-.1.37-.43.61-.8.61Z"/><path class="cls-9" d="M414.86,439.63s11.72,4.07,25.19,6.09c9.17,1.38,15.43,1.38,15.43,1.38l15.97-66.02-66.43-35,9.85,93.54Z"/><path class="cls-5" d="M397.63,681.98c-.19,0-.38-.06-.54-.2-.35-.29-.39-.81-.09-1.16.15-.18,14.93-17.96,13.02-49.45-1.93-31.76-21.78-90.13-21.98-90.71-.07-.22-.05-.46.05-.66.11-.2.3-.35.52-.41l26.43-6.74c.45-.11.89.15,1,.6.11.44-.15.89-.6,1l-25.56,6.52c2.46,7.34,19.97,60.43,21.78,90.3,1.95,32.19-13.26,50.44-13.41,50.62-.16.19-.4.29-.63.29Z"/><path class="cls-5" d="M442.93,747.86c-.37,0-.71-.26-.8-.63-.11-.44.17-.89.61-.99l74.23-17.81c.43-.12.89.16,1,.61.11.44-.17.89-.61.99l-74.23,17.81c-.06.02-.13.02-.19.02Z"/><path class="cls-5" d="M315.86,589.63c-.08,0-.16,0-.23-.01-5.27-.61-14.81-26.62-16.66-31.83-.13-.37.02-.79.36-.99.34-.2.78-.13,1.04.17,2.23,2.53,21.63,24.88,17.33,31.55-.6.92-1.34,1.11-1.83,1.11ZM302.12,561.58c4.53,11.95,10.93,26.08,13.7,26.4.08.01.24.03.48-.35,2.41-3.74-6.5-16.73-14.18-26.05Z"/><path class="cls-5" d="M242.36,589.63c-.29,0-.58-.16-.73-.43-.22-.4-.07-.9.33-1.12l57.39-31.29c.4-.22.9-.07,1.12.33.22.4.07.9-.33,1.12l-57.39,31.29c-.12.07-.26.1-.39.1Z"/><path class="cls-8" d="M602.54,853.55l-133.26,1.86c-5.85.08-10.71-4.34-11.11-10.07l-.92-12.93,153.2,1.96c.75,1.41,1.42,2.76,2.02,4.08,3.18,7.06-2.08,15-9.93,15.1Z"/><path class="cls-8" d="M537.34,796.51c-.3,0-.59-.17-.74-.45-.21-.41-.04-.9.36-1.11.24-.12,23.51-12.05,25.41-19.66.22-.9.11-1.66-.36-2.33-.49-.69-1.11-1.03-1.96-1.06-5.81,0-17.64,13.15-22.1,18.68-.11.13-.2.25-.27.33-.28.36-.8.41-1.16.13-.35-.29-.41-.8-.13-1.16.03-.04.1-.12.19-.24,4.96-6.19,16.73-22.6,14.69-27.92-.33-.85-1.02-1.34-2.18-1.52-1.55-.25-2.92.14-4.19,1.19-6.47,5.33-7.24,24.96-7.25,25.16-.02.46-.39.77-.85.79-.46-.01-.81-.4-.8-.85.03-.84.8-20.58,7.85-26.38,1.63-1.34,3.48-1.87,5.5-1.54,2.18.34,3.09,1.58,3.46,2.56,1.47,3.83-2.32,11.29-6.5,17.81,4.71-4.57,10.09-8.71,13.78-8.69,1.38.04,2.48.63,3.26,1.76.75,1.06.95,2.3.61,3.67-2.08,8.34-25.28,20.23-26.26,20.73-.12.06-.25.09-.37.09Z"/><path class="cls-12" d="M334.81,376.61s-41.43-17.1-72.67,16.7c-31.24,33.79-39.89,93.34-39.89,93.34l30.84,9.84,64.4-69.27,17.32-50.61Z"/><path class="cls-12" d="M255.84,495.4s2.86,16.71,1.96,21.02c-.89,4.32-8.65,10.27-8.65,10.27,0,0-11.9,12.84-16.34,12.49-4.44-.35-7.17-7.65-7.17-7.65,0,0-18.4-9.25-21.86-20.41-3.46-11.16,28.95-33.12,28.95-33.12l19.93,4.26,3.17,13.13Z"/><path class="cls-11" d="M225.64,532.36c-.18,0-.36-.06-.51-.18-.36-.28-.42-.8-.14-1.16l2.98-3.77c.28-.36.8-.42,1.16-.13.36.28.42.8.14,1.16l-2.98,3.77c-.16.2-.4.31-.65.31Z"/><path class="cls-11" d="M249.15,527.52c-.12,0-.25-.03-.37-.09-.41-.21-.57-.7-.36-1.11l7.57-14.98c.21-.41.7-.57,1.11-.36.41.21.57.7.36,1.11l-7.57,14.98c-.15.29-.44.45-.74.45Z"/><path class="cls-9" d="M248.74,403.1s45.69-64.39,100.83-66.36c65.71-2.34,76.72,27.83,78.78,43.23,2.24,16.81-7.96,67.25-7.96,67.25l-6.51,55.67-106.67-26.78,11.77-39.68-70.23-33.33Z"/><path class="cls-12" d="M376.59,320.96l-1.79,20.72s3.29,6.27,15.53,8.29c9.12,1.5,12.52-.27,12.52-.27l-.38-10.6-.38-10.34-21.85-6.67-3.67-1.12Z"/><path d="M380.26,322.09c0,.57.17,1.26.44,2.05,3.82,10.74,16.52,14.05,21.79,14.96l-.38-10.34-21.85-6.67Z"/><path class="cls-12" d="M412.41,286.38s9.57,18.36,3.58,35.71c-4.94,14.32-20.68,11.27-28.42,7.68-7.74-3.59-10.97-8.8-10.97-8.8,0,0-7.75,1.76-12.07-5.59-4.32-7.35-.42-14.92,4.04-16.3,4.47-1.38,9.25,2.16,9.25,2.16l-3.23-7.88s22.21-31.94,37.83-6.98Z"/><path class="cls-11" d="M376.13,312.36c-.19,0-.38-.06-.53-.19l-8.92-7.51c-.35-.29-.39-.81-.1-1.16.3-.35.82-.39,1.16-.1l8.92,7.5c.35.29.39.81.1,1.16-.16.19-.4.29-.63.29Z"/><path class="cls-11" d="M367.49,311.52c-.4,0-.75-.29-.81-.69-.07-.45.23-.88.68-.95l6.39-1.06c.45-.07.88.23.95.68.07.45-.23.88-.68.95l-6.39,1.06s-.09.01-.14.01Z"/><path class="cls-11" d="M412.59,287.96s-1.93-4.36-7.18-4.83c-5.25-.47-8.64,2.91-8.64,2.91,0,0,1.56,8.9-5.99,12.92-7.55,4.03-12.97,2.27-12.97,2.27l-5.03-2.25-3.16-7.77,16.37-14.64,20.29-8.46,5.2,10.21,1.12,9.62Z"/><path class="cls-5" d="M308.63,504.82c-.37,0-.7-.25-.8-.62-.11-.44.15-.89.59-1.01.15-.04,14.93-3.97,18.53-11.72.19-.41.69-.59,1.1-.4.41.19.59.68.4,1.1-3.92,8.46-18.97,12.46-19.61,12.62-.07.02-.14.03-.21.03Z"/><path class="cls-4" d="M377.81,301.24s10.16-12.32,22.15-14.24c11.99-1.92,12.64.96,12.64.96l-1.12-9.62s-5.02-3.91-19.83.84c-15.5,4.97-22.02,19.67-22.02,19.67l8.19,2.39Z"/><path class="cls-7" d="M394.7,351.85c-12.69,0-20.45-9.54-20.54-9.65-.28-.36-.22-.88.13-1.16.36-.29.88-.23,1.16.13.43.53,10.66,13.07,27.16,7.74.44-.14.9.1,1.04.53.14.43-.1.9-.53,1.04-3,.97-5.81,1.37-8.42,1.37Z"/><path class="cls-7" d="M422.76,435.41c-.1,0-.19-.02-.29-.05-.43-.16-.65-.64-.49-1.06,13.58-36.5-4.08-54.38-4.26-54.56-.33-.32-.33-.84-.01-1.17.32-.32.84-.33,1.17-.01.19.18,18.63,18.75,4.66,56.31-.12.33-.44.54-.77.54Z"/><path class="cls-7" d="M318.97,437.26c-.16,0-.33-.05-.47-.15-.37-.26-.46-.78-.2-1.15l7.77-11.1c.26-.37.77-.47,1.15-.2.37.26.46.78.2,1.15l-7.77,11.1c-.16.23-.42.35-.68.35Z"/><path class="cls-6" d="M417.4,302.79c-.27-1.79-.62-2.66-1.15-2.76-1.09-2.3-4.67-2.05-5.36.48-.3,1.1.14,2.35,1.03,3.04-.23.78-.26,1.61-.07,2.41.52,2.09,2.61,3.68,4.76,3.63,1.78-.04,1.31-1.16,1.19-2.92-.07-1.09-.06-1.55-.41-3.88Z"/><path class="cls-6" d="M390.37,303.96c-.06.2-.09.41-.09.62-2.29.21-3.69,2.59-3.69,4.93,0,1.24.39,2.46,1.25,3.34,1.23,1.27,3.17,1.69,4.8.97,1.97-.87,3.18-3.2,2.75-5.32-.1-.52-.31-1.01-.58-1.45.04-.03.08-.06.12-.09.94-.75,1.32-2.12.9-3.25-.95-2.54-4.75-2.37-5.46.25Z"/><path class="cls-6" d="M404.62,308.52c-.51.1-.33.89.18.79,1.28-.24,2.55-1.03,2.9-2.36.33-1.27-.4-2.66-1.76-2.85-.83-.12-1.62.24-2.34.58-.47.22-.09.94.38.72.61-.29,1.33-.65,2.02-.47.54.15.9.65.97,1.19.16,1.35-1.22,2.18-2.35,2.4Z"/><path class="cls-3" d="M411.16,313.11c-4.03.87-7.38,1.06-11.46.43-.04,1.16.2,1.61.54,2.91.63.92,1.47,1.69,2.4,2.15,1.96.98,4.41.83,6.32-.25.74-.42,1.41-.98,1.92-1.66-.04-.35.06-.63.18-.87.2-1.2.52-1.68.1-2.72Z"/><path class="cls-1" d="M403.3,314.94c2.33-.46,4.94-.17,6.9,1.21.24.17.46.35.68.55.16-.22.3-.45.43-.69.51-1,.57-2.26.15-3.3-4.03.87-8.22.99-12.3.36-.04,1.16.38,2.36,1.08,3.38.81-.78,1.95-1.29,3.06-1.51Z"/><path class="cls-1" d="M415.46,303.5c.94-.75,1.32-2.12.9-3.25-.03-.08-.06-.16-.1-.23-1.09-2.3-4.67-2.05-5.36.48-.3,1.1.14,2.35,1.03,3.04.05.04.1.08.16.11,1,.66,2.43.59,3.37-.15Z"/><path class="cls-1" d="M391.56,307.12c.96.63,2.31.6,3.25-.07.04-.03.08-.06.12-.09.94-.75,1.32-2.12.9-3.25-.95-2.54-4.75-2.37-5.46.25-.06.2-.09.41-.09.62-.03.99.46,1.99,1.28,2.54Z"/><path class="cls-11" d="M389.65,299.85l4.91-.06c.18,0,.37,0,.53-.09.37-.18.47-.66.41-1.06-.31-1.93-3.37-2.99-5-2.4-.9.32-1.61,1.06-2.06,1.9-.21.38-.37.86-.15,1.23.25.43.85.48,1.36.47Z"/><path class="cls-11" d="M409.84,296.6l4.86-.67c.18-.02.37-.05.52-.15.34-.22.39-.71.27-1.11-.54-1.88-3.71-2.55-5.25-1.76-.85.43-1.46,1.25-1.81,2.14-.16.4-.26.9,0,1.24.3.4.9.37,1.4.3Z"/><path class="cls-6" d="M661.18,317.5c-.27-1.79-.62-2.66-1.15-2.76-1.09-2.3-4.67-2.05-5.36.48-.3,1.1.14,2.35,1.03,3.04-.23.78-.26,1.61-.07,2.41.52,2.09,2.61,3.68,4.76,3.63,1.78-.04,1.31-1.16,1.19-2.92-.07-1.09-.06-1.55-.41-3.88Z"/><path class="cls-6" d="M634.14,318.67c-.06.2-.09.41-.09.62-2.29.21-3.69,2.59-3.69,4.93,0,1.24.39,2.46,1.25,3.34,1.23,1.27,3.17,1.69,4.8.97,1.97-.87,3.18-3.2,2.75-5.32-.1-.52-.31-1.01-.58-1.45.04-.03.08-.06.12-.09.94-.75,1.32-2.12.9-3.25-.95-2.54-4.75-2.37-5.46.25Z"/><path class="cls-6" d="M648.4,323.23c-.51.1-.33.89.18.79,1.28-.24,2.55-1.03,2.9-2.36.33-1.27-.4-2.66-1.76-2.85-.83-.12-1.62.24-2.34.58-.47.22-.09.94.38.72.61-.29,1.33-.65,2.02-.47.54.15.9.65.97,1.19.16,1.35-1.22,2.18-2.35,2.4Z"/><path class="cls-3" d="M654.94,327.82c-4.03.87-7.38,1.06-11.46.43-.04,1.16.2,1.61.54,2.91.63.92,1.47,1.69,2.4,2.15,1.96.98,4.41.83,6.32-.25.74-.42,1.41-.98,1.92-1.66-.04-.35.06-.63.18-.87.2-1.2.52-1.68.1-2.72Z"/><path class="cls-1" d="M647.08,329.65c2.33-.46,4.94-.17,6.9,1.21.24.17.46.35.68.55.16-.22.3-.45.43-.69.51-1,.57-2.26.15-3.3-4.03.87-8.22.99-12.3.36-.04,1.16.38,2.36,1.08,3.38.81-.78,1.95-1.29,3.06-1.51Z"/><path class="cls-1" d="M659.23,318.21c.94-.75,1.32-2.12.9-3.25-.03-.08-.06-.16-.1-.23-1.09-2.3-4.67-2.05-5.36.48-.3,1.1.14,2.35,1.03,3.04.05.04.1.08.16.11,1,.66,2.43.59,3.37-.15Z"/><path class="cls-1" d="M635.34,321.83c.96.63,2.31.6,3.25-.07.04-.03.08-.06.12-.09.94-.75,1.32-2.12.9-3.25-.95-2.54-4.75-2.37-5.46.25-.06.2-.09.41-.09.62-.03.99.46,1.99,1.28,2.54Z"/><path class="cls-11" d="M633.43,314.56l4.91-.06c.18,0,.37,0,.53-.09.37-.18.47-.66.41-1.06-.31-1.93-3.37-2.99-5-2.4-.9.32-1.61,1.06-2.06,1.9-.21.38-.37.86-.15,1.23.25.43.85.48,1.36.47Z"/><path class="cls-11" d="M653.62,311.32l4.86-.67c.18-.02.37-.05.52-.15.34-.22.39-.71.27-1.11-.54-1.88-3.71-2.55-5.25-1.76-.85.43-1.46,1.25-1.81,2.14-.16.4-.26.9,0,1.24.3.4.9.37,1.4.3Z"/></svg>