<?xml version="1.0" encoding="UTF-8"?><svg id="Layer_1" xmlns="http://www.w3.org/2000/svg" viewBox="0 0 1000 1000"><defs><style>.cls-1{fill:#ffcab5;}.cls-2{stroke:#ffb800;}.cls-2,.cls-3,.cls-4,.cls-5{fill:none;}.cls-2,.cls-4,.cls-5{stroke-linecap:round;stroke-linejoin:round;}.cls-6{fill:#0074cb;}.cls-7{fill:#32294f;}.cls-3{stroke-miterlimit:10;}.cls-3,.cls-5{stroke:#fff;}.cls-8{fill:#ff7000;}.cls-9{fill:#ea5961;}.cls-4{stroke:#060305;}.cls-10{fill:#ffb800;}.cls-11{fill:#fff;}.cls-12{fill:#ef7f6f;}.cls-13{fill:#8bd000;}.cls-14{fill:#a3443a;}</style></defs><path class="cls-13" d="M434,307.69c-48.89,27.37-59.07,25.78-97.58,63.58-38.51,37.8-56.03,75.92-29.18,107.84,26.85,31.92,51.92,50.39,51.92,50.39l-47.7,165.5s100.22-64.73,181.2-180.91c0,0,162.64,272.02,136.76,192.49-1.8-5.53-28.56-207.8-28.56-207.8h12.62s-2.41-47.38-22.6-97.42c68.53,17.24,83.12,11.73,127.88-16.77l-19.07-61.78-48.41,16.44c-79.21-23.07-88.73-27.87-151.7-31.77l-65.59.21Z"/><path class="cls-10" d="M694.81,318.39l-37.86,15.25c-9.27,48.77,19,68.8,42.74,69.28l34.77-26.13,2.63-20.15-42.29-38.25Z"/><path class="cls-10" d="M359.16,529.5l20.04-76.01s-35.49,12.63-58.16,49.75l38.13,26.26Z"/><path class="cls-4" d="M353.74,416.45c8.57,10.95,17.15,21.9,25.72,32.85"/><path class="cls-4" d="M480.79,321.86c15.68,29.08,25.29,61.41,28.03,94.33"/><path class="cls-4" d="M377.91,454.17c8.54-26.51,17.2-52.98,26-79.41,2.45-7.37,4.86-15.28,1.96-22.48-2.9-7.2-9.66-12.71-17.3-14.1"/><path class="cls-4" d="M590.86,403.3c-2.37-7.56-4.74-15.12-7.12-22.68-2.81-8.96-5.63-17.95-9.4-26.55-6.11-13.94-14.7-26.78-25.25-37.74"/><path class="cls-4" d="M651.26,338.56c-16.5,2.55-30.68,16.26-33.79,32.67"/><path class="cls-4" d="M316.33,687.9c18.25-23.71,36.5-47.41,54.75-71.12"/><path class="cls-4" d="M591.38,631.56c11.95,28.89,23.89,57.78,35.84,86.67"/><path class="cls-14" d="M434.88,273.52c.36,5.05.72,10.1,1.08,15.15,7.52.38,15.02,1.18,22.54,1.56.71-8.51,1.51-16.71,2.21-25.21l-25.83,8.51Z"/><path class="cls-1" d="M443.81,293.1c-.26,4.19-.52,8.39-.78,12.58,13.48,4.78,26.2,7.94,39.68,12.72,3.55-8.45,7.68-14.27,11.24-22.72l-50.14-2.58Z"/><polygon class="cls-8" points="480.7 315.49 484.34 303.15 496.38 298.25 499.58 307.48 481.41 321.76 478.62 318.02 480.7 315.49"/><path class="cls-1" d="M498.53,283.88c-1.57-7.52-3.37-14.43-4.94-21.96-12.4,1.89-24.58,4.53-36.98,6.41-.63,4.87-1.37,9.92-2,14.78-2.89-1.11-5.5-2.82-6.73-5.66-4.7-1.33-10.16.96-12.51,5.24-2.35,4.28-1.36,10.12,2.28,13.37,3.64,3.26,9.55,3.6,13.54.79,3.52,5.19,9.06,8.02,15.19,9.32,6.14,1.3,12.48,1.01,18.75.72,5.07-.24,10.01-3.88,12.7-8.18,2.7-4.3,1.73-9.88.69-14.84Z"/><path class="cls-12" d="M497.17,277.52c-.35-1.56-.48-2.25-.74-3.02-.26.16-.96.65-1.27.75-.77.54-1.74.87-2.92.87-.7,0-1.33-.12-1.89-.33-.16,1.1.36,2.27,1.29,2.88-.17.81-.16,1.67.1,2.46.68,2.1,2.92,3.57,5.12,3.36,1.81-.17,1.25-1.27,1.01-3.06-.15-1.11-.17-1.58-.7-3.93Z"/><path class="cls-12" d="M468.61,279.57c-.06.21-.09.42-.09.63-2.34.21-3.77,2.65-3.77,5.04,0,1.27.4,2.52,1.28,3.42,1.26,1.3,3.25,1.73,4.91.99,2.02-.89,3.25-3.28,2.81-5.44-.11-.53-.31-1.03-.59-1.48.04-.03.08-.06.12-.09.96-.77,1.35-2.17.92-3.32-.97-2.6-4.85-2.42-5.58.26Z"/><path class="cls-12" d="M483.19,284.23c-.52.1-.34.91.18.81,1.31-.25,2.61-1.05,2.97-2.41.34-1.3-.41-2.72-1.8-2.92-.84-.12-1.65.24-2.4.6-.48.23-.09.96.39.73.62-.3,1.36-.67,2.07-.48.55.15.92.66.99,1.22.17,1.38-1.24,2.23-2.41,2.45Z"/><path class="cls-9" d="M489.88,288.92c-4.12.89-7.55,1.09-11.72.44-.04,1.18.2,1.64.55,2.97.64.94,1.51,1.73,2.46,2.2,2.01,1.01,4.51.85,6.46-.25.76-.43,1.44-1,1.96-1.7-.04-.36.06-.64.18-.89.2-1.23.53-1.71.11-2.78Z"/><path class="cls-7" d="M481.84,290.8c2.38-.47,5.05-.17,7.05,1.23.24.17.48.36.7.56.16-.22.31-.46.43-.7.52-1.02.58-2.31.16-3.38-4.12.89-8.41,1.01-12.58.37-.04,1.18.39,2.41,1.11,3.46.83-.8,1.99-1.32,3.13-1.54Z"/><path class="cls-7" d="M494.84,278.46c.96-.77,1.35-2.17.92-3.32-.03-.08-.06-.16-.1-.24-1.11-2.35-4.78-2.1-5.48.49-.31,1.12.14,2.4,1.06,3.11.05.04.11.08.16.12,1.03.68,2.48.61,3.44-.16Z"/><path class="cls-7" d="M469.83,282.8c.98.65,2.37.61,3.32-.07.04-.03.08-.06.12-.09.96-.77,1.35-2.17.92-3.32-.97-2.6-4.85-2.42-5.58.26-.06.21-.09.42-.09.63-.03,1.01.47,2.04,1.31,2.59Z"/><path class="cls-14" d="M467.88,275.36l5.02-.06c.19,0,.38,0,.55-.09.38-.18.48-.68.42-1.09-.31-1.97-3.44-3.05-5.11-2.45-.92.33-1.64,1.09-2.11,1.94-.21.39-.38.88-.15,1.26.26.44.87.49,1.39.48Z"/><path class="cls-14" d="M488.53,272.04l4.97-.68c.18-.03.37-.05.53-.15.35-.23.39-.73.28-1.13-.56-1.92-3.79-2.61-5.37-1.8-.87.44-1.5,1.28-1.85,2.19-.16.41-.26.92,0,1.27.31.41.92.38,1.44.31Z"/><polygon class="cls-8" points="480.7 315.49 476.39 304.2 440 298.25 434 307.69 481.41 321.76 480.7 315.49"/><path class="cls-10" d="M383.74,529.5c11.03-53.06,63.03-112.16,126.1-113.74,63.07-1.59,97.36,47.11,98.49,97.37,1.13,50.26-20.04,193.1-36.97,284.78l-83.04-10.22,11.92-132.38-3.74-93.85-46.82,115.57s-16.13,84.29-31.04,134.29l-76.42-30.09s24.62-170.4,41.51-251.72Z"/><path class="cls-4" d="M495.21,429.73c0-2.41-1.95-4.36-4.36-4.36s-4.36,1.95-4.36,4.36,1.95,4.36,4.36,4.36,4.36-1.95,4.36-4.36Z"/><path class="cls-3" d="M383.49,528.64c52.23-5.48,101.24-36.13,129.03-80.68,26.19,25.32,59.42,42.26,95.25,48.81"/><path class="cls-4" d="M512.02,446.22c.43-10.44-.63-20.93-3.15-31.07"/><path class="cls-3" d="M495.34,567.57c3.79-12.48,7.57-24.97,11.36-37.45"/><path class="cls-3" d="M360.61,679.77c10.09,6.54,24.62,5.14,33.28-3.21"/><path class="cls-3" d="M542.24,674.25c3.63,7.39,11.16,12.73,19.34,13.69,8.18.96,16.74-2.47,21.99-8.82"/><path class="cls-6" d="M561.97,263.83c-7.65-10.29-12.56-22.32-14.45-35.01-4.34-29.27-19.51-84.08-72.15-83.33-21.25.3-37.67,7.88-50.42,19.45-9.71-4.4-19.99-5.32-30.66.05-27.12,13.63-29.46,65.49-28.71,92.86.34,12.27-1.84,24.46-6.31,35.89l-4.54,11.62s119.57-64.97,218.42-26.51l-11.17-15.03Z"/><path class="cls-5" d="M356.13,303.84c4.12-5.21,8.24-10.42,12.37-15.64,7.59-9.6,11.3-21.47,14.43-33.3,8.83-33.36,19.54-66.39,42.92-91.78"/><path class="cls-5" d="M415.34,192.42c7.27-21.98,28.1-38.82,51.12-41.32"/><path class="cls-5" d="M421.13,271.82c24.38-10.1,50.98-14.78,77.34-13.63"/><circle class="cls-10" cx="519.81" cy="230.85" r="16.32" transform="translate(-10.99 435.17) rotate(-45)"/><circle class="cls-8" cx="519.81" cy="230.85" r="8.56"/><path class="cls-5" d="M523.04,192.84c-3.69,22.07-7.39,44.14-11.08,66.21,7.43-19.13,14.86-38.27,22.3-57.4"/><polygon class="cls-11" points="465.06 341.61 452.48 350.95 452.42 335.28 429.97 342.75 439.32 355.33 423.65 355.4 431.12 377.84 443.7 368.5 443.76 384.17 466.21 376.69 456.86 364.11 472.53 364.05 465.06 341.61"/><path class="cls-8" d="M455.78,357.46c-1.4-4.2-5.94-6.47-10.13-5.07-4.2,1.4-6.47,5.94-5.07,10.13,1.4,4.2,5.94,6.47,10.13,5.07,4.2-1.4,6.47-5.94,5.07-10.13Z"/><path class="cls-5" d="M443.31,359.71c-.12-2.29,2.12-4.4,4.39-4.16"/><path class="cls-6" d="M440.05,394.23c-1.92-5.75-8.13-8.87-13.89-6.95-5.75,1.92-8.87,8.13-6.95,13.89,1.92,5.75,8.13,8.87,13.89,6.95,5.75-1.92,8.87-8.13,6.95-13.89Z"/><path class="cls-5" d="M428.49,389.81c-3.48.5-6.3,3.85-6.23,7.36"/><path class="cls-8" d="M474.34,396.91c-1.92-5.75-8.13-8.87-13.89-6.95-5.75,1.92-8.87,8.13-6.95,13.89,1.92,5.75,8.13,8.87,13.89,6.95,5.75-1.92,8.87-8.13,6.95-13.89Z"/><path class="cls-5" d="M463.48,392.5c-2.09.1-4.11,1.19-5.36,2.87-1.25,1.68-1.69,3.93-1.18,5.96"/><path class="cls-2" d="M348.05,361.47c-1.15,5.67-2.3,11.34-3.45,17.01"/><path class="cls-2" d="M357.07,363.17c-.75,4.6-1.5,9.2-2.25,13.8"/><path class="cls-2" d="M367.22,363.42c-.5,4.6-1,9.2-1.49,13.8"/><path class="cls-2" d="M379.28,361.17c-.4,4.6-.8,9.2-1.19,13.81"/><path class="cls-2" d="M392.6,355.53c-.67,4.93-1.34,9.86-2.01,14.78"/><path class="cls-2" d="M400,349.61c-.5,4.52-.99,9.04-1.48,13.55"/><path class="cls-2" d="M409.06,339.01c-.99,5.01-1.97,10.02-2.96,15.03"/><path class="cls-10" d="M367.56,322.97c-18.37,8.51-30.21,21.98-26.46,30.07.66,1.42,3.13,6.76,3.79,8.18,3.75,8.1,21.68,7.76,40.05-.75s30.22-21.98,26.46-30.07c-.66-1.42-3.13-6.76-3.79-8.18-3.75-8.1-21.68-7.76-40.05.75Z"/><path class="cls-5" d="M341.35,349.17c.87,3.74,4.66,6.25,8.47,6.75,3.81.5,7.63-.61,11.26-1.88,12.7-4.43,24.67-10.91,35.32-19.12,2.17-1.67,4.32-3.45,5.89-5.7s2.54-5.04,2.09-7.74"/><path class="cls-2" d="M524.22,309.92c.15,4.35.29,8.71.44,13.06"/><path class="cls-2" d="M531.79,314.85c.24,4.44.49,8.87.73,13.31"/><path class="cls-2" d="M539.39,317.56c.41,3.29.82,6.57,1.23,9.86"/><path class="cls-2" d="M548.94,320.53c.33,3.45.67,6.9,1,10.35"/><path class="cls-2" d="M557.84,321.26l.49,10.6"/><path class="cls-2" d="M569.72,322.98c.41,3.29.82,6.57,1.23,9.86"/><path class="cls-2" d="M580.09,322.74c.25,3.61.5,7.23.74,10.84"/><path class="cls-2" d="M588.75,319.28c.41,3.7.82,7.39,1.23,11.09"/><path class="cls-10" d="M594.2,310.14c.98-5.58-14.39-12.94-34.33-16.44-19.94-3.5-36.9-1.82-37.88,3.75-.28,1.59-1.28,7.28-1.56,8.88-.98,5.58,14.39,12.94,34.33,16.44,19.94,3.5,36.9,1.83,37.88-3.75.28-1.59,1.28-7.28,1.56-8.88Z"/><path class="cls-5" d="M522.75,297.18c3.39,4.43,9.01,6.43,14.36,8.01,12.88,3.82,26.09,6.54,39.43,8.14,6.36.76,13.62.99,18.26-3.42"/><path class="cls-8" d="M553.03,711.4c-18.59,15.24-30.35,33.48-36.99,46.22-5.08,9.75-15.2,15.82-26.2,15.82h-3.44l-10.1,106.37h23.33l5.77-20.16,9.48,20.16h60.76c2.98,0,4.8-3.27,3.23-5.81l-4.19-6.75c-5.72-9.22-7.88-20.22-6.06-30.92l17.95-105.69c3.21-18.89-18.73-31.39-33.55-19.25Z"/><path class="cls-3" d="M481.7,852.58c19.46-1.61,39.37,9.55,48.16,27"/><path class="cls-3" d="M580.3,759.57c-11.17.36-22.34.71-33.52,1.07,10.02,3.29,20.55,7.59,30.57,10.88-10.19,1.1-21.41,1.01-31.6,2.11,10.35,4.78,20.27,10.85,30.62,15.63-9.04,1.79-18.13,4.43-27.17,6.22,7.99,2.05,16.14,4.38,24.13,6.43-11.13.88-22.26,1.75-33.39,2.63,10.61,3.61,21.22,7.22,31.82,10.83"/><path class="cls-8" d="M409.34,769.16c-13.54-1.78-24.65-11.5-28.38-24.64-2.92-10.3-7.02-22.63-12.2-33.06-6.1-12.29-24.43-8.96-25.68,4.7l-8.31,90.88c-2.31,25.23-16.24,47.95-37.68,61.45l-9.74,6.13c-2.78,1.75-1.54,6.05,1.75,6.05h62.81l21.74-24.28,1.94,24.28h29.57l26.53-108.57-22.35-2.95Z"/><path class="cls-3" d="M344.29,876.59c6.33-10.28,15.95-18.5,27.09-23.15,11.14-4.65,23.76-5.7,35.51-2.96"/><path class="cls-3" d="M341.04,756.02c9.03,2.26,18.06,4.53,27.09,6.79-9.76,1.77-19.51,3.54-29.27,5.31,9.14,3.1,18.27,6.2,27.41,9.3-9.85,1.42-19.7,2.84-29.55,4.26,9.52,2.65,19.04,5.3,28.56,7.95-9.68.71-19.37,1.42-29.05,2.13,9.96,2.25,19.93,4.5,29.89,6.75-11.22,1.46-22.44,2.92-33.67,4.39,7.34,1.55,14.67,3.1,22.01,4.65-6.45,1.54-12.91,3.07-19.36,4.61"/><path class="cls-10" d="M738.14,387.44l-2.53-10.17c15.68-3.9,29.07-17.61,34.1-34.92,4.56-15.69,2.69-33.97-5.29-51.47l9.53-4.34c9.01,19.77,11.07,40.63,5.81,58.73-6.05,20.82-22.39,37.37-41.63,42.16Z"/><path class="cls-1" d="M768.26,309.84c.38-2.86-.71-5.88-2.83-7.84,2.73-4.18,1.86-10.11-1.27-14.01l-41.99-5.25c-7.27,10.24-14.54,20.48-21.8,30.73-6.65,9.36-11.04,20.72-7.67,31.7,4.97,16.2,20.38,27.62,37.21,29.59,9.97-9.5,20.45-18.49,30.42-27.99,4.11-3.91,5-10.75,2.62-15.9,2.4-1.28,3.56-4.34,3.78-7.05.22-2.71-1.02-5.5-3.18-7.15,2.56-1.33,4.33-3.97,4.72-6.83Z"/><path class="cls-4" d="M730.46,287.32c-1.75,1.6-2.63,4.09-2.26,6.43.37,2.34,1.97,4.45,4.12,5.43-2.52,1.3-4.74,4.05-4.8,6.88s1.55,5.64,4.02,7.03c-2.78,1.32-5.06,3.66-5.14,6.73-.08,3.07,1.68,6.12,4.38,7.59-1.87,1.05-2.87,3.61-2.74,5.75.13,2.14,1.56,4.15,3.54,4.98"/><path class="cls-4" d="M732.65,298.8c8.29,1.13,16.58,2.26,24.87,3.39"/><path class="cls-4" d="M731.61,313.26c7.72,1.48,15.44,2.96,23.17,4.44"/><path class="cls-4" d="M730.9,327.37c7.4.63,14.81,1.26,22.21,1.9"/><path class="cls-4" d="M750.61,341.96c.74,1.15,1.48,2.3,2.22,3.45"/><path class="cls-6" d="M740.32,282.26l33.13-222.12h0c3.86,9.4,5.32,19.61,4.25,29.72l-20.55,194.62-16.83-2.21Z"/><line class="cls-5" x1="773.41" y1="99.2" x2="752.83" y2="279.82"/><polygon class="cls-10" points="703.32 283.94 708.96 275.03 791 286.27 793.63 295.25 703.32 283.94"/><polygon class="cls-8" points="732.24 337.72 750.73 341.38 744.9 394.97 723.46 391.44 732.24 337.72"/><circle class="cls-8" cx="734.47" cy="392.38" r="15.59"/><path class="cls-5" d="M723.49,391.47c-.61-4.6,3.51-9.24,8.15-9.18"/></svg>