<?xml version="1.0" encoding="UTF-8"?><svg id="Layer_1" xmlns="http://www.w3.org/2000/svg" viewBox="0 0 1000 1000"><defs><style>.cls-1{fill:#b69cdc;}.cls-2,.cls-3{fill:#f9cad0;}.cls-4{fill:#5fac02;}.cls-5{fill:#0074cb;}.cls-6,.cls-7{opacity:.69;}.cls-6,.cls-8{fill:#353148;}.cls-9{fill:#32294f;}.cls-10{opacity:.51;}.cls-10,.cls-11{fill:#ff8970;}.cls-12{fill:#ff7000;}.cls-13{fill:#f7c9bf;}.cls-14{fill:#d4d8df;}.cls-15{opacity:.54;}.cls-15,.cls-16,.cls-7,.cls-17{fill:#fff;}.cls-16,.cls-3{opacity:.43;}.cls-18{opacity:.46;}.cls-18,.cls-19{fill:#ff8e77;}.cls-19{opacity:.36;}.cls-20{fill:#9eabba;}.cls-21{fill:#ea5961;}.cls-22{fill:#929ba5;}.cls-23{fill:#ffb800;}.cls-24{opacity:.28;}.cls-24,.cls-25{fill:#b3becc;}.cls-26{opacity:.61;}.cls-27{opacity:.5;}.cls-28,.cls-29{fill:#708cf5;}.cls-30{fill:#5574d8;}.cls-31{fill:#ef7f6f;}.cls-32{fill:#8bd000;}.cls-29{opacity:.15;}.cls-33{fill:#a3443a;}</style></defs><rect class="cls-12" x="465.72" y="280.66" width="97.5" height="86.18" rx="2.15" ry="2.15"/><path class="cls-17" d="M480.91,294.78c-.19,0-.38-.07-.53-.22l-6.76-6.76c-.29-.29-.29-.77,0-1.06s.77-.29,1.06,0l6.76,6.76c.29.29.29.77,0,1.06-.15.15-.34.22-.53.22Z"/><path class="cls-17" d="M474.15,294.78c-.19,0-.38-.07-.53-.22-.29-.29-.29-.77,0-1.06l6.76-6.76c.29-.29.77-.29,1.06,0s.29.77,0,1.06l-6.76,6.76c-.15.15-.34.22-.53.22Z"/><path class="cls-17" d="M519.65,310.89h-30.6c-.42,0-.75-.34-.75-.75s.34-.75.75-.75h30.6c.42,0,.75.34.75.75s-.34.75-.75.75Z"/><path class="cls-17" d="M554.88,310.89h-27.28c-.42,0-.75-.34-.75-.75s.34-.75.75-.75h27.28c.42,0,.75.34.75.75s-.34.75-.75.75Z"/><path class="cls-17" d="M516.33,338.11h-27.27c-.42,0-.75-.34-.75-.75s.34-.75.75-.75h27.27c.42,0,.75.34.75.75s-.34.75-.75.75Z"/><path class="cls-17" d="M542.14,323.73h-27.27c-.41,0-.75-.34-.75-.75s.34-.75.75-.75h27.27c.42,0,.75.34.75.75s-.34.75-.75.75Z"/><path class="cls-17" d="M506.96,323.73h-17.91c-.42,0-.75-.34-.75-.75s.34-.75.75-.75h17.91c.42,0,.75.34.75.75s-.34.75-.75.75Z"/><path class="cls-17" d="M535.72,338.11h-11.01c-.41,0-.75-.34-.75-.75s.34-.75.75-.75h11.01c.42,0,.75.34.75.75s-.34.75-.75.75Z"/><circle class="cls-32" cx="580.54" cy="349.26" r="35.36" transform="translate(-96.92 357.37) rotate(-31.72)"/><path class="cls-16" d="M606.98,346.93l-5-2.8c-.91-.51-1.92-.69-2.89-.51l-28.88,5.38-12.75-8.95-3.89.73,4.47,10.49-1.08.2c-1.41.26-1.5,1.7-.14,2.37.5.25,1.12.46,1.78.66l-1.25.91,2.77-.52c3.71.82,8.83,1.13,13.45,1.08l-2.64,2.15c-.16.13-.03.39.17.34l7.09-1.32c2.14-.4,4.22-1.03,6.24-1.85.2.92,1.09,1.52,2.01,1.35l2.41-.45c.41-.08.68-.47.6-.89l-.23-1.24,15.96-2.97c1.42-.26,2.38-1.68,2.33-3.3-.01-.37-.23-.7-.52-.87Z"/><circle class="cls-23" cx="594.45" cy="316.07" r="15.65"/><path class="cls-17" d="M602.4,316.82h-15.9c-.41,0-.75-.34-.75-.75s.34-.75.75-.75h15.9c.42,0,.75.34.75.75s-.34.75-.75.75Z"/><path class="cls-17" d="M594.45,324.78c-.42,0-.75-.34-.75-.75v-15.9c0-.42.34-.75.75-.75s.75.34.75.75v15.9c0,.41-.34.75-.75.75Z"/><path class="cls-6" d="M435.88,365.01l-41.86-39.27-48.5,37.61c-.33.25-.8.2-1.05-.13-.25-.33-.19-.8.13-1.05l49.52-38.4,41.72,39.14,37.49-38.67c.29-.3.77-.31,1.06-.02.3.29.31.76.02,1.06l-38.52,39.73Z"/><path class="cls-5" d="M463.45,324.75c0,5.75,4.66,10.41,10.41,10.41s10.41-4.66,10.41-10.41-4.66-10.41-10.41-10.41-10.41,4.66-10.41,10.41Z"/><path class="cls-12" d="M383.66,324.75c0,5.75,4.66,10.41,10.41,10.41s10.41-4.66,10.41-10.41-4.66-10.41-10.41-10.41-10.41,4.66-10.41,10.41Z"/><path class="cls-17" d="M394.07,329.99c-2.88,0-5.23-2.35-5.23-5.23s2.35-5.23,5.23-5.23,5.23,2.35,5.23,5.23-2.35,5.23-5.23,5.23ZM394.07,321.02c-2.06,0-3.73,1.67-3.73,3.73s1.67,3.73,3.73,3.73,3.73-1.67,3.73-3.73-1.67-3.73-3.73-3.73Z"/><circle class="cls-23" cx="435.85" cy="362.76" r="10.41"/><circle class="cls-23" cx="345.06" cy="362.76" r="10.41"/><path class="cls-17" d="M345.06,368.19c-2.88,0-5.23-2.35-5.23-5.23s2.35-5.23,5.23-5.23,5.23,2.35,5.23,5.23-2.35,5.23-5.23,5.23ZM345.06,359.22c-2.06,0-3.73,1.67-3.73,3.73s1.67,3.73,3.73,3.73,3.73-1.67,3.73-3.73-1.67-3.73-3.73-3.73Z"/><path class="cls-17" d="M204.63,463.24l-108.36-.17c-2.77,0-5-1.73-5-3.85l.1-64.68v-7.28c.01-2.12,2.26-3.84,5.02-3.84l108.36.17c2.77,0,5,1.73,5,3.85l-.11,71.95c0,2.12-2.25,3.84-5.01,3.84Z"/><path class="cls-23" d="M91.36,398.58l.02-11.31c0-2.12,2.25-3.84,5.01-3.84l108.36.17c2.77,0,5,1.73,5,3.85l-.02,10.82"/><path class="cls-17" d="M99.92,394.04h0c-1.44,0-2.61-1.18-2.61-2.61,0-1.44,1.18-2.61,2.61-2.61h0c1.44,0,2.61,1.18,2.61,2.62,0,.7-.27,1.35-.77,1.85-.49.49-1.15.76-1.84.76ZM99.92,390.31c-.61,0-1.11.5-1.11,1.11,0,.61.5,1.11,1.11,1.11h0c.3,0,.57-.12.78-.32.21-.21.33-.49.33-.78h.75s-.75,0-.75,0c0-.3-.11-.58-.32-.79-.21-.21-.49-.33-.78-.33h0Z"/><path class="cls-17" d="M106.9,394.05c-.74-.04-1.36-.27-1.85-.77-.49-.49-.76-1.15-.76-1.85,0-.7.27-1.35.77-1.85.49-.49,1.18-.74,1.85-.76.7,0,1.35.27,1.84.77.49.49.76,1.15.76,1.85h-.75s.75,0,.75,0c0,1.44-1.17,2.61-2.61,2.61ZM106.9,390.33c-.3,0-.57.12-.78.32-.21.21-.33.49-.33.78s.11.58.32.79c.21.21.49.33.78.33h0c.3,0,.57-.12.78-.32.21-.21.33-.49.33-.78s-.11-.58-.32-.79c-.21-.21-.49-.33-.78-.33h0Z"/><path class="cls-17" d="M113.75,394.06h0c-1.44,0-2.61-1.18-2.61-2.62,0-1.44,1.17-2.61,2.61-2.61h0c1.44,0,2.61,1.18,2.61,2.62,0,1.44-1.17,2.61-2.61,2.61ZM113.75,390.34c-.3,0-.57.12-.78.32-.21.21-.33.49-.33.78,0,.61.5,1.11,1.11,1.11h0c.61,0,1.11-.5,1.11-1.11h.75s-.75,0-.75,0c0-.3-.11-.58-.32-.79-.21-.21-.49-.33-.78-.33h0Z"/><path class="cls-12" d="M193.73,418.87h0l-47.46-.07c-.42,0-.75-.34-.75-.75s.34-.75.75-.75h0l47.46.07c.41,0,.75.34.75.75s-.34.75-.75.75Z"/><path class="cls-12" d="M160.04,426.55h0l-13.79-.03c-.42,0-.75-.34-.75-.75,0-.41.34-.75.75-.75h0l13.79.03c.42,0,.75.34.75.75,0,.41-.34.75-.75.75Z"/><path class="cls-12" d="M193.71,426.6h0l-30.34-.03c-.42,0-.75-.34-.75-.75s.34-.75.75-.75h0l30.34.03c.41,0,.75.34.75.75s-.34.75-.75.75Z"/><path class="cls-12" d="M176.61,436.29h0l-30.34-.03c-.42,0-.75-.34-.75-.75s.34-.75.75-.75h0l30.34.03c.42,0,.75.34.75.75s-.34.75-.75.75Z"/><path class="cls-12" d="M121.4,427.82v-18.12c-10.01,0-18.12,8.11-18.12,18.12s8.11,18.12,18.12,18.12,18.12-8.11,18.12-18.12h-18.12Z"/><path class="cls-23" d="M138.88,425.82c0-8.55-6.93-15.48-15.48-15.48v15.48h15.48Z"/><path class="cls-17" d="M281.82,407.2l-107.08-.57c-7.67-.04-13.9-5.82-13.93-12.92l-.24-77.42,134.85.71.24,77.42c.02,7.09-6.18,12.81-13.84,12.77Z"/><path class="cls-23" d="M172.31,291.8h111.39c6.48,0,11.73,5.26,11.73,11.73v13.3h-134.85v-13.3c0-6.48,5.26-11.73,11.73-11.73Z"/><path class="cls-12" d="M281.63,301.44c0,2.67-2.11,4.82-4.7,4.82-2.6,0-4.7-2.16-4.7-4.83,0-2.67,2.11-4.82,4.7-4.82,2.6,0,4.7,2.16,4.7,4.83Z"/><path class="cls-8" d="M276.73,286.45h.4c1.14,0,2.07.93,2.07,2.07v11.64c0,1.14-.93,2.07-2.07,2.07h-.4c-1.14,0-2.07-.93-2.07-2.07v-11.64c0-1.14.93-2.07,2.07-2.07Z"/><path class="cls-12" d="M183.19,301.36c0,2.67-2.11,4.82-4.7,4.82-2.6,0-4.7-2.16-4.7-4.83,0-2.67,2.11-4.82,4.7-4.82,2.6,0,4.7,2.16,4.7,4.83Z"/><path class="cls-8" d="M178.29,286.38h.4c1.14,0,2.07.93,2.07,2.07v11.64c0,1.14-.93,2.07-2.07,2.07h-.4c-1.14,0-2.07-.93-2.07-2.07v-11.64c0-1.14.93-2.07,2.07-2.07Z" transform="translate(.33 -.2) rotate(.06)"/><path class="cls-12" d="M208.17,301.38c0,2.67-2.11,4.82-4.7,4.82-2.6,0-4.7-2.16-4.7-4.83s2.11-4.82,4.7-4.82c2.6,0,4.7,2.16,4.7,4.83Z"/><path class="cls-8" d="M203.27,286.4h.4c1.14,0,2.07.93,2.07,2.07v11.64c0,1.14-.93,2.07-2.07,2.07h-.4c-1.14,0-2.07-.93-2.07-2.07v-11.64c0-1.14.93-2.07,2.07-2.07Z"/><path class="cls-12" d="M257.4,301.42c0,2.67-2.11,4.82-4.7,4.82-2.6,0-4.7-2.16-4.7-4.83,0-2.67,2.11-4.82,4.7-4.82,2.6,0,4.7,2.16,4.7,4.83Z"/><path class="cls-8" d="M252.5,286.44h.4c1.14,0,2.07.93,2.07,2.07v11.64c0,1.14-.93,2.07-2.07,2.07h-.4c-1.14,0-2.07-.93-2.07-2.07v-11.64c0-1.14.93-2.07,2.07-2.07Z" transform="translate(.33 -.28) rotate(.06)"/><rect class="cls-12" x="175.19" y="328.55" width="16.64" height="17.09"/><rect class="cls-5" x="219.3" y="328.55" width="16.64" height="17.09"/><rect class="cls-23" x="197.55" y="328.55" width="16.64" height="17.09"/><rect class="cls-12" x="241.86" y="328.55" width="16.64" height="17.09"/><rect class="cls-23" x="264.22" y="328.55" width="16.64" height="17.09"/><rect class="cls-12" x="175.19" y="372.73" width="16.64" height="17.09"/><rect class="cls-5" x="219.3" y="372.73" width="16.64" height="17.09"/><rect class="cls-23" x="197.55" y="372.73" width="16.64" height="17.09"/><rect class="cls-12" x="241.86" y="372.73" width="16.64" height="17.09"/><rect class="cls-23" x="264.22" y="372.73" width="16.64" height="17.09"/><rect class="cls-5" x="264.22" y="350.91" width="16.64" height="17.09" transform="translate(545.08 718.92) rotate(180)"/><rect class="cls-12" x="220.11" y="350.91" width="16.64" height="17.09" transform="translate(456.86 718.92) rotate(180)"/><rect class="cls-23" x="241.86" y="350.91" width="16.64" height="17.09" transform="translate(500.35 718.92) rotate(180)"/><rect class="cls-5" x="197.55" y="350.91" width="16.64" height="17.09" transform="translate(411.75 718.92) rotate(180)"/><path class="cls-17" d="M209.51,359.81c0,2.37-1.87,4.29-4.18,4.29s-4.18-1.92-4.18-4.29,1.87-4.29,4.18-4.29,4.18,1.92,4.18,4.29Z"/><rect class="cls-23" x="175.19" y="350.91" width="16.64" height="17.09" transform="translate(367.03 718.92) rotate(180)"/><circle class="cls-32" cx="299.23" cy="411.63" r="41.11" transform="translate(-209.09 387.46) rotate(-51.26)"/><circle class="cls-17" cx="299.23" cy="411.63" r="33.55" transform="translate(-150.28 650.2) rotate(-81.94)"/><path class="cls-1" d="M298.97,385.66h0c-.5,0-.91-.4-.91-.9l-.03-4.3c0-.5.4-.91.9-.91h0c.5,0,.91.4.91.9l.03,4.3c0,.5-.4.91-.9.91Z"/><path class="cls-1" d="M299.55,443.71h0c-.5,0-.91-.4-.91-.9l-.03-4.3c0-.5.4-.91.9-.91h0c.5,0,.91.4.91.9l.03,4.3c0,.5-.4.91-.9.91Z"/><path class="cls-1" d="M325.2,411.37h0c0-.5.4-.91.9-.91l4.3-.03c.5,0,.91.4.91.9h0c0,.5-.4.91-.9.91l-4.3.03c-.5,0-.91-.4-.91-.9Z"/><path class="cls-1" d="M267.16,411.94h0c0-.5.4-.91.9-.91l4.3-.03c.5,0,.91.4.91.9h0c0,.5-.4.91-.9.91l-4.3.03c-.5,0-.91-.4-.91-.9Z"/><path class="cls-1" d="M318.22,392.26h0c-.36-.35-.36-.92-.01-1.28l1.54-1.56c.35-.36.92-.36,1.28-.01h0c.36.35.36.92.01,1.28l-1.54,1.56c-.35.36-.92.36-1.28.01Z"/><path class="cls-1" d="M277.41,433.88h0c-.36-.35-.36-.92-.01-1.28l1.9-1.93c.35-.36.92-.36,1.28-.01h0c.36.35.36.92.01,1.28l-1.9,1.93c-.35.36-.92.36-1.28.01Z"/><path class="cls-1" d="M318.61,430.64h0c.35-.36.92-.36,1.28-.01l1.56,1.54c.36.35.36.92.01,1.28h0c-.35.36-.92.36-1.28.01l-1.56-1.54c-.36-.35-.36-.92-.01-1.28Z"/><path class="cls-1" d="M276.98,389.83h0c.35-.36.92-.36,1.28-.01l1.93,1.9c.36.35.36.92.01,1.28h0c-.35.36-.92.36-1.28.01l-1.93-1.9c-.36-.35-.36-.92-.01-1.28Z"/><path class="cls-1" d="M299.37,411.42h0c-.39.39-1.02.4-1.41,0l-12.34-12.19c-.39-.39-.4-1.02,0-1.41h0c.39-.39,1.02-.4,1.41,0l12.34,12.19c.39.39.4,1.02,0,1.41Z"/><path class="cls-1" d="M299.2,412.66h0c-.39-.39-.4-1.02,0-1.41l10.19-10.31c.39-.39,1.02-.4,1.41,0h0c.39.39.4,1.02,0,1.41l-10.19,10.31c-.39.39-1.02.4-1.41,0Z"/><path class="cls-5" d="M302.86,411.6c.02,2-1.59,3.64-3.59,3.65-2,.02-3.64-1.59-3.65-3.59-.02-2,1.59-3.64,3.59-3.65,2-.02,3.64,1.59,3.65,3.59Z"/><path class="cls-30" d="M226.27,441.84h-3.76c-1.11-11.41-10.79-20.41-22.48-20.41s-21.37,9-22.48,20.41h-3.76c-8.82,0-16.03,7.22-16.03,16.03s7.22,16.03,16.03,16.03h52.47c8.82,0,16.03-7.22,16.03-16.03s-7.22-16.03-16.03-16.03Z"/><path class="cls-5" d="M226.27,439.04h-3.76c-1.11-11.41-10.79-20.41-22.48-20.41s-21.37,9-22.48,20.41h-3.76c-8.82,0-16.03,7.22-16.03,16.03s7.22,16.03,16.03,16.03h52.47c8.82,0,16.03-7.22,16.03-16.03s-7.22-16.03-16.03-16.03Z"/><path class="cls-17" d="M200.03,489.09c-1.24,0-2.25-1.01-2.25-2.25v-33.53c0-1.24,1.01-2.25,2.25-2.25s2.25,1.01,2.25,2.25v33.53c0,1.24-1.01,2.25-2.25,2.25Z"/><path class="cls-17" d="M194.2,460.67c-.49,0-.99-.16-1.4-.49-.97-.78-1.13-2.19-.35-3.17l7.59-9.49,7.59,9.49c.78.97.62,2.39-.35,3.17-.97.78-2.39.62-3.17-.35l-4.07-5.09-4.07,5.09c-.44.56-1.1.85-1.76.85Z"/><circle class="cls-12" cx="325.5" cy="497.96" r="26.88"/><path class="cls-17" d="M339.16,499.46h-27.31c-.83,0-1.5-.67-1.5-1.5s.67-1.5,1.5-1.5h27.31c.83,0,1.5.67,1.5,1.5s-.67,1.5-1.5,1.5Z"/><path class="cls-17" d="M325.5,513.12c-.83,0-1.5-.67-1.5-1.5v-27.31c0-.83.67-1.5,1.5-1.5s1.5.67,1.5,1.5v27.31c0,.83-.67,1.5-1.5,1.5Z"/><rect class="cls-17" x="652.39" y="296.41" width="119.42" height="164.57" rx="6.12" ry="6.12"/><rect class="cls-23" x="666" y="427.48" width="94.82" height="17.31" rx="2.26" ry="2.26"/><path class="cls-17" d="M750.62,439.02h-28.15c-.42,0-.75-.34-.75-.75s.34-.75.75-.75h28.15c.42,0,.75.34.75.75s-.34.75-.75.75Z"/><path class="cls-17" d="M718.43,439.02h-11.73c-.42,0-.75-.34-.75-.75s.34-.75.75-.75h11.73c.42,0,.75.34.75.75s-.34.75-.75.75Z"/><path class="cls-17" d="M718.43,433.39h-11.73c-.42,0-.75-.34-.75-.75s.34-.75.75-.75h11.73c.42,0,.75.34.75.75s-.34.75-.75.75Z"/><path class="cls-32" d="M672.3,435.77c0-2.24,1.81-4.05,4.05-4.05s4.05,1.81,4.05,4.05-1.81,4.05-4.05,4.05-4.05-1.81-4.05-4.05Z"/><rect class="cls-12" x="666" y="399.85" width="94.82" height="17.31" rx="2.26" ry="2.26"/><path class="cls-3" d="M746.57,408.51c0-2.24,1.81-4.05,4.05-4.05s4.05,1.81,4.05,4.05-1.81,4.05-4.05,4.05-4.05-1.81-4.05-4.05Z"/><rect class="cls-23" x="666" y="370.13" width="94.82" height="17.31" rx="2.26" ry="2.26"/><path class="cls-17" d="M704.34,377.4h-28.15c-.41,0-.75-.34-.75-.75s.34-.75.75-.75h28.15c.42,0,.75.34.75.75s-.34.75-.75.75Z"/><path class="cls-17" d="M720.11,377.4h-11.73c-.41,0-.75-.34-.75-.75s.34-.75.75-.75h11.73c.41,0,.75.34.75.75s-.34.75-.75.75Z"/><path class="cls-17" d="M720.11,383.04h-11.73c-.41,0-.75-.34-.75-.75s.34-.75.75-.75h11.73c.41,0,.75.34.75.75s-.34.75-.75.75Z"/><path class="cls-28" d="M754.5,379.16c0,2.24-1.81,4.05-4.05,4.05s-4.05-1.81-4.05-4.05,1.81-4.05,4.05-4.05,4.05,1.81,4.05,4.05Z"/><rect class="cls-23" x="666" y="314.04" width="94.82" height="17.31" rx="2.26" ry="2.26"/><path class="cls-17" d="M750.62,325.58h-28.15c-.42,0-.75-.34-.75-.75s.34-.75.75-.75h28.15c.42,0,.75.34.75.75s-.34.75-.75.75Z"/><path class="cls-17" d="M718.43,325.58h-11.73c-.42,0-.75-.34-.75-.75s.34-.75.75-.75h11.73c.42,0,.75.34.75.75s-.34.75-.75.75Z"/><path class="cls-17" d="M718.43,319.94h-11.73c-.42,0-.75-.34-.75-.75s.34-.75.75-.75h11.73c.42,0,.75.34.75.75s-.34.75-.75.75Z"/><path class="cls-32" d="M670.41,322.69c0-3.28,2.66-5.94,5.94-5.94s5.94,2.66,5.94,5.94-2.66,5.94-5.94,5.94-5.94-2.66-5.94-5.94Z"/><rect class="cls-12" x="666" y="343.76" width="94.82" height="17.31" rx="2.26" ry="2.26"/><path class="cls-23" d="M744.68,351.83c0-3.28,2.66-5.94,5.94-5.94s5.94,2.66,5.94,5.94-2.66,5.94-5.94,5.94-5.94-2.66-5.94-5.94Z"/><path class="cls-17" d="M750.75,354.06l-2.77-1.59c-.36-.21-.48-.67-.28-1.03.21-.36.67-.48,1.03-.28l1.77,1.02,5.54-5.54c.29-.29.77-.29,1.06,0s.29.77,0,1.06l-6.35,6.35Z"/><path class="cls-23" d="M704.49,239.89h10.24c2.72,0,4.94,2.21,4.94,4.94v109.26c0,2.86-2.33,5.19-5.19,5.19h-9.99v-119.39h0Z" transform="translate(415.76 1013.03) rotate(-90.26)"/><path class="cls-17" d="M757.03,297.61c-.21,0-.37-.17-.38-.37,0-.21.17-.38.37-.38l8.95-.04h0c.21,0,.37.17.38.37,0,.21-.17.38-.37.38l-8.95.04h0Z"/><path class="cls-17" d="M757.04,299.9c-.21,0-.37-.17-.38-.37s.17-.38.37-.38l8.95-.04h0c.21,0,.37.17.38.37s-.17.38-.37.38l-8.95.04h0Z"/><path class="cls-17" d="M757.05,302.19c-.21,0-.37-.17-.38-.37,0-.21.17-.38.37-.38l8.95-.04h0c.21,0,.37.17.38.37,0,.21-.17.38-.37.38l-8.95.04h0Z"/><path class="cls-17" d="M663.08,304.41c-.19,0-.38-.07-.53-.22l-3.27-3.24c-.19-.19-.3-.45-.31-.73s.1-.54.3-.73l3.11-3.14c.29-.29.77-.3,1.06,0,.29.29.3.77,0,1.06l-2.78,2.81,2.93,2.91c.29.29.3.77,0,1.06-.15.15-.34.22-.53.22ZM660.34,299.89h0s0,0,0,0Z"/><rect class="cls-32" x="737.96" y="373.6" width="111.86" height="60.3" rx="2.15" ry="2.15"/><path class="cls-17" d="M775.69,394.97h-21.41c-.42,0-.75-.34-.75-.75s.34-.75.75-.75h21.41c.42,0,.75.34.75.75s-.34.75-.75.75Z"/><path class="cls-17" d="M791.43,394.97h-10.17c-.42,0-.75-.34-.75-.75s.34-.75.75-.75h10.17c.42,0,.75.34.75.75s-.34.75-.75.75Z"/><path class="cls-17" d="M773.37,414.02h-19.08c-.42,0-.75-.34-.75-.75s.34-.75.75-.75h19.08c.42,0,.75.34.75.75s-.34.75-.75.75Z"/><path class="cls-17" d="M791.43,403.96h-19.08c-.42,0-.75-.34-.75-.75s.34-.75.75-.75h19.08c.42,0,.75.34.75.75s-.34.75-.75.75Z"/><path class="cls-17" d="M766.81,403.96h-12.53c-.42,0-.75-.34-.75-.75s.34-.75.75-.75h12.53c.42,0,.75.34.75.75s-.34.75-.75.75Z"/><path class="cls-17" d="M786.94,414.02h-7.7c-.42,0-.75-.34-.75-.75s.34-.75.75-.75h7.7c.41,0,.75.34.75.75s-.34.75-.75.75Z"/><path class="cls-15" d="M803.46,383.75h34.78c1.14,0,2.07.93,2.07,2.07v34.78c0,1.14-.93,2.07-2.07,2.07h-34.78c-1.14,0-2.07-.93-2.07-2.07v-34.78c0-1.14.93-2.07,2.07-2.07Z"/><path class="cls-17" d="M817.77,402.11l2.8,1.47c.17.09.37.09.53,0l12.44-7.3.94-.55c.07-.04.14-.06.21-.08v-1.73c0-.59-.48-1.07-1.07-1.07l-25.53-.02c-.59,0-1.07.48-1.07,1.07v2.74s.67.34.67.34l10.08,5.13Z"/><polygon class="cls-17" points="807.02 397.98 807.01 411.18 816.91 403.01 807.02 397.98"/><polygon class="cls-17" points="834.67 411.28 834.68 396.98 824.67 402.86 834.67 411.28"/><path class="cls-17" d="M833.98,412.26l-10.4-8.75-1.88,1.11c-.27.15-.57.23-.87.23-.28,0-.56-.07-.81-.2l-1.97-1.04s-.06.07-.09.1l-10.34,8.53c-.11.09-.25.14-.38.14-.08,0-.15-.02-.22-.05v.17c0,.59.48,1.07,1.07,1.07l25.53.02c.59,0,1.07-.48,1.07-1.07v-.22c-.09.06-.2.09-.31.09-.14,0-.27-.05-.38-.14Z"/><rect class="cls-12" x="743.05" y="252.13" width="80.55" height="80.55" rx="3.83" ry="3.83"/><path class="cls-17" d="M813.48,272.59h-22.05c-.42,0-.75-.34-.75-.75s.34-.75.75-.75h22.05c.41,0,.75.34.75.75s-.34.75-.75.75Z"/><path class="cls-17" d="M813.48,281.7h-22.05c-.42,0-.75-.34-.75-.75s.34-.75.75-.75h22.05c.41,0,.75.34.75.75s-.34.75-.75.75Z"/><path class="cls-17" d="M813.48,290.81h-22.05c-.42,0-.75-.34-.75-.75s.34-.75.75-.75h22.05c.41,0,.75.34.75.75s-.34.75-.75.75Z"/><circle class="cls-15" cx="768.3" cy="280.21" r="16.33" transform="translate(319.08 963.58) rotate(-76.72)"/><path class="cls-17" d="M772.43,276.92c0,2.29-1.86,4.15-4.15,4.15s-4.15-1.86-4.15-4.15,1.86-4.15,4.15-4.15,4.15,1.86,4.15,4.15Z"/><path class="cls-17" d="M773.9,288.82h-11.24c-.87,0-1.57-.7-1.57-1.57h0c0-3.22,2.61-5.84,5.84-5.84h3.45c2.82,0,5.1,2.28,5.1,5.1v.73c0,.87-.7,1.57-1.57,1.57Z"/><path class="cls-15" d="M800.74,316.07h-27.85c-2.52,0-4.58-2.06-4.58-4.58h0c0-2.52,2.06-4.58,4.58-4.58h27.85c2.52,0,4.58,2.06,4.58,4.58h0c0,2.52-2.06,4.58-4.58,4.58Z"/><path class="cls-17" d="M676.48,324.92l-2.77-1.59c-.36-.21-.48-.67-.28-1.03.21-.36.67-.48,1.03-.28l1.77,1.02,5.54-5.54c.29-.29.77-.29,1.06,0s.29.77,0,1.06l-6.35,6.35Z"/><rect class="cls-32" x="105.93" y="504.43" width="153.58" height="49.33" rx="2.42" ry="2.42"/><path class="cls-7" d="M238.2,521.7h-78.58c-.42,0-.75-.34-.75-.75s.34-.75.75-.75h78.58c.41,0,.75.34.75.75s-.34.75-.75.75Z"/><path class="cls-7" d="M194.74,531.02h-35.11c-.42,0-.75-.34-.75-.75s.34-.75.75-.75h35.11c.41,0,.75.34.75.75s-.34.75-.75.75Z"/><path class="cls-7" d="M194.74,541.62h-35.11c-.42,0-.75-.34-.75-.75s.34-.75.75-.75h35.11c.41,0,.75.34.75.75s-.34.75-.75.75Z"/><path class="cls-7" d="M238.2,531.02h-35.11c-.42,0-.75-.34-.75-.75s.34-.75.75-.75h35.11c.41,0,.75.34.75.75s-.34.75-.75.75Z"/><path class="cls-17" d="M149.04,519.27l-28.3-.03c-.65,0-1.18.53-1.18,1.18v3.04s0,1.49,0,1.49v14.64s-.01,1.27-.01,1.27v.19c0,.65.53,1.18,1.18,1.18l28.3.03c.65,0,1.18-.53,1.19-1.18v-.24s0-1.14,0-1.14v-15.85s.02-1.48.02-1.48v-1.92c0-.65-.53-1.18-1.18-1.19Z"/><path class="cls-23" d="M131.47,529.54l3.1,1.63c.19.1.4.09.59,0l13.79-8.1,1.04-.61c.08-.04.16-.07.24-.08v-1.92c0-.65-.53-1.18-1.18-1.19l-28.3-.03c-.65,0-1.18.53-1.18,1.18v3.04s.74.38.74.38l11.17,5.69Z"/><polygon class="cls-23" points="119.55 524.96 119.53 539.6 130.51 530.54 119.55 524.96"/><polygon class="cls-23" points="150.2 539.71 150.22 523.86 139.12 530.38 150.2 539.71"/><path class="cls-23" d="M149.43,540.79l-11.53-9.7-2.09,1.23c-.3.17-.64.26-.97.26-.31,0-.62-.07-.9-.22l-2.19-1.15s-.06.08-.1.11l-11.46,9.46c-.12.1-.27.15-.42.15-.08,0-.17-.02-.25-.05v.19c0,.65.53,1.18,1.18,1.18l28.3.03c.65,0,1.18-.53,1.19-1.18v-.24c-.11.06-.22.1-.34.1-.15,0-.3-.05-.43-.16Z"/><rect class="cls-12" x="61.42" y="553.69" width="153.58" height="49.33" rx="2.42" ry="2.42"/><path class="cls-17" d="M85.97,578.24l3.3,1.74c.2.1.43.1.63,0l14.68-8.62,1.1-.65c.08-.05.17-.08.25-.09v-2.04c0-.7-.56-1.26-1.26-1.26l-30.13-.03c-.7,0-1.26.56-1.26,1.26v3.24s.79.41.79.41l11.89,6.06Z"/><polygon class="cls-17" points="73.27 573.36 73.26 588.95 84.94 579.31 73.27 573.36"/><polygon class="cls-17" points="105.92 589.06 105.93 572.19 94.11 579.13 105.92 589.06"/><path class="cls-17" d="M105.09,590.22l-12.27-10.33-2.22,1.31c-.32.18-.68.27-1.03.27-.33,0-.66-.08-.96-.24l-2.33-1.22s-.07.08-.11.12l-12.2,10.07c-.13.11-.29.16-.45.16-.09,0-.18-.02-.26-.05v.21c0,.7.56,1.26,1.26,1.26l30.13.03c.7,0,1.26-.56,1.26-1.26v-.26c-.11.07-.24.11-.37.11-.16,0-.32-.05-.45-.17Z"/><path class="cls-7" d="M193.69,570.97h-78.58c-.42,0-.75-.34-.75-.75s.34-.75.75-.75h78.58c.42,0,.75.34.75.75s-.34.75-.75.75Z"/><path class="cls-7" d="M150.22,580.29h-35.11c-.42,0-.75-.34-.75-.75s.34-.75.75-.75h35.11c.41,0,.75.34.75.75s-.34.75-.75.75Z"/><path class="cls-7" d="M150.22,590.89h-35.11c-.42,0-.75-.34-.75-.75s.34-.75.75-.75h35.11c.41,0,.75.34.75.75s-.34.75-.75.75Z"/><path class="cls-7" d="M193.69,580.29h-35.11c-.42,0-.75-.34-.75-.75s.34-.75.75-.75h35.11c.42,0,.75.34.75.75s-.34.75-.75.75Z"/><path class="cls-32" d="M168.35,634.65h29.8c.95,0,1.86.39,2.52,1.07l7.41,7.69c.86.9,2.38.29,2.38-.96v-40.95c0-4.13-3.35-7.47-7.47-7.47h-35.82c-3.36,0-6.08,2.72-6.08,6.08v27.26c0,4.01,3.25,7.27,7.27,7.27Z"/><circle class="cls-17" cx="197.29" cy="615.25" r="2.55"/><circle class="cls-17" cx="185.33" cy="615.25" r="2.55"/><circle class="cls-17" cx="173.09" cy="615.25" r="2.55"/><path class="cls-32" d="M821.42,676.21h79.64c4.23,0,7.66,3.47,7.66,7.75v42.45c0,1.29-1.55,1.92-2.44.99l-7.6-7.98c-.68-.71-1.61-1.11-2.59-1.11l-74.68-.09c-3.66,0-6.62-3-6.62-6.69v-28.63c0-3.7,2.96-6.69,6.62-6.69Z"/><path class="cls-17" d="M882.37,689.56h-18.87c-.41,0-.75-.34-.75-.75s.34-.75.75-.75h18.87c.42,0,.75.34.75.75s-.34.75-.75.75Z"/><path class="cls-17" d="M880.83,696.46h-20.27c-.41,0-.75-.34-.75-.75s.34-.75.75-.75h20.27c.41,0,.75.34.75.75s-.34.75-.75.75Z"/><path class="cls-17" d="M855.72,696.46h-30.52c-.42,0-.75-.34-.75-.75s.34-.75.75-.75h30.52c.42,0,.75.34.75.75s-.34.75-.75.75Z"/><path class="cls-17" d="M880.83,703.35h-32.28c-.42,0-.75-.34-.75-.75s.34-.75.75-.75h32.28c.41,0,.75.34.75.75s-.34.75-.75.75Z"/><path class="cls-12" d="M922.83,677.82h-22.43c-.72,0-1.4.29-1.9.81l-5.58,5.79c-.65.67-1.79.21-1.79-.72v-30.83c0-3.11,2.52-5.63,5.63-5.63h26.97c2.53,0,4.58,2.05,4.58,4.58v20.53c0,3.02-2.45,5.47-5.47,5.47Z"/><path class="cls-17" d="M902.96,663.21c0,1.06-.86,1.92-1.92,1.92s-1.92-.86-1.92-1.92.86-1.92,1.92-1.92,1.92.86,1.92,1.92Z"/><path class="cls-17" d="M911.96,663.21c0,1.06-.86,1.92-1.92,1.92s-1.92-.86-1.92-1.92.86-1.92,1.92-1.92,1.92.86,1.92,1.92Z"/><path class="cls-17" d="M921.18,663.21c0,1.06-.86,1.92-1.92,1.92s-1.92-.86-1.92-1.92.86-1.92,1.92-1.92,1.92.86,1.92,1.92Z"/><path class="cls-23" d="M830.12,354.88c-1.68,0-3.05-1.37-3.05-3.05s1.37-3.05,3.05-3.05,3.05,1.37,3.05,3.05-1.37,3.05-3.05,3.05ZM830.12,350.29c-.85,0-1.55.69-1.55,1.55s.69,1.55,1.55,1.55,1.55-.69,1.55-1.55-.69-1.55-1.55-1.55Z"/><path class="cls-23" d="M839.68,354.88c-1.68,0-3.05-1.37-3.05-3.05s1.37-3.05,3.05-3.05,3.05,1.37,3.05,3.05-1.37,3.05-3.05,3.05ZM839.68,350.29c-.85,0-1.55.69-1.55,1.55s.69,1.55,1.55,1.55,1.55-.69,1.55-1.55-.69-1.55-1.55-1.55Z"/><path class="cls-23" d="M848.5,354.88c-1.68,0-3.05-1.37-3.05-3.05s1.37-3.05,3.05-3.05,3.05,1.37,3.05,3.05-1.37,3.05-3.05,3.05ZM848.5,350.29c-.85,0-1.55.69-1.55,1.55s.69,1.55,1.55,1.55,1.55-.69,1.55-1.55-.69-1.55-1.55-1.55Z"/><path class="cls-23" d="M863.96,361.21h-49.46c-4.65,0-8.43-3.78-8.43-8.43v-.75c0-4.65,3.78-8.43,8.43-8.43h49.46c4.65,0,8.43,3.78,8.43,8.43v.75c0,4.65-3.78,8.43-8.43,8.43ZM814.5,344.73c-4.03,0-7.3,3.28-7.3,7.3v.75c0,4.03,3.28,7.3,7.3,7.3h49.46c4.03,0,7.3-3.28,7.3-7.3v-.75c0-4.03-3.28-7.3-7.3-7.3h-49.46Z"/><circle class="cls-23" cx="703.19" cy="513.18" r="23.93" transform="translate(42.18 1079.65) rotate(-76.72)"/><path class="cls-17" d="M711.09,514.87v-5.95c0-4.36-3.54-7.9-7.9-7.9s-7.9,3.54-7.9,7.9v5.95c-1.92.12-3.44,1.7-3.44,3.65s1.64,3.67,3.67,3.67h4.27c.14,1.76,1.6,3.16,3.4,3.16s3.26-1.39,3.4-3.16h4.27c2.03,0,3.67-1.64,3.67-3.67s-1.52-3.52-3.44-3.65Z"/><path class="cls-5" d="M921.84,505.87h-168.21c-9.25,0-16.74-7.5-16.74-16.74h0c0-9.25,7.5-16.74,16.74-16.74h168.21c9.25,0,16.74,7.5,16.74,16.74h0c0,9.25-7.5,16.74-16.74,16.74Z"/><rect class="cls-17" x="783.21" y="480.84" width="131.37" height="16.58" rx="8.29" ry="8.29"/><path class="cls-17" d="M759.92,493.47c-3.52,0-6.38-2.86-6.38-6.38s2.86-6.38,6.38-6.38,6.38,2.86,6.38,6.38c0,1.53-.55,3.01-1.55,4.16-1.21,1.41-2.98,2.22-4.84,2.22ZM759.92,482.21c-2.69,0-4.88,2.19-4.88,4.88s2.19,4.88,4.88,4.88c1.42,0,2.77-.62,3.7-1.7.76-.89,1.18-2.02,1.18-3.18,0-2.69-2.19-4.88-4.88-4.88Z"/><path class="cls-17" d="M770.43,497.56c-.19,0-.38-.07-.53-.22l-6.14-6.14c-.29-.29-.29-.77,0-1.06s.77-.29,1.06,0l6.14,6.14c.29.29.29.77,0,1.06-.15.15-.34.22-.53.22Z"/><path class="cls-23" d="M897.48,580.28v-33.86c-18.7,0-33.86,15.16-33.86,33.86s15.16,33.86,33.86,33.86,33.86-15.16,33.86-33.86h-33.86Z"/><path class="cls-32" d="M930.14,576.55c0-15.98-12.95-28.93-28.93-28.93v28.93h28.93Z"/><path class="cls-12" d="M862.2,436.35c0-8.36,6.78-15.14,15.14-15.14s15.14,6.78,15.14,15.14-6.78,15.14-15.14,15.14-15.14-6.78-15.14-15.14Z"/><path class="cls-17" d="M877.59,441.51l-6.78-3.9c-.72-.41-.97-1.33-.55-2.05.41-.72,1.33-.97,2.05-.55l4.79,2.75,14.33-14.33c.59-.59,1.54-.59,2.12,0s.59,1.54,0,2.12l-15.95,15.95Z"/><rect class="cls-8" x="164.36" y="691.43" width="33.73" height="7.74" transform="translate(-534.68 756.68) rotate(-80.29)"/><rect class="cls-5" x="154.61" y="728.72" width="40.68" height="6.5" transform="translate(-576.04 781) rotate(-80.29)"/><rect class="cls-8" x="144.31" y="680.18" width="7.74" height="33.73" transform="translate(-111.38 33.38) rotate(-9.36)"/><rect class="cls-5" x="150.98" y="713.42" width="6.5" height="40.68" transform="translate(-117.27 34.85) rotate(-9.36)"/><rect class="cls-8" x="159.34" y="675.47" width="8.01" height="33.73" transform="translate(-43.08 11.6) rotate(-3.59)"/><rect class="cls-17" x="162.32" y="709.12" width="6.72" height="40.68" transform="translate(-45.42 11.83) rotate(-3.6)"/><rect class="cls-23" x="137.71" y="720.02" width="53.19" height="89.86" rx="2.96" ry="2.96"/><path class="cls-12" d="M187.94,741.12h-47.27c-1.63,0-2.96-.31-2.96-.7v-19.71c0-.38,1.33-.7,2.96-.7h47.27c1.63,0,2.96.31,2.96.7v19.71c0,.38-1.33.7-2.96.7Z"/><path class="cls-12" d="M755.48,702.06s-38.38-110.15-38.67-110.95c-5.89-15.94-23.81-27.53-45.02-27.53h-92.73c-41.15,0-74.51,27.58-74.51,61.61l3.81,184.94h211.24l-.37-103.63,36.24-4.43Z"/><path class="cls-33" d="M634.62,448.51v-18.78c0-19.11-15.49-34.6-34.6-34.6h-27.32c-4.36-3.06-6.12-12.73-18.98-9.17-8.28,2.29-8.97,7.8-8.13,11.96.34,1.71-1.42,3.08-3,2.34-6.93-3.23-16.71-4.85-23.6,3.76-7,8.74,2.49,17.79,6.62,21.1-5.04,3.62-8.33,9.52-8.33,16.21,0,11.03,8.94,19.97,19.97,19.97,3.57,0,6.91-.95,9.81-2.59,1.24.23,2.51.36,3.82.36,6.05,0,11.47-2.59,15.27-6.71l40.12-1.32c2.57,4.03,5.69,8.11,9.22,11.03.76-.12,1.53-.2,2.33-.2h3.76c.58,6.23,5.82,11.12,12.21,11.12,6.77,0,12.26-5.49,12.26-12.26s-5.04-11.78-11.42-12.22Z"/><path class="cls-13" d="M634.62,462.1c-.82-.14-1.65-.23-2.51-.23h-14.31c-.79,0-1.57.08-2.33.2-9.86-8.17-16.62-25.37-16.62-25.37-1.98,7.15-14.79,9.61-28.99,10.03-3.25,7.27-10.52,12.34-19,12.34-4.29,0-8.28-1.3-11.59-3.53v52.83c0,17.51,14.2,31.71,31.71,31.71h1.53v27.52c0,14.47,11.73,26.19,26.19,26.19h2.7c14.47,0,26.19-11.73,26.19-26.19v-57.33c0-.32-.04-.63-.05-.95,0-.32.05-.63.05-.94v-15.1h4.51c8.24,0,14.93-6.68,14.93-14.93v-1.54c0-7.39-5.37-13.51-12.42-14.7Z"/><g class="cls-26"><path class="cls-18" d="M622.18,506.13c0,16.6-13.46,30.06-30.06,30.06h-22.78c-16.6,0-30.06-13.46-30.06-30.06v2.24c0,17.51,14.2,31.71,31.71,31.71h1.79c0,.17-.03.35-.03.52,0,8.32,6.75,15.07,15.07,15.07s15.07-6.75,15.07-15.07c0-.44-.03-.87-.07-1.3,14.18-3.16,24.79-15.79,24.79-30.93v-15.1h-5.42v12.86Z"/></g><path class="cls-2" d="M600.12,579.81l-15.64,18.9c-.76.92-1.83,1.34-2.89,1.35l3.81,9.53c5.7,14.26,26.01,13.91,31.21-.54l3.49-9.69c-.8-.13-1.57-.5-2.19-1.14l-17.8-18.4Z"/><polygon class="cls-2" points="600.5 579.46 599.66 579.39 600.12 579.81 600.5 579.46"/><path class="cls-17" d="M600.12,579.81l-.46-.43-27.47-25.25c-2.38-2.19-6.23-.73-6.58,2.48l-1.96,18.25,14.73,23.44c.74,1.17,1.97,1.75,3.22,1.75,1.07,0,2.13-.43,2.89-1.35l15.64-18.9Z"/><path class="cls-17" d="M633.57,551.98c-.5-1.25-2.1-1.61-3.08-.69l-30,28.17-.38.35,17.8,18.4c.62.64,1.39,1.01,2.19,1.14,1.39.23,2.87-.29,3.79-1.53l18.16-24.44-8.48-21.41Z"/><g class="cls-27"><path class="cls-13" d="M497.6,616.3l-10.92-19.36-61.34-72.2c-5.63-7.59-14.16-12.76-23.8-14.05l-22.91-3.07-11.07-.31c-3.28-.09-11.85-.01-12.61,5.73.28,5.28,7.92,5.18,10.81,5.3l15.7.62s-6.72,2.01-10.24,6.87c-2.56,3.53-2.42,8.35.13,11.89l.93,1.29.32-.54c1.98-3.35,5.07-5.9,8.74-7.2l4.21-1.48s-14.53,5.1-13.15,12.56c1.38,7.45,4.54,6.37,4.54,6.37,0,0,5.25-7.18,12.65-6.66,0,0-19.96,5.55-13.95,16.02,3.61,6.29,12.63,7.11,19.26,6.76h0s68.32,99.64,68.32,99.64c11.35,11.28,29.85,10.69,40.45-1.3l-6.07-46.89Z"/><path class="cls-11" d="M393.44,543.32c-1.29-.26-2.89-.27-4.33-.04-1.47.22-2.9.66-4.26,1.27-1.34.66-2.63,1.42-3.78,2.38-.61.44-1.12,1.01-1.68,1.5-.53.54-1.02,1.12-1.53,1.68l-.1.11c-.56.61-1.51.65-2.12.08-.61-.56-.65-1.51-.08-2.12,0,0,.02-.02.03-.03.6-.61,1.17-1.23,1.79-1.82.66-.54,1.26-1.15,1.97-1.64,1.36-1.05,2.88-1.88,4.45-2.58,1.6-.65,3.28-1.1,5-1.29,1.74-.18,3.41-.17,5.26.28.62.15.99.77.84,1.39-.15.6-.74.97-1.34.85l-.12-.02Z"/><path class="cls-11" d="M387.34,530.44c-1.38.06-2.93.45-4.3,1.03-1.39.58-2.69,1.36-3.86,2.29-1.15.97-2.22,2.03-3.11,3.25-.48.58-.84,1.25-1.27,1.87-.38.65-.72,1.34-1.08,2l-.07.13c-.4.73-1.31.99-2.04.59s-.99-1.31-.59-2.04c.01-.02.03-.05.04-.08.45-.72.88-1.45,1.35-2.16.53-.67.98-1.39,1.57-2.02,1.1-1.31,2.4-2.45,3.77-3.46,1.41-.98,2.95-1.77,4.57-2.32,1.64-.55,3.27-.89,5.1-.85.49.01.88.42.86.9-.01.47-.38.84-.84.86h-.1Z"/></g><g class="cls-27"><path class="cls-13" d="M431.11,484.24c-.83-7.35-2.66-14.59-2.67-22.03,0-2.72.26-5.55,1.6-7.92,1.69-3,4.87-4.87,8.1-6.08,5.69-2.14,12.86-3.04,16.75-8.28.04-.05.07-.1.11-.14,2.43-3.16,6.88-3.94,10.33-1.96l21.82,12.56c10.38,9.01,14.62,20.43,14.62,20.43l8.56,18.27,24.24,72.19,1.03,20.04-50.75,26.73-21.76-78.79-9.17-29.78-7.27,1.64c-2.35.66-4.86.77-7.21.11-7.8-2.16-7.57-10.47-8.3-16.99Z"/><path class="cls-17" d="M392.99,390.33h57.77c10.29,0,18.65,8.36,18.65,18.65v86.46c0,2.69-2.18,4.88-4.88,4.88h-71.55c-2.69,0-4.88-2.18-4.88-4.88v-100.23c0-2.69,2.18-4.88,4.88-4.88Z" transform="translate(178.31 -119.85) rotate(20.01)"/><path class="cls-32" d="M392.99,390.33h57.89c10.23,0,18.53,8.3,18.53,18.53v86.58c0,2.69-2.18,4.88-4.88,4.88h-71.55c-2.69,0-4.88-2.18-4.88-4.88v-100.23c0-2.69,2.18-4.88,4.88-4.88Z" transform="translate(178.31 -119.85) rotate(20.01)"/><path class="cls-4" d="M468.33,401.23v-.02s-61.35-22.35-61.35-22.35c-7.06-2.57-14.87,1.07-17.44,8.13l-1.77,4.86,62.05,22.6,1.77-4.86c2.49-6.83,9.87-10.46,16.74-8.36Z"/><path class="cls-17" d="M452.58,431.83c-.17,0-.34-.03-.51-.09l-41.98-15.29c-.78-.28-1.18-1.15-.9-1.92.28-.78,1.15-1.18,1.92-.9l41.98,15.29c.78.28,1.18,1.15.9,1.92-.22.61-.8.99-1.41.99Z"/><path class="cls-17" d="M446.15,449.51c-.17,0-.34-.03-.51-.09l-41.98-15.29c-.78-.28-1.18-1.15-.9-1.92.28-.78,1.15-1.18,1.92-.9l41.98,15.29c.78.28,1.18,1.15.9,1.92-.22.61-.8.99-1.41.99Z"/><path class="cls-17" d="M429.68,433.51c-.17,0-.34-.03-.51-.09l-22.3-8.12c-.78-.28-1.18-1.15-.9-1.92.28-.78,1.15-1.18,1.92-.9l22.3,8.12c.78.28,1.18,1.15.9,1.92-.22.61-.8.99-1.41.99Z"/><path class="cls-17" d="M454.01,442.37c-.17,0-.34-.03-.51-.09l-18.92-6.89c-.78-.28-1.18-1.15-.9-1.92.28-.78,1.15-1.18,1.92-.9l18.92,6.89c.78.28,1.18,1.15.9,1.92-.22.61-.8.99-1.41.99Z"/><path class="cls-17" d="M442.77,458.99c-.17,0-.34-.03-.51-.09l-41.98-15.29c-.78-.28-1.18-1.15-.9-1.92.28-.78,1.15-1.18,1.92-.9l41.98,15.29c.78.28,1.18,1.15.9,1.92-.22.61-.8.99-1.41.99Z"/><path class="cls-17" d="M436.33,476.67c-.17,0-.34-.03-.51-.09l-41.98-15.29c-.78-.28-1.18-1.15-.9-1.92.28-.78,1.15-1.18,1.92-.9l41.98,15.29c.78.28,1.18,1.15.9,1.92-.22.61-.8.99-1.41.99Z"/><path class="cls-17" d="M419.87,460.67c-.17,0-.34-.03-.51-.09l-22.3-8.12c-.78-.28-1.18-1.15-.9-1.92.28-.78,1.15-1.18,1.92-.9l22.3,8.12c.78.28,1.18,1.15.9,1.92-.22.61-.8.99-1.41.99Z"/><path class="cls-17" d="M439.12,467.68c-.17,0-.34-.03-.51-.09l-13.85-5.04c-.78-.28-1.18-1.15-.9-1.92.28-.78,1.15-1.18,1.92-.9l13.85,5.04c.78.28,1.18,1.15.9,1.92-.22.61-.8.99-1.41.99Z"/><path class="cls-13" d="M473.83,485.06c-10.73-17.01-2.98-30.11-2.98-30.11,0,0-4.91-2.93-11.75-7.31-5.35-3.43-6.5-8.18-6.74-10.08-.08-.59,0-1.18.22-1.73.74-1.76,3.16-5.27,10.32-2.52,3.76,1.45,8.15,3.84,12.04,6.17,8.93,5.35,16.63,12.58,22.14,21.41,1.4,2.25,2.64,4.58,3.51,6.87,3.93,10.28-26.76,17.3-26.76,17.3Z"/></g><path class="cls-18" d="M566.9,531.93c-.12-.16-.65-.5-1.43-.95-7.81-4.44-16.98-5.96-25.9-4.41l-11.42,1.99c-4.94.86-9.56,2.68-13.68,5.27,3.8-2.14,7.96-3.66,12.29-4.38,0,0,11.48-1.93,11.48-1.93,8.97-1.51,18.21.08,26.09,4.61.79.46,1.32.8,1.45.97,1.64,2.22,1.24,5.55-.33,7.83,2.41-2.12,3.4-6.36,1.46-8.99Z"/><path class="cls-18" d="M559.65,544.61c2.77,3.65,2.74,8.72.18,12.53h0s.06.1.06.1l.95-1.4c2.57-3.79,2.63-8.83-.1-12.44,0-.01-.02-.02-.03-.03-.75-.21-2.31-.9-4.09-1.74,1.1.85,2.15,1.83,3.03,2.98Z"/><polygon class="cls-18" points="535.47 576.2 535.45 576.63 536.9 575.81 535.47 576.2"/><path class="cls-18" d="M558.53,557.98c-2.22-3.5-5.6-6.1-9.56-7.35l-4.53-1.43s15.64,4.92,14.44,12.89c-.33,2.21-.84,3.71-1.39,4.75.89-.89,1.83-2.64,2.37-6.08.17-1.1.01-2.14-.37-3.11l-.6.89-.36-.56Z"/><path class="cls-18" d="M554.27,569.03s-5.84-7.46-13.7-6.64c0,0,21.18,5.14,15.5,16.36.28-.4.56-.8.8-1.24,1.91-3.57,1.1-6.51-.9-8.87-.93.6-1.7.38-1.7.38Z"/><path class="cls-13" d="M565.77,533.1c-.12-.17-.65-.51-1.45-.97-7.89-4.53-17.12-6.12-26.09-4.61,0,0-11.48,1.93-11.48,1.93-4.33.73-8.48,2.24-12.29,4.38-3.07,1.73-5.91,3.85-8.39,6.37-5.84,5.93-9.09,13.95-11.53,21.78-2.58,8.28-3.37,16.78-4.26,25.36-1.19,11.54-1.8,23.19-3.42,34.68-1.48,10.69-2.35,21.51-3.47,32.26-.31,2.96-.62,5.92-.93,8.88-.3,2.91-.61,5.82-.91,8.73-.1.99-.04,2.22-.33,3.17l-10.42,65.47,22.18,3.44c16.83,2.61,32.39-9.49,34.01-26.45l7.84-130.68c7.07.14,17.52-1.06,21.14-7.89.03-.06.06-.13.09-.19,5.68-11.22-15.5-16.36-15.5-16.36,7.86-.82,13.7,6.64,13.7,6.64,0,0,.76.22,1.7-.38.49-.32,1.02-.87,1.52-1.81.55-1.04,1.06-2.54,1.39-4.75,1.2-7.98-14.44-12.89-14.44-12.89l4.53,1.43c3.95,1.25,7.34,3.85,9.56,7.35l.36.56.6-.89.34-.51h0c2.56-3.81,2.59-8.88-.18-12.53-.88-1.15-1.93-2.14-3.03-2.98,1.78.84,3.35,1.53,4.09,1.74.14.04.27.07.35.07,1.81.03,3.35-1.02,4.38-2.51,1.57-2.28,1.97-5.6.33-7.83ZM535.47,576.2l1.43-.39-1.45.82.03-.43Z"/><path class="cls-18" d="M527.44,583.65c.02-1.56.87-2.99,2.22-3.75l7.23-4.09-21.27,5.86c-1.8.5-3.63.7-5.43.64l24.03,14.57.6-10.04c-2.32-.04-3.49-.24-4.97-.42-1.39-.17-2.43-1.36-2.42-2.77Z"/><path class="cls-11" d="M536.32,563.26c1.52-.39,3.24-.45,4.86-.27,1.64.17,3.25.59,4.78,1.2.75.35,1.52.66,2.22,1.1.35.21.72.4,1.07.63l1.01.72c.35.23.67.49.98.77l.95.81c.61.57,1.17,1.18,1.76,1.77l.05.05c.3.29.77.29,1.07,0s.29-.77,0-1.07c0,0,0,0,0,0-.63-.61-1.24-1.24-1.89-1.83l-1.02-.84c-.34-.28-.68-.56-1.05-.8l-1.09-.74c-.37-.24-.77-.44-1.15-.66-.76-.46-1.59-.77-2.4-1.13-1.66-.63-3.39-1.04-5.16-1.2-1.78-.15-3.53-.08-5.33.41-.31.08-.49.4-.41.71.08.3.39.49.7.41h.06Z"/><path class="cls-11" d="M542.52,549.45c1.6-.02,3.29.33,4.84.88,1.56.56,3.04,1.34,4.39,2.3.65.52,1.33,1,1.9,1.59.29.29.61.56.89.87l.82.94c.28.3.53.64.77.98l.73,1.01c.46.7.87,1.42,1.3,2.13l.04.06c.22.36.68.47,1.04.25.36-.22.47-.68.25-1.04,0,0,0-.01-.01-.02-.48-.74-.94-1.49-1.44-2.21l-.81-1.04c-.26-.35-.54-.7-.85-1.01l-.9-.97c-.3-.32-.65-.6-.97-.9-.63-.61-1.38-1.1-2.08-1.63-1.47-.98-3.07-1.77-4.74-2.31-1.69-.53-3.41-.85-5.24-.78-.25.01-.44.22-.43.46.01.24.21.43.45.43h.05Z"/><path class="cls-11" d="M544.32,537.78c1.59-.14,3.3.08,4.89.51,1.6.44,3.13,1.11,4.55,1.96.68.47,1.4.89,2.02,1.45.32.27.65.51.95.8l.89.87c.31.28.58.59.84.92l.81.95c.51.66.97,1.35,1.46,2.03l.04.06c.24.34.72.41,1.06.17.34-.24.41-.72.17-1.06,0,0,0-.01-.01-.02-.54-.7-1.05-1.41-1.6-2.09l-.88-.98c-.29-.33-.59-.65-.92-.94l-.97-.9c-.33-.29-.69-.55-1.04-.82-.68-.56-1.45-1-2.2-1.47-1.54-.86-3.19-1.53-4.9-1.94-1.72-.41-3.47-.6-5.28-.38-.24.03-.42.25-.39.49.03.24.24.41.48.39h.04Z"/><g class="cls-27"><path class="cls-13" d="M806.57,641.46c.11-7.4,1.24-14.78.53-22.18-.26-2.71-.8-5.5-2.36-7.73-1.98-2.82-5.32-4.38-8.65-5.27-5.87-1.58-13.09-1.79-17.47-6.62-.04-.05-.08-.09-.12-.13-2.72-2.91-7.23-3.26-10.47-.95l-20.5,14.61c-9.46,9.97-12.57,21.75-12.57,21.75l-6.75,19.01-17.14,74.19.92,20.05,53.1,21.69,14.04-80.53,6.24-30.53,7.4.93c2.41.43,4.91.29,7.19-.58,7.56-2.9,6.52-11.16,6.62-17.72Z"/><path class="cls-17" d="M796.6,667.55l64.54-30.88c2.43-1.16,3.46-4.07,2.29-6.5l-43.26-90.42c-1.16-2.43-4.07-3.46-6.5-2.29l-52.11,24.93c-9.29,4.45-13.22,15.58-8.77,24.87l37.32,77.99c1.16,2.43,4.07,3.46,6.5,2.29Z"/><path class="cls-23" d="M796.6,667.55l64.54-30.88c2.43-1.16,3.46-4.07,2.29-6.5l-43.26-90.42c-1.16-2.43-4.07-3.46-6.5-2.29l-52.22,24.98c-9.23,4.42-13.14,15.48-8.72,24.72l37.36,78.1c1.16,2.43,4.07,3.46,6.5,2.29Z"/><path class="cls-12" d="M761.49,562.44v-.02s58.89-28.18,58.89-28.18c6.78-3.24,14.9-.38,18.15,6.4l2.23,4.66-59.57,28.5-2.23-4.66c-3.14-6.56-10.84-9.45-17.47-6.7Z"/><path class="cls-17" d="M779.98,591.38c-.56,0-1.1-.31-1.36-.85-.36-.75-.04-1.65.71-2l40.3-19.28c.75-.36,1.65-.04,2,.71.36.75.04,1.65-.71,2l-40.3,19.28c-.21.1-.43.15-.65.15Z"/><path class="cls-17" d="M788.1,608.35c-.56,0-1.1-.31-1.36-.85-.36-.75-.04-1.65.71-2l40.3-19.28c.75-.36,1.65-.04,2,.71.36.75.04,1.65-.71,2l-40.3,19.28c-.21.1-.43.15-.65.15Z"/><path class="cls-17" d="M802.93,590.84c-.56,0-1.1-.31-1.36-.85-.36-.75-.04-1.65.71-2l21.41-10.24c.75-.36,1.64-.04,2,.71.36.75.04,1.65-.71,2l-21.41,10.24c-.21.1-.43.15-.65.15Z"/><path class="cls-17" d="M779.57,602.01c-.56,0-1.1-.31-1.36-.85-.36-.75-.04-1.65.71-2l18.17-8.69c.75-.36,1.64-.04,2,.71.36.75.04,1.65-.71,2l-18.17,8.69c-.21.1-.43.15-.65.15Z"/><path class="cls-17" d="M792.37,617.46c-.56,0-1.1-.31-1.36-.85-.36-.75-.04-1.65.71-2l40.3-19.28c.75-.36,1.64-.04,2,.71.36.75.04,1.65-.71,2l-40.3,19.28c-.21.1-.43.15-.65.15Z"/><path class="cls-17" d="M800.49,634.43c-.56,0-1.1-.31-1.36-.85-.36-.75-.04-1.65.71-2l40.3-19.28c.75-.36,1.64-.04,2,.71.36.75.04,1.65-.71,2l-40.3,19.28c-.21.1-.43.15-.65.15Z"/><path class="cls-17" d="M815.33,616.92c-.56,0-1.1-.31-1.36-.85-.36-.75-.04-1.65.71-2l21.41-10.24c.75-.36,1.64-.04,2,.71.36.75.04,1.65-.71,2l-21.41,10.24c-.21.1-.43.15-.65.15Z"/><path class="cls-17" d="M796.85,625.76c-.56,0-1.1-.31-1.36-.85-.36-.75-.04-1.65.71-2l13.29-6.36c.75-.36,1.65-.04,2,.71.36.75.04,1.65-.71,2l-13.29,6.36c-.21.1-.43.15-.65.15Z"/><path class="cls-13" d="M764.13,646.41c9.03-17.96.05-30.26.05-30.26,0,0,4.6-3.4,10.98-8.41,4.99-3.93,5.67-8.77,5.74-10.69.02-.6-.1-1.17-.39-1.7-.9-1.68-3.66-4.94-10.51-1.51-3.6,1.8-7.74,4.61-11.39,7.3-8.37,6.19-15.34,14.13-19.96,23.46-1.18,2.37-2.18,4.82-2.83,7.17-2.91,10.61,28.31,14.63,28.31,14.63Z"/></g><rect class="cls-8" x="596.33" y="589.79" width="56.31" height="8.03" rx="2.13" ry="2.13"/><path class="cls-17" d="M644.36,687.87h-39.05c-2.65,0-4.86-2.16-5.05-4.94l-5.54-80.43c-.21-3.09,2.11-5.71,5.05-5.71h50.13c2.94,0,5.26,2.63,5.05,5.71l-5.54,80.43c-.19,2.79-2.39,4.94-5.05,4.94Z"/><polygon class="cls-28" points="596.33 625.79 598.49 657.13 651.18 657.13 653.34 625.79 596.33 625.79"/><polygon class="cls-28" points="596.33 625.79 598.49 657.13 651.18 657.13 653.34 625.79 596.33 625.79"/><path class="cls-17" d="M644.36,687.87h-39.05c-2.65,0-4.86-2.16-5.05-4.94l-5.54-80.43c-.21-3.09,2.11-5.71,5.05-5.71h50.13c2.94,0,5.26,2.63,5.05,5.71l-5.54,80.43c-.19,2.79-2.39,4.94-5.05,4.94Z"/><polygon class="cls-5" points="596.33 625.79 598.49 657.13 651.18 657.13 653.34 625.79 596.33 625.79"/><path class="cls-29" d="M617.96,682.93l2.35-80.43c.09-3.09-.9-5.71-2.15-5.71h-18.39c-2.94,0-5.26,2.63-5.05,5.71l1.6,23.29h23.3l-.92,31.34h-20.22l1.78,25.79c.19,2.79,2.39,4.94,5.05,4.94h10.5c1.13,0,2.06-2.16,2.15-4.94Z"/><rect class="cls-5" x="591.13" y="594.07" width="67.16" height="12.82" rx="1.77" ry="1.77"/><path class="cls-13" d="M767.26,761.02l-19.29-58.04-22.34.37-35.33-55.07-3.17-6.22c-6.75-13.25-20.27-21.68-35.13-21.93l-12.37-.2c-7.46,0-15.03,2.88-20.19,5.38-4.79,2.32-7.03,8.18-4.52,12.87.76,1.42,1.8,2.34,3.24,2.1.5-.08,2.3-1.21,4.37-2.6-1.07,1.12-2.06,2.39-2.81,3.82-2.22,4.24-1.33,9.46,1.9,12.99l1.22,1.33.29-.65c1.78-4.03,4.92-7.3,8.88-9.24l4.54-2.22s-15.66,7.64-13.13,15.84c2.53,8.19,5.94,6.56,5.94,6.56,0,0,4.95-8.76,13.35-9.15,0,0-21.7,8.86-13.57,19.84,3.73,5.04,10.58,6.07,16.92,5.71l17.9,34.95c10.81,24.75,33.59,76.53,36.18,79.43,4.57,5.11,10.81,8.76,17.81,10.42,10.41,4.14,22.75,2.51,31.83-5.45l-.07-.59c13.67-8.87,21.16-24.64,17.57-40.25Z"/><polyline class="cls-18" points="736.77 702.97 755.53 749.87 724.23 701.27"/><path class="cls-11" d="M647.29,657.18c-1.65-.16-3.47.04-5.15.48-1.7.44-3.32,1.13-4.84,2.02-.73.49-1.49.93-2.16,1.51-.34.28-.7.54-1.02.84l-.95.91c-.33.29-.62.62-.91.96l-.87,1c-.55.69-1.05,1.43-1.57,2.13l-.05.06c-.26.36-.77.43-1.12.17-.36-.26-.43-.77-.17-1.12,0,0,0,0,0,0,.57-.74,1.11-1.5,1.7-2.23l.94-1.04c.31-.35.62-.7.98-1l1.03-.96c.35-.31.74-.58,1.1-.87.72-.6,1.55-1.07,2.34-1.57,1.64-.92,3.4-1.64,5.23-2.08,1.84-.43,3.7-.64,5.66-.41.34.04.58.34.54.68-.04.33-.34.57-.67.54h-.06Z"/><path class="cls-11" d="M638.59,643.65c-1.68.23-3.4.87-4.94,1.69-1.55.83-2.98,1.89-4.25,3.11-.6.65-1.24,1.26-1.75,1.98-.26.35-.55.69-.8,1.05l-.71,1.11c-.25.36-.46.75-.66,1.15l-.61,1.17c-.37.8-.68,1.63-1.03,2.45l-.03.07c-.17.41-.65.6-1.05.42-.41-.17-.6-.65-.42-1.05,0,0,0-.01,0-.02.39-.85.75-1.71,1.16-2.55l.68-1.23c.22-.41.45-.82.73-1.2l.79-1.16c.27-.38.59-.73.88-1.1.57-.75,1.27-1.38,1.92-2.05,1.39-1.26,2.94-2.34,4.62-3.17,1.69-.83,3.45-1.44,5.38-1.65.26-.03.49.16.52.42.03.25-.15.48-.4.52h-.05Z"/><path class="cls-11" d="M634.84,631.68c-1.7.11-3.46.61-5.06,1.32-1.61.71-3.11,1.66-4.47,2.78-.64.6-1.33,1.16-1.89,1.84-.29.33-.6.64-.87.99l-.79,1.06c-.28.34-.51.72-.74,1.1l-.7,1.13c-.43.77-.81,1.58-1.21,2.36l-.04.07c-.2.39-.69.55-1.08.34-.39-.2-.55-.69-.34-1.08,0,0,0-.01.01-.02.45-.82.88-1.65,1.35-2.45l.77-1.17c.25-.39.51-.78.82-1.14l.88-1.1c.3-.36.64-.68.96-1.03.62-.7,1.37-1.28,2.07-1.9,1.48-1.15,3.11-2.11,4.85-2.82,1.75-.7,3.55-1.18,5.49-1.24.26,0,.48.2.49.46,0,.26-.19.47-.44.49h-.05Z"/><polygon class="cls-19" points="685.27 669.36 646.99 684.1 655.38 699.52 685.27 669.36"/><g class="cls-27"><path class="cls-13" d="M520.26,771.89l8.79-9.61,20.37-18.02c8.57-7.58,19.71-11.19,30.8-10.36l111.47,1.02,25.63,5.19,46.39,30.69c2.51,18.66-11.21,35.58-29.98,36.98l-145.1-27.18-6.41,4.6,8.54-3.37c1.6-.63,3.42-.37,4.77.7,1.22.96,1.52,2.68.7,4-3.55,5.66-13.45,19.41-24.57,17.24-13.94-2.72-3.51-24.74-3.51-24.74-6.17,6.19-3.82,16.38-3.82,16.38,0,0-1.47,3.64-9.16-.87-7.69-4.51-1.05-21.36-1.05-21.36l-1.92,4.89c-1.67,4.26-1.79,8.98-.33,13.32l.24.7-1.86-.16c-5.11-.45-9.51-4.04-10.68-9.03-1.61-6.87,1.78-14.4,1.78-14.4l-12.64,13.49c-2.33,2.49-8.12,9.35-13.03,5.54-4.52-5.09,2.01-12.78,4.61-15.63Z"/><path class="cls-11" d="M554.93,771.03c-1.34,1.52-2.26,3.22-2.97,5.04-.7,1.82-1.14,3.74-1.32,5.68-.12,1.94-.08,3.91.26,5.83.11.97.41,1.9.61,2.85.27.93.6,1.85.89,2.77.14.44.62.69,1.06.54.44-.14.69-.62.54-1.06,0,0,0-.01,0-.02l-.03-.08c-.31-.87-.65-1.72-.93-2.6-.21-.89-.53-1.76-.66-2.67-.38-1.8-.47-3.64-.41-5.47.12-1.83.47-3.64,1.07-5.37.6-1.71,1.48-3.41,2.6-4.77l.03-.04c.17-.21.15-.52-.07-.7-.21-.17-.51-.15-.69.05Z"/><path class="cls-11" d="M571.1,774.91c-1.67,1.2-2.95,2.66-4.06,4.29-1.09,1.62-1.95,3.41-2.56,5.27-.55,1.87-.95,3.8-1.04,5.75-.11.97-.02,1.95-.04,2.92.05.97.17,1.93.26,2.9.04.46.45.81.91.77.46-.04.81-.45.77-.91,0,0,0,0,0,0v-.09c-.1-.91-.23-1.83-.3-2.74,0-.91-.1-1.84-.01-2.75.05-1.83.4-3.64.88-5.4.54-1.74,1.3-3.41,2.29-4.94.98-1.51,2.23-2.95,3.61-3.98l.05-.04c.29-.21.34-.62.13-.9-.21-.28-.61-.34-.89-.14Z"/><path class="cls-10" d="M608.22,763.68l.06,20.61-19.67-3.68h0l13.4-9.6c2.7-1.94,4.8-4.47,6.21-7.32Z"/></g><path class="cls-25" d="M499.3,561.96h-11.57c9.91,0,18.02,8.11,18.02,18.02v154.57c0,9.91-8.11,18.02-18.02,18.02h11.57c9.91,0,18.02-8.11,18.02-18.02v-154.57c0-9.91-8.11-18.02-18.02-18.02Z"/><rect class="cls-14" x="235.44" y="561.96" width="270.31" height="190.61" rx="18.02" ry="18.02"/><rect class="cls-24" x="267.57" y="585.29" width="206.05" height="145.3" rx="18.02" ry="18.02"/><path class="cls-20" d="M395.11,761.28v-102.81c0-1.69-1.38-3.07-3.07-3.07h-4.59c1.69,0,3.07,1.38,3.07,3.07v102.81c0,1.69,32.16,43,30.47,43h4.59c1.69,0-30.47-41.32-30.47-43Z"/><path class="cls-25" d="M439.5,799.4h-21.43c-7.68-10.98-27.55-36.8-27.55-38.12v-102.81c0-1.69-1.38-3.07-3.07-3.07h-44.99c-1.69,0-3.07,1.38-3.07,3.07v105.19c0,1.31-16.39,25.24-22.84,35.74h-30.52c-1.98,0-3.6,1.62-3.6,3.6v5.22c0,1.98,1.62,3.6,3.6,3.6h153.46c1.98,0,3.6-1.62,3.6-3.6v-5.22c0-1.98-1.62-3.6-3.6-3.6Z"/><path class="cls-17" d="M365.04,691.67c-7.08,0-12.84-5.76-12.84-12.84s5.76-12.84,12.84-12.84,12.84,5.76,12.84,12.84-5.76,12.84-12.84,12.84ZM365.04,668.98c-5.42,0-9.84,4.41-9.84,9.84s4.41,9.84,9.84,9.84,9.84-4.41,9.84-9.84-4.41-9.84-9.84-9.84Z"/><rect class="cls-25" x="305.28" y="610.09" width="106.53" height="4.8"/><rect class="cls-25" x="305.28" y="620.25" width="106.53" height="4.8"/><path class="cls-22" d="M457.26,800.94h141.35c3.36,0,6.08,2.73,6.08,6.08v4.41h-153.52v-4.41c0-3.36,2.73-6.08,6.08-6.08Z"/><path class="cls-14" d="M464.8,796.87h126.27c3,0,5.43,2.43,5.43,5.43v3.94h-137.14v-3.94c0-3,2.43-5.43,5.43-5.43Z"/><path class="cls-31" d="M598.58,481.76c.16.35.28.72.35,1.1,4.25-.29,7.51,3.67,8.2,7.95.36,2.27,0,4.62-1.31,6.48-1.88,2.68-5.32,4.03-8.51,3.18-3.87-1.02-6.75-4.94-6.59-8.93.04-.98.27-1.93.63-2.83-.08-.04-.16-.08-.24-.13-1.94-1.1-3.04-3.5-2.6-5.69,1-4.93,8-5.73,10.07-1.14Z"/><path class="cls-31" d="M573.81,494.27c.97.03.87,1.53-.09,1.5-2.42-.07-4.98-1.14-6.01-3.47-.98-2.23-.04-4.99,2.38-5.74,1.48-.46,3.03-.04,4.46.38.93.27.44,1.69-.49,1.42-1.2-.35-2.63-.81-3.84-.26-.95.43-1.45,1.45-1.42,2.47.1,2.52,2.87,3.64,5.01,3.7Z"/><path class="cls-21" d="M563.19,504.6c7.64.4,13.83-.22,21.11-2.57.42,2.11.11,3-.14,5.48-.88,1.86-2.2,3.53-3.77,4.65-3.31,2.38-7.83,2.82-11.65,1.4-1.48-.55-2.87-1.38-3.99-2.48-.04-.66-.29-1.13-.58-1.54-.71-2.14-1.44-2.92-.99-4.95Z"/><path class="cls-9" d="M578.12,505.65c-4.4-.16-9.09,1.14-12.28,4.23-.39.37-.75.78-1.09,1.2-.36-.35-.69-.73-.98-1.13-1.22-1.68-1.7-3.97-1.25-6,7.64.4,15.35-.6,22.63-2.95.42,2.11,0,4.43-.99,6.51-1.71-1.19-3.94-1.79-6.04-1.86Z"/><path class="cls-31" d="M543.65,498.04c-2.83-1.6-4.42-5.11-3.78-8.29.04-.22.1-.45.16-.66,1.92-6.6,11.59-7.48,14.52-1,1.26,2.8.64,6.33-1.46,8.56-.12.13-.25.25-.38.37-2.4,2.19-6.23,2.63-9.06,1.03Z"/><path class="cls-9" d="M597.32,487.88c-1.58,1.44-4.06,1.77-5.97.83-.08-.04-.16-.08-.24-.13-1.94-1.1-3.04-3.5-2.6-5.69,1-4.93,8-5.73,10.07-1.14.16.35.28.72.35,1.1.35,1.8-.25,3.78-1.61,5.02Z"/><path class="cls-33" d="M598.1,474.79l-9.09-.38c-.34-.01-.69-.03-.99-.19-.67-.35-.84-1.25-.7-1.99.68-3.56,6.4-5.35,9.39-4.17,1.65.65,2.92,2.06,3.72,3.64.36.72.63,1.62.2,2.3-.49.79-1.6.84-2.54.8Z"/><path class="cls-33" d="M560.76,473.99l-9.1.2c-.34,0-.69.01-1-.12-.69-.3-.92-1.19-.83-1.94.45-3.59,6.04-5.75,9.1-4.77,1.69.54,3.05,1.86,3.95,3.39.41.69.74,1.57.35,2.28-.44.82-1.55.94-2.48.96Z"/><path class="cls-9" d="M552.5,488.27c-1.94-1.1-3.03-3.5-2.6-5.69.03-.15.07-.31.11-.45,1.32-4.53,7.95-5.13,9.96-.69.87,1.92.44,4.34-1,5.87-.08.09-.17.17-.26.25-1.64,1.5-4.27,1.8-6.21.7Z"/><path class="cls-31" d="M638.31,477.73c-1.36-.27-2.74-.18-4.03.26.42.11.82.26,1.19.46.67.37,1.32,1.08,1.11,1.9-.23.92-1.32,1.26-2.14,1.44-.93.19-1.87.15-2.79-.08-.55-.14-.25-.97.3-.83.65.16,1.33.19,1.99.1.5-.07,1.59-.23,1.78-.81.17-.54-.63-.95-1.02-1.11-.67-.28-1.38-.39-2.11-.37-.49.02-.48-.65-.15-.84,1.77-1.05,3.91-1.41,5.93-1,.55.11.48.99-.08.88Z"/></svg>