<?xml version="1.0" encoding="UTF-8"?><svg id="Layer_1" xmlns="http://www.w3.org/2000/svg" viewBox="0 0 1000 1000"><defs><style>.cls-1{fill:#648c06;}.cls-2{fill:#d15a02;}.cls-3{fill:#3a4460;}.cls-4{fill:#0074cb;}.cls-5{fill:#32294f;}.cls-6{fill:#c3c6cf;}.cls-7{fill:#f9e2d9;opacity:.3;}.cls-8{fill:#ea5961;}.cls-9{fill:#5f1e1e;}.cls-10{fill:#ffb800;}.cls-11{fill:#f5f6fc;}.cls-12{fill:#dadde3;}.cls-13{fill:#f0afa5;}.cls-14{fill:#d18c82;}.cls-15{fill:#f9c6bd;}.cls-16{fill:#ef7f6f;}.cls-17{fill:#dfe2e8;}.cls-18{fill:#5681f5;}.cls-19{fill:#ff7903;}.cls-20{fill:#8bd000;}.cls-21{fill:#8d929e;}.cls-22{fill:#594443;}</style></defs><path class="cls-10" d="M762.79,468.97c-.67,1.1-1.44,2.86-2.83,4.95-2.57,4.28-6.82,10.43-13.75,16.93-3.4,3.32-7.58,6.56-12.33,9.83-4.79,3.23-10.31,6.25-16.45,9.03-12.29,5.54-27.23,9.8-44.11,11.78-16.86,1.97-35.67,1.83-55.35-1.63-9.79-1.82-19.9-4.29-29.67-8.32-9.77-4.09-19.27-9.59-28.59-15.86-18.7-12.51-36.51-28.28-56.79-42.42-10.15-7.03-20.96-13.66-32.89-18.55-1.5-.59-2.95-1.3-4.49-1.8l-4.64-1.45c-1.55-.5-3.14-.82-4.71-1.24l-2.37-.59-2.41-.46c-6.4-1.27-13.01-1.94-19.64-1.74-13.28.31-26.17,3.79-37.85,9.04-5.86,2.62-11.49,5.54-16.95,8.72-2.7,1.63-5.31,3.37-7.93,5.07-2.55,1.78-5.15,3.48-7.64,5.31-20.03,14.43-37.9,30.06-56.36,42.94-18.38,12.96-37.22,23.38-56.16,29.8-18.88,6.58-37.28,10.28-54.21,11.73-16.94,1.46-32.42.68-45.75-1.48-6.69-.99-12.81-2.49-18.41-3.93-2.77-.85-5.45-1.55-7.95-2.41-2.49-.89-4.9-1.61-7.11-2.51-7.33-2.72-13.04-5.52-17.35-7.69v.8c4.21,2.29,9.79,5.16,16.93,7.97,2.21.94,4.62,1.72,7.11,2.65,2.5.91,5.2,1.66,7.98,2.55,5.63,1.54,11.79,3.13,18.53,4.21,13.43,2.34,29.07,3.28,46.19,1.93,17.12-1.33,35.73-4.95,54.84-11.5,19.2-6.4,38.37-16.9,56.92-29.89,18.65-12.92,36.59-28.55,56.48-42.82,2.47-1.81,5.04-3.49,7.57-5.25,2.58-1.68,5.15-3.38,7.8-4.98,5.34-3.11,10.91-5.99,16.64-8.54,11.44-5.13,23.91-8.47,36.72-8.77,6.41-.19,12.79.45,19.01,1.69l2.34.44,2.3.58c1.53.41,3.08.72,4.58,1.2l4.5,1.4c1.49.48,2.91,1.17,4.36,1.74,11.6,4.75,22.28,11.25,32.33,18.2,20.11,13.96,37.99,29.72,56.92,42.3,9.44,6.31,19.11,11.86,29.13,16,10.07,4.09,20.28,6.52,30.24,8.32,19.96,3.4,38.98,3.42,56.03,1.29,17.06-2.15,32.16-6.59,44.54-12.35,6.19-2.89,11.75-6.03,16.56-9.37,4.77-3.39,8.96-6.75,12.34-10.17,6.9-6.72,11.04-13.05,13.47-17.46,1.32-2.15,2.01-3.97,2.59-5.12.54-1.17.79-1.78.75-1.81-.05-.02-.39.55-1.02,1.67Z"/><path class="cls-10" d="M759.06,441.9c-.61,1.11-1.36,2.83-2.66,4.92-2.43,4.26-6.44,10.37-12.99,17.01-3.24,3.34-7.15,6.76-11.74,10.08-4.57,3.34-9.81,6.61-15.72,9.59-11.81,5.94-26.22,10.88-42.65,13.71-16.4,2.79-34.86,3.76-54.24.97-2.42-.32-4.83-.8-7.27-1.24-2.41-.6-4.84-1.2-7.29-1.81-4.86-1.37-9.78-2.85-14.65-4.72-9.76-3.64-19.46-8.31-28.89-13.98-4.74-2.8-9.31-5.97-13.96-9.19-4.65-3.26-9.36-6.56-14.12-9.9-4.87-3.19-9.74-6.48-14.75-9.68-5.12-3.02-10.22-6.18-15.49-9.18-5.37-2.8-10.74-5.71-16.24-8.5-5.61-2.63-11.35-5.13-17.37-7-1.5-.47-3-.99-4.52-1.42l-4.61-1.16-2.31-.58-2.35-.43-4.72-.85c-1.58-.26-3.18-.37-4.78-.56-1.6-.14-3.19-.42-4.81-.42-3.22-.1-6.45-.32-9.69-.1-12.95.42-25.63,3.12-37.41,7.5-11.82,4.34-22.83,10.07-33.15,16.45-5.17,3.28-9.96,6.9-14.68,10.49-4.7,3.59-9.35,7.15-13.96,10.67-9.22,7-18.41,13.6-27.72,19.53-9.29,5.94-18.67,11.23-28.06,15.79-9.41,4.52-18.85,8.27-28.15,11.33-9.29,3.14-18.54,5.25-27.46,6.96-4.49.73-8.88,1.54-13.23,1.93-2.17.23-4.31.52-6.44.7-2.13.13-4.23.26-6.32.39-16.66.93-31.8-.23-44.92-2.13-6.59-.82-12.63-2.17-18.21-3.25-5.55-1.24-10.58-2.57-15.12-3.69-4.49-1.33-8.47-2.52-11.93-3.54-2.42-.73-4.53-1.48-6.4-2.12v.73c1.79.69,3.81,1.47,6.12,2.23,3.44,1.1,7.42,2.38,11.89,3.81,4.54,1.21,9.57,2.63,15.13,3.96,5.6,1.17,11.65,2.6,18.28,3.51,13.19,2.06,28.44,3.38,45.27,2.58,2.1-.11,4.23-.23,6.38-.34,2.15-.16,4.31-.44,6.51-.66,4.4-.37,8.84-1.15,13.38-1.86,9.04-1.67,18.41-3.75,27.82-6.87,9.43-3.04,18.99-6.78,28.52-11.32,9.52-4.56,19.01-9.87,28.4-15.83,9.41-5.94,18.69-12.57,27.96-19.57,4.62-3.51,9.28-7.06,13.99-10.64,4.7-3.57,9.47-7.14,14.49-10.31,10.18-6.27,21.04-11.91,32.62-16.14,11.54-4.29,23.9-6.91,36.49-7.31,3.15-.22,6.29,0,9.43.1,1.57,0,3.12.27,4.67.41,1.55.19,3.11.29,4.65.54l4.59.82,2.29.42,2.25.56,4.5,1.12c1.48.42,2.94.93,4.41,1.39,5.88,1.82,11.51,4.26,17.01,6.83,5.44,2.74,10.78,5.63,16.11,8.4,5.22,2.96,10.29,6.08,15.38,9.07,4.98,3.17,9.83,6.43,14.68,9.58,4.75,3.31,9.45,6.59,14.1,9.83,4.69,3.23,9.35,6.44,14.17,9.26,9.59,5.72,19.46,10.42,29.39,14.08,4.95,1.87,9.95,3.36,14.9,4.72,2.5.61,4.97,1.21,7.43,1.81,2.5.44,4.97.92,7.43,1.23,19.71,2.72,38.38,1.62,54.95-1.34,16.6-2.99,31.14-8.13,43.04-14.29,5.95-3.09,11.21-6.48,15.8-9.93,4.6-3.44,8.51-6.97,11.73-10.41,6.51-6.85,10.41-13.14,12.69-17.52,1.22-2.15,1.89-3.93,2.41-5.08.5-1.17.73-1.77.68-1.79-.05-.02-.37.54-.96,1.66Z"/><path class="cls-10" d="M754.9,419.53c-.17-.05-.77,2.46-2.87,6.83-1.05,2.18-2.56,4.78-4.6,7.67-2.09,2.86-4.75,5.97-8.09,9.12-13.28,12.71-37.72,25.49-69.84,32.76-16.02,3.62-34.3,4.85-53.36,1.61-19.1-3.09-38.47-11.03-57.57-21.5-9.58-5.23-19.16-11.03-29-16.92-9.85-5.87-19.99-11.83-30.84-16.98-5.41-2.61-11.04-4.9-16.85-6.86-2.9-1.02-5.86-1.81-8.82-2.63l-4.45-1.24c-1.49-.41-3.02-.69-4.53-1.04-12.07-2.8-24.84-4.11-37.6-2.89-3.17.37-6.37.55-9.47,1.23l-4.67.86-2.33.43-2.29.58c-3.04.8-6.09,1.5-9.09,2.37-2.97.98-5.93,1.96-8.88,2.94-11.61,4.35-22.65,9.59-33.13,15.33-10.46,5.78-20.55,11.77-30.21,17.96-9.72,6.13-18.97,12.41-28.48,17.72-18.92,10.82-38.04,19.08-56.55,24.8-18.51,5.72-36.42,8.81-52.86,9.77-16.45.9-31.42-.14-44.32-2.4-12.92-2.2-23.79-5.39-32.53-8.37-5.32-1.93-9.85-3.73-13.59-5.3v.9c3.64,1.65,8.04,3.51,13.19,5.49,8.73,3.17,19.63,6.54,32.63,8.92,12.98,2.44,28.09,3.63,44.72,2.86,16.62-.83,34.73-3.84,53.46-9.51,18.72-5.68,38.06-13.93,57.18-24.78,9.62-5.33,18.97-11.64,28.65-17.7,9.65-6.15,19.7-12.08,30.09-17.81,10.41-5.68,21.33-10.84,32.75-15.1,2.89-.95,5.79-1.91,8.7-2.87,2.94-.85,5.95-1.54,8.94-2.33l2.25-.57,2.28-.42,4.57-.84c3.04-.68,6.15-.84,9.24-1.2,12.43-1.18,24.81.07,36.69,2.82,1.49.34,2.98.61,4.45,1.01l4.39,1.22c2.93.81,5.85,1.59,8.67,2.57,5.67,1.91,11.2,4.15,16.53,6.71,10.7,5.05,20.78,10.95,30.63,16.79,9.85,5.85,19.48,11.65,29.15,16.88,19.27,10.49,39,18.49,58.47,21.53,19.42,3.2,38.02,1.81,54.22-1.98,32.4-7.61,56.91-20.8,70.19-33.98,3.33-3.27,5.96-6.49,8.01-9.44,1.99-2.99,3.44-5.67,4.42-7.93.97-2.25,1.59-4.02,1.9-5.24.33-1.21.48-1.83.43-1.85Z"/><path class="cls-10" d="M742.67,409.83c-.74.96-1.85,2.38-3.3,4.25-1.36,1.93-3.35,4.09-5.63,6.68-2.18,2.68-5.14,5.36-8.31,8.52-6.63,5.99-15.41,12.71-26.88,18.17-1.4.75-2.89,1.36-4.42,1.96-1.52.62-3.06,1.25-4.63,1.89-1.61.53-3.24,1.06-4.9,1.6-.83.27-1.67.54-2.51.82-.85.26-1.72.44-2.59.67-1.74.44-3.51.88-5.31,1.32-1.82.33-3.66.66-5.53,1-1.86.39-3.77.59-5.71.81-1.94.2-3.89.53-5.88.6-15.93,1.24-33.56-.29-51.93-4.38-18.38-4.1-37.48-10.8-56.78-19.56-9.66-4.34-19.21-9.56-29.36-14.32-10.12-4.76-20.67-9.19-31.73-12.87-11.05-3.67-22.63-6.58-34.62-8.11-11.97-1.53-24.36-1.64-36.66.12l-4.6.69c-1.53.23-3.02.63-4.54.94l-4.51.99-4.42,1.28-4.4,1.3-4.27,1.56c-2.84,1.04-5.67,2.08-8.49,3.11-2.85.97-5.57,2.22-8.3,3.39-2.73,1.18-5.46,2.36-8.17,3.54-5.38,2.43-10.6,5.09-15.84,7.59-20.7,10.48-40.07,21.57-59.21,30.72-4.82,2.2-9.59,4.36-14.29,6.5-4.72,2.11-9.43,4.05-14.1,5.88-9.35,3.65-18.6,6.71-27.69,9.18-18.18,4.91-35.65,7.39-51.65,7.83-16.01.49-30.51-1.03-42.99-3.5-12.5-2.43-23-5.77-31.37-8.99-3.35-1.28-6.36-2.53-9.05-3.7v1.03c2.57,1.19,5.45,2.44,8.63,3.74,8.36,3.4,18.89,6.93,31.46,9.54,12.56,2.64,27.19,4.33,43.37,3.97,16.17-.31,33.85-2.69,52.24-7.55,9.19-2.44,18.55-5.48,28-9.12,4.72-1.82,9.48-3.75,14.22-5.86,4.74-2.14,9.54-4.3,14.41-6.49,19.29-9.13,38.73-20.21,59.34-30.6,5.21-2.48,10.4-5.12,15.74-7.52,2.69-1.16,5.39-2.33,8.1-3.5,2.71-1.16,5.41-2.4,8.23-3.35,2.79-1.02,5.59-2.04,8.4-3.07l4.22-1.55,4.3-1.26,4.32-1.25,4.41-.97c1.48-.3,2.94-.7,4.43-.92l4.49-.67c12.02-1.72,24.12-1.62,35.87-.13,11.76,1.49,23.16,4.33,34.08,7.94,10.93,3.62,21.39,7.98,31.44,12.68,10.04,4.67,19.66,9.9,29.43,14.25,19.48,8.76,38.77,15.43,57.38,19.47,18.59,4.02,36.46,5.46,52.63,4.06,2.03-.09,4-.44,5.97-.66,1.96-.25,3.9-.47,5.79-.88,1.89-.36,3.76-.72,5.61-1.07,1.82-.47,3.61-.94,5.38-1.4.88-.24,1.77-.44,2.63-.71.85-.29,1.7-.57,2.54-.85,1.68-.57,3.34-1.13,4.96-1.69,1.59-.67,3.15-1.32,4.68-1.97,1.54-.63,3.05-1.27,4.46-2.05,11.58-5.69,20.38-12.65,26.95-18.82,3.14-3.25,6.06-6.02,8.19-8.78,2.22-2.67,4.14-4.9,5.44-6.9,1.35-1.95,2.38-3.44,3.07-4.44.68-1.01,1-1.54.96-1.57s-.45.44-1.21,1.39Z"/><path class="cls-10" d="M736,388.73c-.23.55-.49,1.25-.84,2.06-.42.78-.91,1.68-1.46,2.7-2.31,4.03-6.58,9.51-13.4,15.17-6.75,5.71-15.88,11.7-27.14,17.33-11.23,5.67-24.9,10.34-40.46,13.16-7.8,1.27-16.06,2.14-24.69,2.31-8.63.09-17.61-.45-26.8-1.8-9.19-1.35-18.59-3.51-27.94-6.74-2.33-.81-4.65-1.73-7-2.6-2.33-.93-4.61-2.05-6.94-3.08-4.65-2.1-9.38-4.18-14.06-6.6-4.71-2.34-9.48-4.71-14.31-7.1-2.42-1.19-4.86-2.4-7.31-3.6-2.45-1.2-4.88-2.47-7.45-3.54-2.54-1.11-5.09-2.23-7.66-3.36-2.57-1.13-5.12-2.31-7.83-3.17-2.68-.92-5.34-1.95-8.07-2.79-2.75-.79-5.51-1.59-8.29-2.38-22.37-5.72-46.58-7.71-70.94-4.52-12.14,1.82-23.81,4.95-35.12,8.63-2.82.95-5.64,1.87-8.39,2.96l-4.14,1.58-4.06,1.77c-2.74,1.11-5.27,2.53-7.87,3.81-2.59,1.31-5.16,2.61-7.73,3.91-10.1,5.38-20.03,10.67-29.75,15.85-2.42,1.33-4.86,2.51-7.28,3.72-2.43,1.2-4.81,2.43-7.24,3.58-4.93,2.2-9.78,4.35-14.61,6.41-19.29,8.24-38.17,14.86-56.37,18.81-9.09,1.99-17.99,3.32-26.6,3.95-2.15.12-4.28.27-6.4.35-2.12.04-4.22.07-6.3.11-4.16.04-8.22.24-12.19.13-31.71-.01-57.62-3.58-73.79-10.94-2.83-1.26-5.3-2.65-7.47-4.06v1.16c2.05,1.37,4.35,2.72,6.98,3.95,8.12,3.86,18.77,6.87,31.31,8.83,12.55,1.94,26.99,3.08,42.95,3.17,3.99.14,8.07-.03,12.24-.04,2.09-.02,4.2-.04,6.33-.07,2.14-.06,4.3-.21,6.49-.31,8.73-.58,17.76-1.87,26.96-3.83,18.43-3.89,37.5-10.48,56.92-18.7,4.86-2.05,9.75-4.2,14.67-6.37,2.45-1.15,4.88-2.39,7.35-3.6,2.46-1.22,4.95-2.42,7.36-3.74,9.73-5.16,19.67-10.42,29.78-15.78,2.55-1.28,5.1-2.57,7.67-3.86,2.58-1.26,5.12-2.68,7.78-3.75l3.97-1.72,4.07-1.55c2.7-1.08,5.49-1.98,8.27-2.91,11.16-3.62,22.75-6.72,34.63-8.5,23.86-3.12,47.8-1.2,69.78,4.4,22.12,5.56,41.46,16.49,60.45,25.6,4.68,2.4,9.48,4.49,14.19,6.6,2.36,1.03,4.66,2.15,7.04,3.08,2.4.87,4.76,1.8,7.14,2.62,9.52,3.25,19.09,5.39,28.42,6.71,9.34,1.32,18.46,1.8,27.2,1.66,8.75-.24,17.11-1.18,25.01-2.53,15.75-2.99,29.56-7.87,40.84-13.74,11.29-5.82,20.42-12.01,27.14-17.93,6.79-5.86,11-11.57,13.17-15.75.51-1.06.96-2,1.35-2.81.31-.84.52-1.57.71-2.14.36-1.15.52-1.74.47-1.76-.05-.01-.31.55-.76,1.66Z"/><path class="cls-20" d="M223.03,511.81c-.64-2.97-2.07-5.74-4.04-8.05-1.51-1.72-3.68-2.79-5.8-3.04-2.13-.27-4.18.12-5.94.84-1.6.65-3.01,1.57-4.13,2.72-.4-.83-.8-1.65-1.21-2.5-1.52-3.14-3.13-6.39-4.59-9.76-.15-.35-.29-.72-.44-1.08,1.03-1.76,2.03-3.49,3.07-5.27,2.17-3.91,4.35-7.99,5.66-12.64.64-2.31,1.04-4.77.93-7.23-.07-2.42-.56-4.89-1.67-7.17-.55-1.14-1.31-2.24-2.33-3.18-1.01-.93-2.42-1.67-3.92-1.79-1.49-.12-2.87.27-4.05.81-1.09.58-2.21,1.22-3.14,2.22-1.82,1.96-2.6,4.4-2.97,6.65-.35,2.28-.33,4.49-.15,6.63.36,4.29,1.29,8.32,2.37,12.17.53,1.91,1.14,3.84,1.72,5.61.17.58.36,1.15.56,1.72-.4.6-.81,1.21-1.23,1.82-1.91,2.76-3.9,5.74-5.62,9.05-1.72,3.3-3.18,7.04-3.48,11.12-.33,4.08.57,8.11,2.37,11.52,3.19,6.88,12.13,10.58,19.39,10.12,1.85-.12,3.89-.47,5.71-1.07.22,1,.4,1.98.59,2.94.29,1.79.51,3.53.51,5.08.02.22,0,.37-.03.5-.01.15-.03.3-.08.36-.02.04-.03.09-.04.13-.03.02-.05.03-.07.06,0,.07-.14.07-.2.13-.23.08-.56.1-.92.1-.88-.15-1.77-.19-2.69-.09-.79,0-1.56.06-2.25.21-.59.09-1.11.32-1.59.48-.46.23-.88.43-1.22.66-.33.25-.62.47-.87.66-.14.13-.23.25-.34.36-1.42,1.09-2.01,3.13-1.38,5,.6,1.78,2.67,2.79,4.45,2.79,2.03,0,3.95-.7,5.53-1.94,2.76-2.16,4.49-5.27,4.89-8.75.2-1.76.2-3.64,0-5.4-.18-1.57-.48-3.19-.87-4.85,1.33-.79,2.49-1.67,3.44-2.56,3.68-3.19,6.22-7.25,6.42-12.2.01-.28.02-.55.01-.83-.02-1.04-.15-2.09-.37-3.11ZM191.65,469.75c-.15-1.97-.14-3.95.17-5.84.31-1.88.97-3.64,2.11-4.84,2.59-2.72,6.2-2.29,7.83,1.08.04.35.67,1.71.65,4.18.02,2.77-.62,6.84-2.2,11.59-.2.59-.41,1.2-.66,1.8-.27.59-.55,1.2-.83,1.82-.57,1.23-1.1,2.54-1.9,3.79-.5.91-1.05,1.83-1.63,2.75-.5-1.6-.96-3.15-1.4-4.77-1-3.74-1.85-7.63-2.15-11.57ZM196.41,525.32c-1.47-.81-2.78-1.9-3.8-3.24-1-1.35-1.82-3-2.29-4.66-1.01-3.39-.43-7.22.78-10.94,1.12-3.29,2.74-6.55,4.55-9.8.63,1.43,1.78,3.73,3.34,6.7.68,1.21,1.3,2.61,1.99,4.09-.19.39-.36.78-.5,1.17-.95,2.67-.87,5.09-.3,6.58.2.53.52,1.14.88,1.58,1.36,1.66.69-1.27.66-1.9-.06-1.44.2-2.93.73-4.29.26.55.52,1.09.78,1.66.8,1.67,1.44,3.51,2.23,5.36.38.93.77,1.88,1.16,2.84.33.98.66,1.98,1,2.99.35,1.01.68,2.01,1.02,2.99.06.22.12.43.18.65-.74.2-1.68.39-3.19.47-3.28.17-6.26-.63-9.21-2.26ZM218.19,520.49c-1.15,2.4-3.7,4.43-5.91,5.39-.67-2.18-1.33-3.97-2.23-6.26-1.58-4.01-3.49-8.19-5.57-12.54.07-.09.14-.16.2-.25.19-.3.52-.48.78-.74.29-.22.52-.54.88-.7,1.26-.9,2.96-1.43,4.76-1.34,1.81.09,3.7.98,5.1,2.57,1.4,1.59,2.43,3.81,2.81,6.32.55,2.46.37,5.14-.82,7.55Z"/><path class="cls-10" d="M286.84,442.94c-.14-.08-.4.01-.72.23-.17.11-.36.26-.56.41-.24.14-.48.28-.74.46-1.07.65-2.7.86-4.76.67-3.48-.32-7.24-1.2-8.23,3.16-.36,1.77-.24,3.14.25,5.37.73,3.29,2.02,7.1,3.2,10.24.54,1.42,1.02,2.85,1.48,4.29.11.36,1.03,3.46,1.11,4.48-.7-.43-3.06-.4-4.34.05-2.27.8-4,2.26-4.63,2.83-1.3,1.2-1.57,3.3-.64,5.02.91,1.67,2.69,2.4,4.64,1.88.27-.08.56-.17.87-.27,1.43-.5,2.94-1.23,4.09-2.22,4.16-3.56,2.11-9.75.6-14.09-.92-2.63-1.93-5.24-2.84-7.88-.76-2.2-.66-3.16,1.72-3.74,1.77-.43,3.73-.55,5.44-1.17,1.46-.53,2.91-1.43,3.76-2.69.9-1.25,1.06-2.62,1.05-3.65-.1-1.42-.64-3.33-.76-3.4Z"/><path class="cls-20" d="M304.18,477.55c1.44,2.67,5.62,2.42,8.1.86,1.25-.78,3.01-1.83,3.82-3.08,1.26-1.94.56-3.78.18-5.9-.5-2.78-1.41-6.08-2.14-8.81-1.1-4.05-2.23-7.66-2.93-10.27-.35-1.31-.59-2.36-.69-3.05-.11-.71.01-1-.1-1.15-.05-.06-.17-.03-.37.16-.17.18-.33.51-.41.93-.19.83-.16,2,0,3.39.31,2.81,1.21,6.53,2.31,10.58.67,2.49,2.12,5.6,2.13,8.18-2.18.23-4.7.57-6.74,1.43-2.01.85-3.79,2.56-3.64,4.9.05.71.22,1.31.49,1.81Z"/><path class="cls-18" d="M353.28,428.09c-1.93-2.33-5.99-1.26-8.11.76-1.07,1.01-2.58,2.39-3.13,3.78-.85,2.14.2,3.82.99,5.82,1.04,2.62,2.58,5.67,3.84,8.2,1.88,3.76,3.7,7.07,4.91,9.49.6,1.21,1.05,2.19,1.29,2.86.24.68.19.99.32,1.1.06.05.17,0,.32-.23.13-.21.23-.57.22-1,.02-.86-.23-2-.66-3.33-.86-2.69-2.48-6.16-4.35-9.91-1.16-2.31-3.19-5.08-3.71-7.6,2.09-.65,4.5-1.49,6.33-2.74,1.8-1.23,3.21-3.26,2.59-5.52-.19-.69-.47-1.25-.83-1.68Z"/><path class="cls-20" d="M662.19,500.57c-.26-1.9-1.67-3.19-3.69-3.4-.27-.02-.58-.04-.91-.05-1.43-.03-6.22.13-8.25,3.26-1.07,1.67-.99,3.87-1.28,5.76-.37,2.45-.54,14.89-.68,17.36-.05.94-.09,6.12-.14,7-.79-.08-1.86-.1-3.17-.12-2.81,0-6.6-.16-10.7-.9-2.05-.38-4.03-.89-5.9-1.24-1.85-.37-3.6-.51-5.06-.5-1.11.02-2.03.17-2.75.34.14-3.9.24-11.7.44-14.42,1.2.73,2.62,1.12,4.23,1.16,2.39.05,4.52-.71,5.33-1.02,1.64-.67,2.63-2.54,2.36-4.47-.28-1.89-1.69-3.2-3.69-3.39-.27-.02-.59-.04-.92-.05-1.52-.04-3.17.12-4.6.64-4.56,1.62-4.56,3.78-5,11.44-.15,2.59-.2,5.18-.49,7.76-.63,5.54-1.16,9.7-1.02,10.14.12.12-.05.16.93.29.65.09,1.43.04,3.38.27,1.35.18,2.78.25,4.58.49,1.83.24,3.78.69,5.93,1.09,4.26.77,8.16,1.18,11.04,1,.98-.05,5.85.07,6.4-.88.44-.75.29-1.79.45-3.38.28-2.81.43-6.93.65-11.11.18-3.32.29-16.37.5-18.8,1.23.78,2.69,1.19,4.34,1.23,2.41.05,4.54-.69,5.33-1.02,1.65-.66,2.63-2.54,2.36-4.46Z"/><path class="cls-19" d="M714.09,440.32c-.12-.11-.39-.08-.75.07-.19.06-.41.17-.64.27-.26.08-.53.17-.82.28-1.19.39-2.82.25-4.8-.4-3.32-1.09-6.79-2.77-8.72,1.26-.74,1.64-.94,3.01-.95,5.3-.02,3.37.39,7.38.86,10.7.21,1.5.36,3,.49,4.51.04.38.23,3.6.1,4.62-.58-.58-2.9-1.07-4.24-.91-2.39.28-4.4,1.32-5.14,1.74-1.53.88-2.27,2.87-1.73,4.75.52,1.83,2.1,2.94,4.12,2.86.27-.02.58-.04.91-.07,1.51-.17,3.14-.54,4.48-1.25,4.85-2.55,4.21-9.04,3.7-13.61-.31-2.78-.72-5.54-1.02-8.31-.26-2.31.06-3.23,2.5-3.26,1.82-.02,3.76.28,5.56.06,1.53-.19,3.15-.75,4.27-1.79,1.15-1.02,1.61-2.32,1.84-3.33.22-1.41.11-3.38.01-3.48Z"/><path class="cls-20" d="M908.97,598.17c-6.3.92-14.29,1.5-23.85,1.27-13.35-.32-29.7-1.92-48.39-5.27-18.72-3.25-39.33-10.01-61.66-18.63-11.2-4.24-22.89-8.92-35.52-12.63-3.2-.8-6.37-1.82-9.69-2.42-1.65-.33-3.3-.72-4.98-1.01-1.69-.24-3.38-.47-5.09-.71-1.69-.3-3.44-.33-5.17-.45-1.74-.07-3.47-.3-5.26-.19-3.54.12-7.22.46-10.73,2.26-1.72.91-3.35,2.51-4.01,4.56-.68,2.04-.46,4.15.06,6,1.11,3.74,3.24,6.87,5.51,9.82,4.66,5.82,10.27,10.85,16.29,15.46,6.09,4.57,12.47,8.62,18.14,13.7,2.79,2.52,5.52,5.27,7.23,8.44.85,1.57,1.28,3.27,1.01,4.79-.27,1.52-1.35,2.85-2.77,3.91-6.05,4.42-14.41,4.31-22.34,4.41-8.04-.14-16.19-.8-24.39-1.79-8.2-1.03-16.46-2.17-24.64-4.18-4.1-.98-8.25-1.86-12.37-2.92-4.1-1.13-8.22-2.27-12.36-3.42-16.46-4.91-32.87-11.04-48.95-18.54-2.01-.94-4.02-1.88-6.03-2.83-2.02-.93-3.97-2.03-5.96-3.04-3.95-2.08-7.98-4.06-11.84-6.36-3.9-2.25-7.83-4.43-11.74-6.78-1.96-1.16-3.92-2.31-5.89-3.47-1.99-1.13-3.98-2.26-5.97-3.39-15.9-9.12-32.59-16.61-49.67-22l-3.19-1.04-3.23-.89c-2.15-.59-4.3-1.17-6.44-1.76-4.26-1.23-8.71-2.09-13.11-2.64-8.83-1.05-17.83-.93-26.44,1.32-4.28,1.13-8.51,2.88-12.07,5.79-1.76,1.46-3.32,3.27-4.35,5.41-1.04,2.13-1.48,4.55-1.35,6.87.16,2.35.68,4.51,1.7,6.66,1.04,2.11,2.65,3.89,4.45,5.26,3.64,2.72,7.77,4.14,11.78,5.38,8.04,2.39,16.16,3.8,23.25,7.22,3.52,1.69,6.68,3.98,8.9,6.98,1.04,1.49,2.04,3.22,2.47,4.84.43,1.66.27,3.38-.38,5-1.33,3.26-4.19,5.96-7.21,8.16-3.06,2.24-6.42,4.09-9.84,5.72-3.43,1.63-6.96,3.04-10.51,4.27-3.59,1.23-7.07,2.29-10.8,3.01-14.46,3.59-28.96,5-42.97,5.34-14.03.33-27.61-.3-40.65-1.07-13.03-.8-25.49-2.11-37.32-3.82-11.83-1.73-22.98-4.02-33.46-6.5-10.42-2.7-20.2-5.45-29.11-8.74-17.9-6.33-32.63-13.63-44.12-20.45-1.44-.84-2.85-1.66-4.21-2.46-1.32-.86-2.6-1.7-3.84-2.51-2.47-1.64-4.81-3.13-6.93-4.6-4.11-3.1-7.7-5.59-10.43-7.81-2.73-2.24-4.8-3.94-6.2-5.09-.71-.56-1.25-.99-1.61-1.27-.36-.28-.56-.41-.58-.39-.02.02.14.19.47.5.34.31.84.77,1.51,1.38,1.36,1.2,3.38,2.98,6.02,5.33,2.68,2.3,6.22,4.88,10.3,8.06,2.1,1.51,4.42,3.04,6.88,4.73,1.23.83,2.51,1.69,3.82,2.58,1.36.82,2.76,1.66,4.19,2.53,11.46,7.01,26.2,14.5,44.15,21.02,8.94,3.38,18.76,6.22,29.22,9.01,10.52,2.56,21.72,4.94,33.6,6.75,11.88,1.78,24.4,3.15,37.49,4.02,13.06.83,26.7,1.52,40.85,1.24,14.13-.29,28.83-1.67,43.54-5.27,3.64-.68,7.42-1.81,11.03-3.04,3.64-1.25,7.25-2.68,10.79-4.36,3.54-1.67,7.03-3.57,10.29-5.95,3.22-2.37,6.44-5.22,8.16-9.34.84-2.05,1.08-4.46.5-6.67-.6-2.24-1.68-4.02-2.91-5.8-2.56-3.47-6.13-6.03-9.9-7.85-7.59-3.66-15.84-5.07-23.65-7.43-3.88-1.19-7.76-2.59-10.86-4.92-1.53-1.17-2.8-2.6-3.63-4.27-.8-1.65-1.29-3.67-1.4-5.53-.27-3.82,1.59-7.44,4.68-9.92,3.07-2.5,6.95-4.15,10.98-5.2,8.1-2.11,16.8-2.24,25.34-1.22,4.28.55,8.5,1.36,12.73,2.58,2.12.58,4.24,1.16,6.37,1.74l3.19.88,3.15,1.03c16.87,5.34,33.31,12.72,49.11,21.78,1.98,1.12,3.96,2.25,5.94,3.37,1.96,1.16,3.92,2.31,5.87,3.46,3.88,2.33,7.88,4.55,11.8,6.81,3.9,2.32,7.96,4.32,11.95,6.41,2.01,1.02,3.97,2.13,6.01,3.06,2.03.95,4.06,1.9,6.09,2.85,16.22,7.55,32.78,13.72,49.37,18.65,4.17,1.15,8.33,2.29,12.47,3.43,4.15,1.07,8.33,1.95,12.47,2.93,4.11,1.01,8.32,1.81,12.47,2.46,4.16.66,8.31,1.25,12.45,1.73,8.27.99,16.51,1.64,24.7,1.77,4.1,0,8.19-.1,12.28-.64l3.07-.55c1.02-.28,2.05-.57,3.05-.89,1.94-.75,3.86-1.63,5.61-2.94,1.72-1.28,3.37-3.19,3.8-5.6.41-2.39-.29-4.69-1.29-6.53-2.04-3.74-4.94-6.55-7.85-9.19-5.87-5.22-12.41-9.35-18.34-13.78-5.91-4.49-11.41-9.41-15.87-14.96-2.17-2.78-4.16-5.77-5.09-8.93-.46-1.57-.58-3.17-.12-4.52.43-1.36,1.48-2.46,2.85-3.2,2.8-1.47,6.27-1.89,9.6-2,1.67-.11,3.38.11,5.06.17,1.68.11,3.37.13,5.03.41,1.66.23,3.32.45,4.97.67,1.64.28,3.26.65,4.88.97,3.25.58,6.4,1.57,9.55,2.34,12.5,3.61,24.18,8.21,35.41,12.39,22.4,8.51,43.23,15.19,62.11,18.31,18.82,3.21,35.22,4.65,48.67,4.79,9.56.1,17.56-.61,23.86-1.66v-.77Z"/><path class="cls-20" d="M908.97,610.12c-6.46,1.02-14.86,1.68-25,1.44-13.35-.32-29.7-1.92-48.39-5.27-18.72-3.25-39.33-10.01-61.66-18.63-11.2-4.23-22.89-8.92-35.52-12.63-3.2-.8-6.37-1.82-9.69-2.42-1.65-.33-3.3-.72-4.97-1.01-1.69-.24-3.38-.47-5.09-.71-1.69-.3-3.44-.33-5.17-.45-1.74-.07-3.47-.3-5.26-.19-3.54.12-7.22.46-10.73,2.26-1.72.91-3.35,2.51-4,4.56-.68,2.03-.46,4.15.07,6,1.11,3.74,3.24,6.87,5.51,9.82,4.66,5.82,10.27,10.85,16.28,15.46,6.08,4.57,12.47,8.62,18.14,13.7,2.79,2.52,5.52,5.27,7.23,8.44.85,1.57,1.28,3.27,1.01,4.79-.27,1.52-1.35,2.85-2.77,3.91-6.05,4.42-14.41,4.31-22.34,4.41-8.04-.14-16.19-.79-24.39-1.79-8.2-1.03-16.46-2.17-24.64-4.18-4.1-.98-8.25-1.86-12.37-2.92-4.1-1.13-8.22-2.27-12.36-3.42-16.46-4.91-32.87-11.04-48.95-18.54-2.01-.94-4.02-1.88-6.03-2.83-2.02-.93-3.97-2.03-5.96-3.04-3.95-2.08-7.98-4.06-11.84-6.36-3.9-2.25-7.83-4.43-11.74-6.78-1.96-1.16-3.92-2.32-5.89-3.48-1.99-1.13-3.98-2.26-5.97-3.39-15.9-9.12-32.59-16.62-49.67-22.01l-3.19-1.04-3.23-.89c-2.15-.59-4.3-1.17-6.44-1.75-4.26-1.23-8.71-2.09-13.11-2.64-8.83-1.05-17.83-.93-26.44,1.32-4.28,1.13-8.51,2.88-12.07,5.79-1.76,1.46-3.32,3.28-4.35,5.41-1.04,2.13-1.48,4.55-1.35,6.87.16,2.35.67,4.51,1.7,6.66,1.04,2.11,2.65,3.89,4.45,5.25,3.64,2.72,7.77,4.15,11.78,5.38,8.04,2.39,16.16,3.8,23.25,7.22,3.52,1.69,6.68,3.98,8.9,6.98,1.05,1.5,2.05,3.22,2.47,4.84.43,1.66.27,3.38-.38,5-1.33,3.26-4.19,5.96-7.21,8.16-3.05,2.24-6.42,4.09-9.84,5.72-3.43,1.64-6.96,3.04-10.51,4.27-3.59,1.23-7.07,2.29-10.8,3-14.46,3.59-28.96,5.01-42.97,5.35-14.03.33-27.61-.3-40.65-1.07-13.03-.8-25.49-2.11-37.32-3.82-11.83-1.73-22.98-4.02-33.46-6.5-10.42-2.7-20.2-5.45-29.11-8.74-17.9-6.33-32.63-13.63-44.12-20.45-1.44-.84-2.85-1.66-4.21-2.46-1.32-.86-2.6-1.7-3.84-2.52-2.47-1.64-4.81-3.13-6.93-4.6-4.11-3.1-7.7-5.59-10.43-7.81-2.73-2.24-4.8-3.94-6.2-5.09-.71-.56-1.25-.99-1.61-1.27-.37-.28-.56-.41-.58-.39-.02.02.14.19.47.5.34.31.84.77,1.51,1.38,1.36,1.2,3.38,2.99,6.02,5.33,2.68,2.3,6.22,4.88,10.3,8.06,2.1,1.51,4.42,3.04,6.88,4.73,1.23.84,2.51,1.7,3.82,2.58,1.36.82,2.76,1.66,4.19,2.53,11.46,7.01,26.2,14.5,44.15,21.02,8.94,3.38,18.76,6.22,29.22,9.01,10.52,2.56,21.72,4.94,33.6,6.75,11.88,1.78,24.4,3.16,37.49,4.02,13.06.83,26.7,1.52,40.85,1.24,14.13-.29,28.83-1.67,43.54-5.28,3.64-.68,7.42-1.81,11.03-3.04,3.64-1.25,7.25-2.68,10.79-4.35,3.54-1.67,7.03-3.58,10.29-5.95,3.21-2.37,6.43-5.22,8.16-9.35.84-2.04,1.08-4.46.5-6.67-.61-2.24-1.68-4.01-2.91-5.8-2.56-3.48-6.14-6.03-9.91-7.85-7.59-3.66-15.84-5.07-23.65-7.43-3.88-1.19-7.76-2.59-10.86-4.93-1.53-1.17-2.8-2.6-3.63-4.27-.8-1.65-1.29-3.67-1.4-5.53-.27-3.82,1.59-7.44,4.68-9.92,3.07-2.5,6.95-4.15,10.98-5.2,8.1-2.11,16.81-2.24,25.34-1.22,4.28.55,8.5,1.36,12.73,2.58,2.12.58,4.24,1.16,6.37,1.74l3.19.88,3.15,1.03c16.87,5.34,33.31,12.72,49.1,21.78,1.98,1.13,3.96,2.25,5.94,3.37,1.96,1.16,3.92,2.31,5.87,3.46,3.88,2.33,7.88,4.55,11.8,6.81,3.9,2.32,7.96,4.32,11.95,6.41,2.01,1.02,3.97,2.13,6.01,3.06,2.03.95,4.06,1.9,6.09,2.85,16.22,7.55,32.78,13.72,49.37,18.65,4.17,1.15,8.33,2.29,12.47,3.43,4.15,1.07,8.33,1.95,12.47,2.93,8.28,2.02,16.67,3.16,24.92,4.18,8.27.99,16.51,1.64,24.7,1.76,4.1,0,8.19-.1,12.28-.64l3.07-.55c1.02-.28,2.05-.57,3.05-.89,1.94-.75,3.86-1.63,5.61-2.94,1.72-1.28,3.37-3.19,3.8-5.6.41-2.39-.29-4.69-1.29-6.53-2.04-3.74-4.94-6.55-7.85-9.19-5.87-5.22-12.41-9.35-18.34-13.78-5.91-4.49-11.4-9.41-15.87-14.96-2.17-2.78-4.16-5.77-5.09-8.93-.46-1.57-.58-3.17-.12-4.52.43-1.36,1.48-2.46,2.85-3.2,2.8-1.47,6.26-1.89,9.6-2,1.67-.11,3.38.11,5.06.17,1.68.11,3.37.13,5.03.41,1.66.23,3.32.45,4.97.67,1.64.28,3.26.65,4.88.97,3.25.58,6.39,1.57,9.54,2.34,12.5,3.61,24.18,8.21,35.41,12.39,22.4,8.51,43.23,15.19,62.11,18.3,18.82,3.21,35.22,4.65,48.67,4.8,10.13.11,18.55-.69,25.02-1.85v-.75Z"/><path class="cls-20" d="M908.97,625.03c-6.63,1.16-15.51,1.95-26.44,1.7-13.35-.32-29.7-1.92-48.39-5.27-18.72-3.25-39.33-10.01-61.66-18.64-11.2-4.24-22.89-8.92-35.52-12.63-3.2-.8-6.37-1.82-9.69-2.42-1.65-.33-3.3-.72-4.97-1.01-1.69-.24-3.38-.47-5.09-.71-1.69-.3-3.44-.33-5.17-.45-1.74-.07-3.47-.3-5.26-.19-3.54.12-7.22.46-10.73,2.26-1.72.91-3.35,2.51-4.01,4.56-.68,2.03-.46,4.15.07,6,1.11,3.74,3.24,6.87,5.51,9.82,4.66,5.82,10.26,10.86,16.28,15.46,6.08,4.57,12.47,8.62,18.14,13.7,2.79,2.52,5.52,5.27,7.23,8.44.85,1.57,1.28,3.27,1.01,4.79-.27,1.52-1.35,2.85-2.77,3.91-6.05,4.42-14.41,4.31-22.34,4.41-8.04-.14-16.19-.79-24.39-1.79-8.2-1.03-16.46-2.16-24.64-4.17-4.1-.98-8.25-1.86-12.37-2.92-4.1-1.13-8.22-2.27-12.36-3.42-16.46-4.91-32.87-11.04-48.95-18.54-2.01-.94-4.02-1.89-6.03-2.83-2.02-.93-3.97-2.03-5.96-3.04-3.95-2.08-7.98-4.06-11.84-6.36-3.9-2.25-7.83-4.43-11.74-6.78-1.96-1.16-3.92-2.32-5.89-3.48-1.99-1.13-3.98-2.26-5.97-3.39-15.9-9.12-32.59-16.62-49.67-22.01l-3.19-1.04-3.23-.89c-2.15-.59-4.3-1.17-6.44-1.75-4.26-1.23-8.71-2.09-13.11-2.64-8.83-1.05-17.83-.93-26.44,1.32-4.28,1.13-8.51,2.89-12.07,5.79-1.76,1.46-3.32,3.28-4.35,5.41-1.04,2.13-1.48,4.55-1.35,6.87.16,2.35.67,4.51,1.7,6.66,1.04,2.12,2.65,3.89,4.45,5.26,3.64,2.72,7.77,4.15,11.78,5.38,8.04,2.39,16.16,3.8,23.25,7.22,3.52,1.68,6.68,3.98,8.9,6.98,1.05,1.49,2.05,3.22,2.47,4.84.43,1.66.27,3.38-.37,5-1.33,3.26-4.18,5.96-7.21,8.17-3.05,2.24-6.42,4.09-9.84,5.72-3.43,1.63-6.96,3.04-10.51,4.27-3.59,1.23-7.07,2.29-10.8,3-14.46,3.59-28.96,5-42.97,5.35-14.03.33-27.61-.3-40.65-1.06-13.03-.8-25.49-2.11-37.32-3.82-11.83-1.73-22.98-4.03-33.46-6.51-10.42-2.7-20.2-5.45-29.11-8.74-17.9-6.34-32.63-13.63-44.12-20.45-1.44-.85-2.85-1.67-4.21-2.46-1.32-.86-2.6-1.7-3.84-2.51-2.47-1.64-4.81-3.13-6.93-4.6-4.11-3.1-7.7-5.59-10.43-7.81-2.73-2.24-4.8-3.94-6.2-5.09-.71-.56-1.25-.99-1.61-1.27-.36-.28-.56-.41-.58-.39-.02.02.14.19.47.5.34.31.84.77,1.51,1.38,1.36,1.2,3.38,2.99,6.03,5.33,2.68,2.3,6.22,4.88,10.3,8.06,2.1,1.51,4.42,3.04,6.88,4.73,1.23.84,2.51,1.7,3.82,2.58,1.36.82,2.75,1.66,4.19,2.53,11.46,7.01,26.2,14.5,44.15,21.02,8.94,3.38,18.76,6.22,29.22,9.01,10.52,2.56,21.72,4.94,33.6,6.75,11.88,1.78,24.4,3.16,37.49,4.03,13.06.83,26.7,1.52,40.85,1.24,14.13-.29,28.83-1.67,43.54-5.27,3.64-.68,7.42-1.81,11.03-3.04,3.64-1.25,7.25-2.68,10.79-4.36,3.54-1.67,7.03-3.57,10.29-5.95,3.22-2.37,6.43-5.22,8.16-9.35.84-2.05,1.07-4.46.5-6.67-.61-2.24-1.68-4.01-2.91-5.8-2.56-3.48-6.14-6.03-9.91-7.85-7.59-3.66-15.84-5.07-23.65-7.43-3.88-1.19-7.76-2.59-10.85-4.93-1.53-1.17-2.8-2.6-3.63-4.27-.8-1.65-1.29-3.67-1.39-5.53-.27-3.82,1.6-7.44,4.69-9.92,3.07-2.5,6.95-4.15,10.97-5.2,8.1-2.11,16.81-2.25,25.34-1.22,4.28.55,8.5,1.36,12.73,2.58,2.12.58,4.24,1.16,6.36,1.74l3.19.88,3.15,1.03c16.87,5.34,33.31,12.72,49.1,21.79,1.98,1.13,3.96,2.25,5.94,3.37,1.96,1.16,3.92,2.31,5.87,3.46,3.88,2.33,7.88,4.55,11.8,6.81,3.9,2.32,7.96,4.32,11.95,6.41,2.01,1.02,3.97,2.12,6.01,3.06,2.03.95,4.06,1.9,6.09,2.85,16.22,7.55,32.78,13.72,49.38,18.65,4.17,1.15,8.33,2.29,12.47,3.43,4.15,1.07,8.33,1.95,12.47,2.93,4.12,1.01,8.32,1.81,12.47,2.46,4.16.66,8.31,1.25,12.45,1.73,8.27.99,16.51,1.64,24.7,1.77,4.1,0,8.19-.11,12.28-.64l3.07-.55c1.02-.28,2.05-.57,3.05-.89,1.94-.75,3.86-1.63,5.61-2.94,1.72-1.28,3.37-3.19,3.8-5.6.41-2.39-.29-4.69-1.29-6.53-2.04-3.74-4.94-6.55-7.85-9.19-5.87-5.22-12.42-9.35-18.34-13.78-5.91-4.49-11.4-9.41-15.87-14.96-2.17-2.78-4.16-5.77-5.09-8.93-.46-1.57-.58-3.17-.12-4.52.43-1.36,1.48-2.46,2.85-3.2,2.79-1.47,6.26-1.89,9.6-2,1.67-.11,3.38.11,5.06.17,1.68.11,3.37.13,5.03.41,1.66.22,3.32.45,4.97.67,1.64.28,3.26.65,4.88.97,3.25.58,6.39,1.57,9.54,2.34,12.5,3.61,24.18,8.22,35.41,12.39,22.4,8.51,43.23,15.19,62.11,18.31,18.82,3.21,35.22,4.65,48.67,4.8,10.92.11,19.82-.82,26.46-2.13v-.72Z"/><path class="cls-20" d="M908.97,639.94c-6.75,1.3-16.16,2.22-27.88,1.95-13.35-.32-29.7-1.92-48.39-5.27-18.72-3.25-39.33-10.01-61.66-18.64-11.2-4.24-22.88-8.92-35.52-12.64-3.2-.8-6.37-1.82-9.69-2.42-1.65-.33-3.3-.72-4.98-1.01-1.69-.24-3.38-.47-5.09-.71-1.7-.3-3.44-.33-5.17-.45-1.75-.07-3.47-.3-5.26-.19-3.54.12-7.22.46-10.73,2.26-1.72.91-3.35,2.51-4,4.56-.68,2.03-.46,4.15.07,6,1.11,3.74,3.23,6.87,5.5,9.82,4.66,5.82,10.26,10.86,16.28,15.46,6.08,4.57,12.47,8.62,18.14,13.7,2.79,2.52,5.53,5.27,7.23,8.44.85,1.57,1.28,3.27,1.02,4.79-.27,1.52-1.35,2.85-2.77,3.91-6.05,4.43-14.41,4.32-22.34,4.41-8.04-.14-16.19-.79-24.39-1.79-8.2-1.03-16.46-2.16-24.64-4.17-4.1-.98-8.25-1.86-12.37-2.92-4.1-1.14-8.22-2.27-12.36-3.42-16.46-4.91-32.87-11.05-48.95-18.54-2.01-.94-4.02-1.88-6.03-2.83-2.02-.93-3.97-2.03-5.96-3.04-3.95-2.08-7.98-4.06-11.84-6.36-3.9-2.25-7.83-4.43-11.74-6.78-1.96-1.16-3.92-2.32-5.89-3.48-1.99-1.13-3.98-2.26-5.97-3.39-15.9-9.12-32.59-16.62-49.67-22.01l-3.19-1.04-3.23-.89c-2.15-.59-4.3-1.17-6.44-1.75-4.26-1.23-8.71-2.09-13.11-2.65-8.83-1.05-17.83-.93-26.44,1.32-4.28,1.13-8.51,2.88-12.07,5.79-1.76,1.46-3.32,3.28-4.35,5.41-1.04,2.13-1.49,4.55-1.35,6.87.16,2.35.67,4.51,1.7,6.66,1.04,2.11,2.65,3.89,4.45,5.26,3.64,2.72,7.77,4.15,11.78,5.38,8.04,2.39,16.16,3.8,23.25,7.22,3.52,1.69,6.68,3.98,8.9,6.98,1.05,1.49,2.05,3.22,2.47,4.84.43,1.66.27,3.38-.37,5-1.32,3.26-4.18,5.96-7.21,8.17-3.05,2.24-6.42,4.09-9.84,5.72-3.43,1.64-6.96,3.04-10.51,4.27-3.59,1.23-7.07,2.29-10.8,3-14.46,3.59-28.96,5-42.97,5.35-14.03.34-27.61-.3-40.65-1.06-13.03-.81-25.49-2.11-37.32-3.82-11.83-1.73-22.98-4.03-33.46-6.5-10.42-2.7-20.2-5.46-29.11-8.74-17.91-6.34-32.63-13.63-44.12-20.45-1.44-.84-2.85-1.67-4.21-2.46-1.32-.86-2.6-1.7-3.84-2.51-2.47-1.64-4.81-3.13-6.93-4.6-4.11-3.1-7.7-5.59-10.43-7.81-2.73-2.24-4.8-3.94-6.2-5.09-.71-.56-1.25-.99-1.61-1.27-.36-.28-.56-.41-.58-.39-.02.02.14.19.47.5.34.31.84.77,1.51,1.38,1.36,1.2,3.38,2.98,6.03,5.33,2.68,2.3,6.22,4.88,10.3,8.06,2.1,1.51,4.42,3.04,6.88,4.73,1.23.83,2.51,1.69,3.82,2.58,1.36.82,2.75,1.66,4.19,2.53,11.46,7.01,26.2,14.5,44.16,21.02,8.94,3.38,18.76,6.22,29.22,9.01,10.52,2.57,21.72,4.94,33.6,6.75,11.88,1.78,24.4,3.16,37.49,4.03,13.06.83,26.7,1.52,40.85,1.24,14.13-.29,28.83-1.67,43.54-5.28,3.64-.68,7.42-1.81,11.03-3.04,3.64-1.25,7.25-2.68,10.8-4.35,3.54-1.68,7.03-3.58,10.29-5.95,3.22-2.37,6.44-5.22,8.16-9.35.84-2.05,1.07-4.47.49-6.67-.61-2.24-1.69-4.01-2.91-5.8-2.56-3.48-6.14-6.03-9.91-7.85-7.59-3.66-15.84-5.07-23.65-7.43-3.88-1.19-7.76-2.59-10.85-4.93-1.53-1.17-2.8-2.6-3.63-4.28-.8-1.65-1.29-3.67-1.39-5.53-.27-3.82,1.6-7.44,4.69-9.92,3.07-2.5,6.95-4.15,10.98-5.2,8.1-2.11,16.81-2.24,25.34-1.22,4.28.55,8.5,1.36,12.73,2.58,2.12.58,4.24,1.16,6.37,1.74l3.19.88,3.15,1.03c16.87,5.34,33.31,12.72,49.1,21.79,1.98,1.12,3.96,2.25,5.94,3.37,1.96,1.16,3.92,2.31,5.87,3.46,3.88,2.33,7.88,4.55,11.8,6.81,3.9,2.32,7.96,4.32,11.95,6.41,2.01,1.02,3.97,2.13,6.01,3.06,2.03.95,4.06,1.9,6.09,2.85,16.22,7.55,32.78,13.72,49.38,18.65,4.17,1.15,8.33,2.29,12.47,3.43,4.15,1.07,8.33,1.95,12.47,2.93,4.12,1.01,8.32,1.81,12.48,2.46,4.16.66,8.31,1.25,12.45,1.73,8.27.99,16.51,1.64,24.7,1.76,4.1,0,8.19-.1,12.28-.64l3.07-.55c1.02-.28,2.05-.57,3.05-.89,1.94-.75,3.86-1.64,5.61-2.94,1.72-1.28,3.37-3.19,3.79-5.6.41-2.4-.3-4.69-1.29-6.53-2.04-3.74-4.94-6.55-7.85-9.19-5.87-5.22-12.41-9.35-18.34-13.78-5.91-4.49-11.4-9.41-15.87-14.96-2.17-2.78-4.16-5.77-5.09-8.93-.46-1.57-.58-3.17-.12-4.52.43-1.36,1.48-2.46,2.85-3.21,2.8-1.47,6.26-1.89,9.6-2,1.67-.11,3.38.11,5.06.17,1.69.11,3.37.13,5.03.41,1.66.22,3.32.45,4.97.67,1.64.28,3.26.65,4.88.97,3.25.58,6.4,1.57,9.55,2.34,12.5,3.61,24.18,8.22,35.41,12.4,22.4,8.51,43.23,15.2,62.11,18.31,18.82,3.21,35.22,4.65,48.67,4.79,11.71.12,21.14-.95,27.9-2.42v-.68Z"/><path class="cls-20" d="M908.97,654.8c-6.83,1.46-16.72,2.55-29.33,2.25-13.35-.32-29.71-1.92-48.39-5.27-18.72-3.25-39.33-10.01-61.66-18.64-11.2-4.24-22.88-8.92-35.52-12.63-3.2-.8-6.37-1.82-9.69-2.42-1.65-.33-3.3-.72-4.98-1.01-1.69-.24-3.38-.47-5.09-.71-1.7-.3-3.44-.33-5.17-.45-1.75-.07-3.47-.3-5.26-.19-3.54.12-7.22.46-10.73,2.26-1.72.91-3.35,2.51-4,4.56-.68,2.03-.46,4.15.06,6,1.11,3.74,3.24,6.87,5.51,9.82,4.66,5.83,10.26,10.86,16.28,15.47,6.08,4.57,12.46,8.62,18.14,13.7,2.79,2.52,5.53,5.27,7.23,8.44.85,1.57,1.29,3.27,1.02,4.79-.27,1.52-1.35,2.85-2.77,3.91-6.05,4.43-14.41,4.32-22.34,4.42-8.04-.14-16.19-.79-24.39-1.79-8.2-1.03-16.46-2.17-24.64-4.18-4.1-.98-8.25-1.86-12.37-2.92-4.1-1.13-8.22-2.27-12.36-3.42-16.46-4.91-32.87-11.04-48.95-18.54-2.01-.94-4.02-1.89-6.03-2.83-2.02-.93-3.97-2.03-5.96-3.04-3.95-2.08-7.98-4.06-11.84-6.36-3.9-2.25-7.83-4.43-11.74-6.78-1.96-1.16-3.92-2.32-5.89-3.48-1.99-1.13-3.98-2.26-5.97-3.39-15.9-9.12-32.59-16.62-49.67-22.01l-3.19-1.04-3.22-.89c-2.15-.59-4.3-1.17-6.44-1.76-4.26-1.23-8.71-2.09-13.11-2.65-8.83-1.05-17.83-.93-26.44,1.32-4.28,1.13-8.51,2.88-12.07,5.79-1.76,1.46-3.32,3.27-4.35,5.41-1.04,2.13-1.49,4.55-1.35,6.87.16,2.35.67,4.51,1.7,6.66,1.04,2.11,2.65,3.9,4.44,5.26,3.64,2.72,7.77,4.15,11.78,5.38,8.04,2.39,16.16,3.8,23.25,7.22,3.52,1.69,6.68,3.98,8.91,6.98,1.05,1.49,2.05,3.22,2.47,4.84.43,1.66.27,3.38-.37,5-1.32,3.26-4.18,5.96-7.21,8.17-3.05,2.24-6.42,4.09-9.84,5.72-3.43,1.64-6.96,3.04-10.51,4.27-3.59,1.23-7.07,2.29-10.8,3-14.46,3.59-28.96,5-42.97,5.35-14.03.34-27.61-.3-40.65-1.07-13.03-.8-25.49-2.11-37.32-3.82-11.83-1.73-22.98-4.02-33.46-6.5-10.42-2.7-20.2-5.45-29.11-8.74-17.9-6.33-32.63-13.63-44.12-20.45-1.44-.84-2.85-1.67-4.21-2.46-1.32-.86-2.6-1.7-3.84-2.51-2.47-1.64-4.81-3.13-6.93-4.6-4.11-3.1-7.7-5.59-10.43-7.81-2.73-2.24-4.8-3.94-6.2-5.09-.71-.56-1.25-.99-1.61-1.27-.37-.28-.56-.41-.58-.39-.02.02.14.19.47.5.34.31.84.77,1.51,1.38,1.36,1.2,3.38,2.99,6.02,5.33,2.68,2.3,6.22,4.88,10.3,8.06,2.1,1.51,4.42,3.04,6.88,4.73,1.23.83,2.51,1.69,3.82,2.58,1.36.82,2.75,1.66,4.19,2.53,11.46,7.01,26.2,14.5,44.16,21.02,8.94,3.38,18.76,6.22,29.22,9.01,10.52,2.56,21.72,4.94,33.6,6.75,11.88,1.78,24.4,3.15,37.49,4.02,13.06.83,26.7,1.52,40.85,1.24,14.13-.29,28.83-1.67,43.54-5.27,3.64-.68,7.42-1.81,11.03-3.04,3.64-1.25,7.25-2.68,10.79-4.36,3.54-1.67,7.03-3.58,10.29-5.95,3.21-2.37,6.43-5.22,8.16-9.35.83-2.05,1.07-4.46.49-6.67-.61-2.24-1.69-4.01-2.91-5.8-2.56-3.48-6.14-6.03-9.91-7.85-7.59-3.66-15.84-5.07-23.65-7.43-3.88-1.19-7.76-2.59-10.85-4.93-1.53-1.17-2.8-2.6-3.62-4.28-.8-1.65-1.29-3.67-1.39-5.53-.27-3.82,1.6-7.44,4.69-9.92,3.07-2.5,6.95-4.15,10.98-5.2,8.1-2.11,16.81-2.25,25.34-1.22,4.28.55,8.5,1.36,12.73,2.58,2.12.58,4.24,1.16,6.37,1.74l3.19.88,3.15,1.03c16.87,5.34,33.31,12.72,49.1,21.79,1.98,1.13,3.96,2.25,5.94,3.37,1.96,1.16,3.92,2.31,5.87,3.46,3.88,2.33,7.88,4.55,11.8,6.81,3.9,2.32,7.96,4.32,11.94,6.41,2.01,1.02,3.97,2.13,6.01,3.06,2.03.95,4.06,1.9,6.09,2.85,16.22,7.55,32.78,13.72,49.38,18.65,4.17,1.15,8.33,2.29,12.47,3.43,4.16,1.07,8.33,1.95,12.47,2.93,8.28,2.02,16.67,3.16,24.92,4.18,8.27.99,16.51,1.64,24.7,1.77,4.1,0,8.19-.1,12.28-.64l3.07-.55c1.02-.28,2.05-.57,3.05-.89,1.94-.75,3.85-1.64,5.61-2.94,1.72-1.28,3.37-3.19,3.79-5.6.41-2.39-.3-4.68-1.3-6.53-2.04-3.74-4.94-6.55-7.85-9.19-5.87-5.22-12.42-9.35-18.34-13.78-5.91-4.49-11.4-9.41-15.87-14.96-2.17-2.78-4.16-5.77-5.09-8.93-.46-1.57-.58-3.17-.12-4.52.43-1.36,1.48-2.46,2.85-3.2,2.8-1.47,6.26-1.89,9.6-2,1.67-.11,3.38.11,5.06.17,1.69.11,3.37.13,5.03.41,1.66.23,3.32.45,4.97.67,1.64.28,3.26.65,4.88.97,3.25.58,6.4,1.57,9.55,2.34,12.5,3.61,24.18,8.22,35.41,12.4,22.4,8.51,43.23,15.2,62.11,18.31,18.82,3.21,35.22,4.65,48.67,4.8,12.59.13,22.5-1.13,29.34-2.76v-.65Z"/><path class="cls-19" d="M223.55,596.32c-.07-.15-.18-.28-.33-.4-.37-.29-.76-.56-1.16-.81-.82-.49-1.68-.91-2.54-1.33-.8-.39-1.62-.75-2.47-1.04-.62-.21-1.3-.44-1.93-.43-.68.01-.93.93-1.1,1.44-.56,1.65-.86,3.38-1.2,5.09-.21,1.03-.42,2.06-.63,3.09-1.21,5.98-2.65,14.31-3.79,23.58-1.21,9.24-1.79,17.68-1.99,23.81-.11,6.1.13,9.89.42,9.91.03,0,.38.99,3.86,2.54,2.21.88,4.89,1.39,4.95,1.36.64-.42,1.79-14.99,3.94-33.45.38-3.08.76-6.16,1.16-9.23.36-2.82.74-5.65,1.14-8.47.32-2.31.65-4.62.96-6.93.3-2.28.59-4.62.79-6.94.05-.54.18-1.26-.06-1.77ZM214.92,592.36c-.06.02-.12.03-.16.05,0-.02.08-.03.16-.05Z"/><path class="cls-19" d="M260.43,644.73c-.63-.94-1.21-1.9-2.04-2.61l-.59-.55-.66-.41c-.44-.26-.84-.55-1.28-.76-3.65-1.62-8.07-1.02-10.97,1.75-.26.23-.55.5-.78.64-.11.08-.16.11-.18.09l-.07-.06c-2.87-2.81-2.45-7.44.92-9.67l.08-.04s.06.02.16.12c1.51,1.56,2.58,3.26,4.7,4.07,2.02.78,4.28,1.06,6.39.5,2.14-.57,3.79-1.84,5.31-3.4,1.47-1.75,2.63-3.89,3.56-6.25.85-2.38,1.42-4.99,1.58-7.75.11-2.75-.3-5.68-1.41-8.42-1.1-2.76-2.93-5.11-5.1-6.87-2.17-1.76-4.68-2.88-7.18-3.45-4.29-.99-10.17.03-13.59,2.94-1.49,1.19-2.98,3.02-3.88,5.43-.24.59-.36,1.25-.53,1.89-.03.69-.22,1.35-.12,2.08-.01,1.42.5,2.94,1.45,4.16.93,1.31,2.37,1.95,3.7,2.43,1.41.44,3.16.25,4.34-.42,2.36-1.4,3.19-3.83,3.37-5.74.2-2.05-.25-4.42-2.14-5.58-.63-.39-1.4-.68-2.15-.71-.07,0-.94.08-.93.07,1.12-3.11,5.73-3.6,7.46-3.46,2.89.23,6.07,1.58,8.17,3.55,2.48,2.32,4,6.54,4.07,9.81.07,3.51-.55,7.24-2.39,10.34-2.98,5.04-9.09,6.96-12.61,1.44-.64-1.02-1.08-2.27-1.52-3.38-.94-2.35-1.13-.33-2.68,1.43-1.01,1.15-2.03,2.32-3.17,3.32-1.91,1.65-3.8,2.98-5.21,3.87-1.4.91-2.34,1.29-2.3,1.48.01.04.05.05.15.06-.09,0-.14,0-.16.03-.08.17.79.73,1.99,1.92,1.22,1.17,2.81,2.9,4.38,4.93,1.03,1.34,2.19,2.76,2.99,4.27.47.9,1.09,2.59,1.53,2.69.87.21.4-1.56,2.44-4.03,4.3-5.25,10.17-1.77,12.12,3.7.95,2.66,1.2,9.02.25,12.12-1.94,6.31-6.56,9.64-12.61,9.37-2.1-.14-6.43-1.38-6.9-4.48.06-.01,1.61-.58,1.8-.69.24-.13.64-.29,1.02-.68.83-.68,1.76-2.11,1.93-4.08.18-1.91-.34-4.45-2.4-6.27-1.03-.87-2.54-1.41-4.01-1.22-1.4.2-2.93.58-4.09,1.68-1.16,1.02-1.96,2.42-2.21,3.81-.24.7-.18,1.39-.28,2.07.04.67.04,1.33.17,1.96,1.24,7.28,8.58,11.63,15.58,11.51,2.56-.09,5.23-.71,7.7-2.03,2.46-1.32,4.7-3.28,6.3-5.79,1.61-2.48,2.56-5.26,2.97-7.98.37-2.75.3-5.43-.08-7.93-.47-2.49-1.21-4.81-2.32-6.81Z"/><path class="cls-19" d="M231.23,599.52c-.29-.06-1.32,3.54-2.55,9.45-1.27,5.9-2.7,14.12-3.87,23.25-1.23,9.13-1.71,17.49-1.88,23.52-.05,6.05.2,9.78.49,9.78.33,0,.66-3.72,1.12-9.7.58-5.98,1.31-14.23,2.53-23.33,2.31-18.17,4.83-32.85,4.16-32.98Z"/><path class="cls-10" d="M341.23,659.71c-.12-.13-.41-.12-.81,0-.21.05-.46.14-.71.22-.29.06-.58.13-.9.21-1.31.3-3.03-.02-5.06-.91-3.43-1.49-6.95-3.64-9.42.46-.95,1.67-1.29,3.1-1.54,5.54-.36,3.58-.33,7.89-.18,11.47.07,1.62.08,3.23.07,4.85,0,.4-.11,3.85-.36,4.92-.56-.67-2.97-1.43-4.42-1.4-2.57.05-4.81.95-5.65,1.32-1.72.78-2.7,2.82-2.32,4.88.36,2,1.93,3.34,4.09,3.45.3.02.62.02.97.02,1.62-.04,3.4-.27,4.9-.88,5.42-2.23,5.4-9.2,5.31-14.1-.05-2.98-.21-5.96-.25-8.94-.04-2.48.39-3.42,2.99-3.22,1.94.16,3.97.68,5.91.63,1.65-.05,3.43-.47,4.72-1.47,1.33-.96,1.95-2.3,2.29-3.35.38-1.48.47-3.59.37-3.7Z"/><path class="cls-19" d="M598.09,657.41c.13,3.24,4.27,4.95,7.39,4.61,1.57-.17,3.75-.36,5.11-1.19,2.11-1.28,2.3-3.38,2.92-5.59.82-2.9,1.48-6.5,2.04-9.46.84-4.41,1.42-8.4,1.97-11.24.27-1.42.53-2.54.76-3.26.23-.74.48-.96.44-1.15-.02-.08-.15-.11-.43-.02-.24.1-.56.34-.83.71-.57.72-1.09,1.85-1.59,3.26-1.01,2.85-1.88,6.85-2.71,11.24-.51,2.72-.57,6.38-1.76,8.86-2.2-.8-4.78-1.64-7.15-1.76-2.33-.12-4.84.7-5.78,3.01-.29.71-.4,1.37-.38,1.97Z"/><path class="cls-10" d="M663.23,638.54c-.4-3.21-4.67-4.57-7.74-3.98-1.55.3-3.7.67-4.99,1.6-2,1.45-2.01,3.55-2.46,5.81-.57,2.97-.94,6.6-1.25,9.6-.47,4.47-.73,8.49-1.04,11.37-.15,1.43-.31,2.58-.48,3.31-.18.75-.4.99-.34,1.17.02.08.15.1.42-.02.23-.11.53-.38.77-.77.51-.76.94-1.94,1.32-3.39.77-2.92,1.3-6.98,1.77-11.42.29-2.75.04-6.41,1.02-8.98,2.26.62,4.91,1.24,7.27,1.17,2.33-.07,4.77-1.1,5.51-3.49.22-.73.29-1.39.21-1.99Z"/><path class="cls-19" d="M807.52,596.78c-.08-2.05-1.46-3.57-3.58-3.99-.28-.05-.6-.1-.96-.15-1.51-.18-6.62-.5-9.1,2.64-1.31,1.66-1.44,4.01-1.94,6-.64,2.57-2.08,15.79-2.47,18.4-.15,1-.71,6.51-.85,7.44-.83-.17-1.97-.3-3.36-.46-2.98-.29-7-.84-11.29-2.04-2.15-.61-4.2-1.36-6.16-1.92-1.93-.58-3.78-.91-5.33-1.05-1.18-.08-2.17-.02-2.95.09.55-4.14,1.44-12.42,1.93-15.29,1.2.89,2.67,1.46,4.38,1.66,2.55.29,4.89-.29,5.77-.55,1.81-.54,3.06-2.43,2.96-4.51-.11-2.04-1.48-3.57-3.58-3.98-.29-.05-.62-.1-.98-.15-1.61-.19-3.39-.19-4.97.21-5.01,1.27-5.22,3.56-6.47,11.67-.42,2.73-.74,5.49-1.31,8.2-1.23,5.83-2.21,10.2-2.11,10.69.11.14-.07.17.95.41.68.15,1.52.19,3.57.62,1.41.33,2.93.55,4.83.99,1.92.44,3.95,1.11,6.19,1.76,4.45,1.25,8.56,2.08,11.64,2.18,1.05.05,6.22.67,6.89-.29.55-.75.48-1.88.82-3.55.59-2.96,1.15-7.33,1.82-11.75.52-3.51,1.96-17.38,2.43-19.96,1.22.96,2.74,1.55,4.49,1.75,2.56.3,4.9-.27,5.78-.55,1.82-.54,3.06-2.44,2.95-4.5Z"/><path class="cls-19" d="M842.11,607.63c-.4-3.21-4.67-4.58-7.74-3.98-1.55.3-3.7.67-4.99,1.6-2,1.44-2.01,3.55-2.45,5.81-.57,2.96-.94,6.6-1.25,9.59-.47,4.47-.73,8.5-1.04,11.37-.15,1.44-.31,2.58-.48,3.31-.17.75-.4,1-.34,1.18.03.09.15.1.42-.02.23-.11.53-.38.77-.77.51-.76.94-1.93,1.32-3.38.77-2.92,1.3-6.98,1.77-11.43.29-2.75.04-6.41,1.03-8.98,2.26.61,4.91,1.25,7.27,1.17,2.33-.07,4.76-1.09,5.51-3.48.22-.73.29-1.39.21-1.99Z"/><ellipse class="cls-12" cx="466.85" cy="850.02" rx="164.28" ry="19.12"/><path class="cls-17" d="M478.4,187.78s.44-27.27-31.55-24.45c-38.34,3.38-75.98,35.94-79.96,73.06-3.99,37.12,28.23,52.16,28.23,52.16,0,0-4.72,15.81.13,24.59,0,0-17.64,1.38-20.97,15.85-3.33,14.47-11.58,30.55-11.58,30.55,0,0,34.42-12.26,38.76-38.49,0,0,26.31,1,36.9-18.26,0,0,77.53-22.61,85.91-50.51,8.38-27.89-11.31-20.49-12.79-26.24-1.48-5.76-1.76-31.77-33.08-38.25Z"/><path class="cls-6" d="M426.88,222.01c-21.58,16.68-49.19,21.73-60.31,19.52-.32,16.05,6.26,27.54,13.19,35.13.61.44.96.68.96.68l62.15-19.53-15.99-35.8Z"/><path class="cls-6" d="M511.48,226.03c-1.48-5.76-1.76-31.77-33.08-38.25.56,4.29-.69,9.65-.69,9.65l9.47,13.06-15.63,59.87,31,4.78c10.74-6.87,19.24-14.64,21.71-22.87,8.38-27.89-11.31-20.49-12.79-26.24Z"/><path class="cls-21" d="M505.63,233.27c-1.87-2.23-2.68-12.68-6.39-17.85-2.75-3.84-15.09-14.19-21.28-19.28-.14.8-.26,1.29-.26,1.29l9.47,13.06-7.98,30.58,3.11,30.95,20.25,3.12c9.56-6.11,17.33-12.94,20.67-20.17-5.4-11.43-16.15-19.98-17.59-21.7Z"/><path class="cls-22" d="M737.38,318.69l143.53,63.37-.83,1.78-145.21-60.21s-1.34-1.72,2.51-4.94Z"/><path class="cls-22" d="M523.03,709.58s12.27,39.18,1.42,130.77c0,0,53.82,6.14,78.36,6.14s-6.14-7.55-14.63-11.33c-8.5-3.78-44.85-20.77-49.57-29.74-4.72-8.97,20.77-93.94,20.77-93.94l-36.35-1.89Z"/><path class="cls-10" d="M546.06,805.64s-10.78-1.42-17.6,4.72l4.4,16.29s14.3-12.04,21.56-8.97l-8.36-12.04ZM535.64,818.28l-1.53-5.66c3.21-1.63,6.95-1.92,9.19-1.92h.23l1.77,2.55c-3.48,1.25-6.91,3.22-9.66,5.03Z"/><path class="cls-22" d="M406.11,715.87s-16.11,68.89-21.4,83.87c-6.61,18.73-16.44,36.35-20.54,40.13-4.09,3.78-23.21,22.03-22.58,23.92.63,1.89,15.11,7.55,29.27,0,14.16-7.55,9.36-12.12,21.16-13.3,0,0,2.59-8.98.47-16.76-.71-2.6-1.81-14.63,8.58-36.98,10.39-22.34,36.82-72.39,36.82-72.39l-31.79-8.5Z"/><path class="cls-10" d="M373.62,814.85l-3.54,11.33c12.04-4.01,25.49-.47,25.49-.47l2.83-9.91c-9.91-12.04-24.78-.94-24.78-.94ZM391.87,819.72c-2.39-.35-5.47-.65-8.88-.65-1.83,0-3.6.09-5.33.26l.36-1.14c1.82-1.07,5.33-2.8,8.94-2.8,2.15,0,3.97.61,5.6,1.9l-.69,2.43Z"/><path class="cls-9" d="M479.6,704.85s25.96-4.25,55.71-16.52c29.74-12.27-14.63-74.12-14.63-74.12l-40.13,47.21-.94,43.43Z"/><path class="cls-9" d="M572.6,405.56v125.57l20.77,126.52s47.21-30.21,31.16-145.4c-16.05-115.19-51.93-106.69-51.93-106.69Z"/><path class="cls-19" d="M516.77,305.71s53.62,5.74,71.24,9.52c17.62,3.78,134.7-16.37,134.7-16.37l-3.19,17.51s-57.66,26.75-132.57,39.34c0,0,16.79,20.57,30.01,72.81,13.22,52.24,38.4,184.42-27.07,241.7,0,0,45.95-55.39,4.41-243.59l-81.79-119.28,4.25-1.65Z"/><path class="cls-10" d="M603.28,418.3l-76.79-111.57h0c-7.05-.8-10.16-1.08-10.16-1.08l-3.81,1.71,81.79,119.28c41.54,188.2-4.41,243.59-4.41,243.59,11.49-9.91,19.36-21.4,25.02-32.73,14.63-71.44,8.82-126.5-11.64-219.2Z"/><path class="cls-4" d="M578.58,488.96s6.92,49.1,18.25,90.01c11.33,40.91,9.44,87.49-26.44,122.11,0,0-17.62,10.7-49.73-2.52l-13.22-66.09,32.1-140.36s15.11,7.55,39.03-3.15Z"/><path class="cls-3" d="M578.58,488.96s-.48,19.79-30.04,18.88c-29.56-.91-5.91-17.28-5.91-17.28l35.95-1.6Z"/><path class="cls-3" d="M548.99,495.56l-3.54-1.66c-3.83-.76-5.91-1.8-5.91-1.8l-32.1,140.36,13.22,66.09c4.34,1.79,19.07,3.84,22.87,4.83-16.37-50.93,5.46-207.83,5.46-207.83Z"/><path class="cls-12" d="M578.58,488.96s9.13-14.48,15.74-53.66l-52.87,18.88-1.89,37.92s20.46,12.27,39.03-3.15Z"/><path class="cls-12" d="M495.18,305.63l6.61-2.52,16.88,6.02s11.8,24.67,11.45,24.55c-.35-.12-26.44-3.42-26.44-3.42l-15.46-20.42,6.96-4.21Z"/><path class="cls-11" d="M506.27,288.48l12.75,21.4-18.88-7.24s5.9-4.88,6.14-14.16Z"/><path class="cls-21" d="M438.36,302.78s2-.58,5.38-1.67c1.37-10.19.89-22.56-11.3-16.62-19.57,9.54-37.32,4.06-37.32,4.06,0,0-4.72,15.81.13,24.59,0,0-.18.01-.5.05,1.56,2.58,3.72,5.22,6.7,7.86,0,0,26.31,1,36.9-18.26Z"/><path class="cls-12" d="M394.01,293.33c-1.01,5.37-1.93,14.07,1.24,19.8,0,0-.18.01-.5.05,1.56,2.58,3.72,5.22,6.7,7.86,0,0,14.22.53,25.96-6.84.38-12.07-22.58-18.51-33.41-20.87Z"/><polygon class="cls-14" points="429.4 275.74 431.21 286.12 482.19 311.14 501.79 303.12 509.1 285.18 429.4 275.74"/><path class="cls-15" d="M477.71,197.43s18.32,13.31,23.86,25.91c0,0,.56,5-.46,8.09l4.73,8.14s7.87.76,9.54,14.71c1.67,13.96-4.78,26.2-4.64,29.36.14,3.16.9,11.71-12.1,14.14-13,2.42-40.95-.36-58.02-16.75,0,0-12.95,6.6-19.73-16.82l21.98-6.41s-7.45-9.4-12.9-17.9c0,0-9.1-17.84,1.19-30.82,0,0,14.54-19.12,45.65-8.32,0,0,.43-1.32.89-3.34Z"/><path class="cls-12" d="M520.67,698.56s-18.41,19.51-10.62,22.82c7.79,3.3,16.76-5.66,20.77-2.12,4.01,3.54,4.48,11.8,13.93,5.9,9.44-5.9,10.15-8.73,13.45-3.3,3.3,5.43,8.97,8.97,13.69-.94,4.72-9.91-1.49-19.83-1.49-19.83l-.39.11c-16.3,4.43-33.59,3.51-49.33-2.62h0Z"/><path class="cls-12" d="M405.04,699.18s-22.64,14.39-15.9,19.51c6.74,5.12,17.64-1.37,20.66,3.05s1.45,12.54,12.05,9.14c10.6-3.4,11.98-5.97,13.85.1,1.87,6.07,6.49,10.9,13.5,2.45,7.01-8.45,3.42-19.59,3.42-19.59l-47.58-14.66Z"/><path class="cls-11" d="M431.92,294.62l-.71-8.5s47.68,19.75,63.97,19.51l-4.96,18.25s-47.21-11.33-58.3-29.27Z"/><path class="cls-13" d="M728.75,298.27s3.58,10.75,1.41,16.07c-2.18,5.33-4.04,13.36,2.17,13.68s13.3,2.51,12.41-.67-5.51-5.5-7.08-6.49,1.93-5.24,6.5-4.4c4.57.85-15.41-18.19-15.41-18.19Z"/><path class="cls-6" d="M519.02,309.88s7.51,11.05,13.69,12.9c8.52,2.55,21.95-7.98,20.69,12.59-1.26,20.56,14.79,12.39,22.97,19.51,8.18,7.12,6.29,11.66,7.87,28.01,1.57,16.35,21.01,9.18,21.4,25.81.31,13.53-6.29,28.36-24.23,31.79l-53.9-97.96-1.18-16.76-7.32-15.89Z"/><path class="cls-11" d="M493.6,313.03s3.15,11.65,11.64,14.43c8.5,2.77,32.42-7.92,31.16,13.73-1.26,21.64,14.79,13.04,22.97,20.54,8.18,7.49,6.29,12.28,7.87,29.48,1.57,17.2,21.01,9.66,21.4,27.16.26,11.57-1.15,18.74-13,25.91-4.93,2.98-10.32,5.11-15.9,6.54l-8.86,2.26-76.48-132.5,19.2-7.55Z"/><path class="cls-2" d="M586.97,355.72s-15.31-17.2-19.56-20.5"/><path class="cls-19" d="M431.92,294.62l-1.02,36.35s-21.16,9.44-35.33,33.99c-14.16,24.55-45.02,51.81-48.8,55.11,0,0-26.91-10.39-51.93-64.2,0,0-9.91,5.66-18.88,5.66,0,0,14.16,46.74,19.36,58.07,5.19,11.33,22.66,49.1,43.43,58.07l91.1-60.78,10.91,29.11c-7.16,42.83-41.41,127.55-91.92,205.05,0,0,36.82,74.59,130.29,63.26,0,0,152.95-248.31,14.16-392.77,0,0-42.01-13.69-61.37-26.91Z"/><path class="cls-2" d="M468.27,403.2c-17.96-1.77-38.43,13.69-38.43,13.69l10.91,29.11c-7.31,42.92-41.87,128.25-91.92,205.05,0,0,13.57,27.48,45.14,46.54,74.79-89.64,84.36-170.94,60.43-277.06l13.87-17.33Z"/><path class="cls-2" d="M431.6,304.85l52.56,25.49-9.76,17.94s-22.65-15.29-43.51-17.31l.71-26.12Z"/><path class="cls-13" d="M252.98,325.34s10.86,21.56,20.14,22.5c9.28.94,19.67-.94,20.46-7.24.79-6.29,1.1-18.41,4.72-23.6,3.62-5.19,8.5-8.81,10.7-10.23,2.2-1.42-.31-4.88-2.99-5.19-2.67-.31-12.27,1.26-13.69,5.66-1.42,4.41-5.66,9.13-5.66,9.13l-33.67,8.97Z"/><path class="cls-2" d="M346.77,420.07s6.14,18.88-2.36,32.1"/><path class="cls-17" d="M275.96,361.53s-18.65-3.19-16.64-11.57c1.42-5.93,9.5,2.17,12.27-3.07,2.12-4.01,5.55-8.03,9.09-5.31,3.54,2.71,5.31,4.37,7.67.59,2.7-4.32,7.79-11.21,10.27-3.66,2.48,7.55-3.78,17.35-3.78,17.35,0,0-8.62,8.03-18.88,5.66Z"/><path class="cls-20" d="M395.79,311.89s-2.41-13.69-5.72-13.71c-3.52-.02-5.1,6.53-4.8,10.63,0,0-20.18,8.33,6.64,11.06l3.88-7.99Z"/><path class="cls-20" d="M405.2,317.59s13.07.61,13.72,4.33c.69,3.95-5.04,6.74-8.88,7.04,0,0-3.82,23.97-11.46-5.77l6.62-5.6Z"/><path class="cls-1" d="M395.79,311.89s-.15-.86-.43-2.16c-.62.18-1.17.58-1.55,1.16-1.36,2.09-3.71,6.06-3.9,8.76.64.08,1.3.15,2,.23l3.88-7.99Z"/><path class="cls-20" d="M398.35,310.65c-1-.13-1.98.35-2.56,1.24-1.75,2.7-5.18,8.55-3.44,10.73,2.29,2.88,7.37,2.7,12.16-2.35,4.51-4.75,1.95-8.6-6.16-9.62Z"/><path class="cls-1" d="M403.57,319.27s3.49-3.81.62-2.99c-2.87.82-5,6.36-5,6.36"/><path class="cls-10" d="M493.29,321.53s-42.01-13.69-61.37-26.91l-.31,10.23c33.67,22.66,52.56,25.49,52.56,25.49,127.79,133.01-3.87,350.92-23.62,385.11,5.93-.01,12.12-.37,18.58-1.16,0,0,152.95-248.31,14.16-392.77Z"/><path class="cls-15" d="M250.94,327.07s21.01,9.44,26.44,10.15c5.43.71,16.05-15.81,15.58-20.06-.47-4.25-24.55-23.13-26.44-22.9-1.89.24-5.43,11.8-9.91,18.41-4.48,6.61-10.39,11.33-5.66,14.4Z"/><path class="cls-16" d="M266.75,304.88s16.76,8.97,22.66,19.36"/><path class="cls-16" d="M260.14,315.74s18.88,8.26,23.84,16.52"/><path class="cls-15" d="M267.15,298.75s-3.93-9.91,1.73-10.86c5.66-.94,21.24-2.05,25.65-4.56,0,0,1.73,7.08-3.15,9.13-4.88,2.05-16.99.47-18.1,10.23-1.1,9.76-6.14-3.93-6.14-3.93Z"/><path class="cls-15" d="M732.84,300.59s10.71,23.99,14.9,26.76c4.18,2.77,16.9.53,18.41-.63,1.51-1.16-.01-32-1.73-34.15s-3.73-6.22-12.24-2.21c-8.51,4-21.44,1.7-19.34,10.23Z"/><path class="cls-15" d="M761.65,291.58s7.69,4.04,16.48.95c8.79-3.09,8.27-2.23,8.42-1.13.15,1.09-.21,4.32-2.92,6.59-2.11,1.76-11.64,7.92-26.28,2.91-18.15-6.21,4.3-9.31,4.3-9.31Z"/><path class="cls-17" d="M719.89,299.58s8.29-13.59,14.87-8.03c4.65,3.93-3.2,6.57.24,11.41,2.63,3.7,4.17,8.6.16,10.54-4.02,1.94-7.35,2.02-5.04,5.82,2.65,4.36,1.09,8.11-6.77,6.92-7.86-1.18-7.59-6.25-7.59-6.25,0,0-2.6-12.31,4.13-20.42Z"/><path class="cls-21" d="M476.82,200.77s-12.23-9.03-30.32-2.95c-18.09,6.08-21.79,16.86-21.46,30.59,0,0,1.51,9.66,6.46,16.32,3.39,4.56,7.69,10.34,9.33,12.53l-6.94,1.88-.47,1.42,8.26-2.39h0c.12-.04,1.19-.35,1.19-.35,0,0-7.45-9.4-12.9-17.9,0,0-3.01-5.92-3.6-13.42-.44-5.52.44-11.89,4.8-17.39,0,0,14.54-19.12,45.65-8.32Z"/><path class="cls-7" d="M432.95,214.71s9.74,4.48,11.03,5.03c1.29.55,3.69-15.71,6.11-17.31,2.42-1.6-11.62-1.91-17.14,12.28Z"/><path class="cls-6" d="M388.01,261s30.15-14.63,31.48-14.79c1.33-.16,5.91,5.06,4.14,9.93,0,0-20.4,12.81-31.47,14.56,0,0-5.7-4.81-4.15-9.69Z"/><path class="cls-6" d="M391.99,269.74s-7.47,13.53,1.37,17.1c0,0,31.84-13.12,37.69-20.6,5.85-7.48,1.13-16.49-6.36-11.59-3.32,2.17-18.06,12.23-32.7,15.08Z"/><path class="cls-12" d="M422.47,250.83c.28-.03.69.15,1.16.51-.94-2.96-3.25-5.24-4.13-5.13-1.33.16-31.48,14.79-31.48,14.79-.63,1.99-.05,3.97.85,5.61,5.1-2.47,32.29-15.62,33.61-15.78Z"/><path class="cls-21" d="M422.24,250.98c.69,2.33.47,4.49-.49,4.83-.96.33-2.31-1.29-3-3.62-.69-2.33-.47-4.49.49-4.83.96-.33,2.31,1.29,3,3.62Z"/><path class="cls-12" d="M427.68,257.84c1.95-1.28,3.75-1.8,5.32-1.76-1.31-2.77-4.44-3.96-8.32-1.43-3.32,2.17-18.06,12.23-32.7,15.08,0,0-1.63,2.96-2.47,6.48,17.43-4.34,34.2-15.78,38.17-18.38Z"/><path class="cls-21" d="M431.7,260.51c-.15,3.18-1.69,5.68-3.42,5.58-1.74-.1-3.02-2.75-2.87-5.93.15-3.18,1.69-5.68,3.42-5.58,1.74.1,3.02,2.75,2.87,5.93Z"/><path class="cls-2" d="M429.84,416.89s25.68-16.52,38.43-13.69"/><path class="cls-11" d="M417.52,177.08s-25.14,7.89-33.71,28.48c0,0,7.31-7.81,10.85-6.98,3.54.83,1.67,7.59,6.47,4.91,4.8-2.68,18.4-9.59,14.02-3.02,0,0,8.47-10.11,15.41-12.12,0,0-9.33,2.84-16.88.13-7.56-2.71,3.84-11.39,3.84-11.39Z"/><path class="cls-11" d="M441.56,167.1s23.37-5.89,30.98,13.94c0,0-8.85-5.6-9.32-1.31-.47,4.29.47,4.51-1.48,4.43-1.96-.09-6.9-2.08-3.23,1.56,0,0-6.34-3.87-15.41-3.26,0,0,27.74-2.23,18.8-8.5-8.94-6.28-20.34-6.86-20.34-6.86Z"/><path class="cls-11" d="M396.59,328.54s-.58,4.75-15.33,12.17c0,0,6.23-3.71,1.15-4.7-5.08-.99-6.75.79-6.75.79,0,0-.12-10.18,5.84-15.25,0,0-6.49,11.55.27,8.27,6.77-3.28,9.23-3.08,8.17.48-1.06,3.56,6.64-1.76,6.64-1.76Z"/><path class="cls-16" d="M756,297.22s7.63,16.24,5.74,30.34"/><path class="cls-16" d="M746.99,301.42s7.51,15.69,6.88,27.35"/><path class="cls-10" d="M508.23,371.14c2.04,4.99,1.08,10.1-2.15,11.42-3.23,1.32-7.5-1.65-9.55-6.63-2.04-4.99-1.08-10.1,2.15-11.42,3.23-1.32,7.5,1.65,9.55,6.63Z"/><path class="cls-10" d="M524.36,410.9c1.91,5.04.8,10.13-2.46,11.36-3.26,1.23-7.46-1.85-9.36-6.89-1.91-5.04-.8-10.13,2.46-11.36,3.26-1.23,7.46,1.85,9.36,6.89Z"/><path class="cls-10" d="M531.63,459.5c.56,5.36-1.79,10-5.26,10.36-3.47.37-6.74-3.68-7.31-9.04-.56-5.36,1.79-10,5.26-10.36,3.47-.37,6.74,3.68,7.31,9.04Z"/><path class="cls-16" d="M488.19,245.25c-.88.51-.03,1.85.84,1.33,2.19-1.28,4.01-3.56,3.78-6.22-.22-2.55-2.48-4.62-5.09-4.08-1.59.33-2.81,1.49-3.91,2.6-.72.72.45,1.78,1.17,1.06.93-.93,2.01-2.07,3.41-2.18,1.09-.08,2.07.6,2.55,1.56,1.18,2.36-.81,4.79-2.75,5.93Z"/><path class="cls-8" d="M503.3,258.7c-6.83,4.22-12.84,6.77-20.72,8.28.68,2.15,1.41,2.82,2.89,4.97,1.75,1.27,3.8,2.13,5.81,2.38,4.24.52,8.63-1.35,11.42-4.58,1.08-1.25,1.95-2.71,2.43-4.29-.3-.62-.31-1.19-.24-1.71-.42-2.33-.15-3.41-1.59-5.05Z"/><path class="cls-5" d="M490.09,267.19c3.97-2.37,8.94-3.53,13.43-2.29.55.15,1.08.34,1.61.56.15-.5.26-1.01.33-1.54.28-2.16-.44-4.51-1.88-6.15-6.83,4.22-14.42,7.18-22.3,8.7.68,2.15,2.24,4.07,4.19,5.49.97-1.96,2.73-3.63,4.62-4.76Z"/><path class="cls-16" d="M513.26,247.55c.82-2.64-.38-6.97-2.82-10.24-.17-.23-.35-.46-.52-.67-5.44-6.59-12.28-4.48-10.07,3.51.96,3.45,3.61,7.1,6.39,8.86.16.1.32.2.48.28,2.95,1.63,5.71.89,6.54-1.75Z"/><path class="cls-16" d="M460.3,269.42c3.58.87,7.6-.68,9.71-3.69.09-.12.17-.25.26-.39,2.02-3.26,1.69-7.8-.78-10.74-5.59-6.63-16.82-2.03-16.16,6.61.05.67.18,1.32.38,1.96.96,3,3.51,5.5,6.58,6.25Z"/><path class="cls-17" d="M456.7,235.05l8.95-3.32c.33-.12.67-.25.92-.51.56-.56.43-1.52.05-2.22-1.82-3.33-8.12-3.27-10.72-1.13-1.44,1.18-2.25,3-2.54,4.83-.13.83-.11,1.82.54,2.36.75.63,1.87.32,2.79-.02Z"/><path class="cls-17" d="M485.22,219.46l8.47-4.4c.31-.16.64-.33.86-.62.48-.63.24-1.56-.22-2.21-2.22-3.08-8.46-2.25-10.78.2-1.28,1.35-1.86,3.25-1.92,5.11-.03.84.11,1.82.82,2.27.82.53,1.9.09,2.77-.36Z"/><path class="cls-5" d="M462.73,239.6c-.32-.96-2.24-.22-1.91.74.8,2.41,2.95,4.53,6.27,4.57,3.17.04,6.47-2.09,6.71-4.86.15-1.68-.85-3.07-1.82-4.33-.63-.82-2.32.28-1.69,1.1.81,1.06,1.82,2.3,1.48,3.76-.28,1.14-1.44,2.09-2.77,2.49-3.28.98-5.55-1.33-6.27-3.47Z"/><path class="cls-5" d="M488.82,227.56c-.32-.96-2.24-.22-1.91.74.8,2.41,2.95,4.53,6.27,4.57,3.17.04,6.47-2.09,6.71-4.86.15-1.68-.85-3.07-1.82-4.33-.63-.82-2.32.28-1.69,1.1.81,1.06,1.82,2.3,1.48,3.76-.28,1.14-1.44,2.09-2.77,2.49-3.28.98-5.55-1.33-6.27-3.47Z"/><path class="cls-16" d="M430.62,268.39c1.47-.3,2.97-.2,4.37.28-.45.11-.89.28-1.29.5-.73.4-1.43,1.17-1.21,2.06.25,1,1.43,1.37,2.33,1.56,1,.21,2.03.16,3.02-.08.6-.15.27-1.05-.32-.9-.7.17-1.44.21-2.16.11-.55-.08-1.72-.25-1.93-.87-.19-.58.69-1.03,1.1-1.2.73-.3,1.5-.42,2.28-.4.53.02.52-.7.16-.91-1.92-1.14-4.24-1.53-6.43-1.09-.6.12-.52,1.07.08.95Z"/></svg>