<?xml version="1.0" encoding="UTF-8"?><svg id="Layer_1" xmlns="http://www.w3.org/2000/svg" viewBox="0 0 1000 1000"><defs><style>.cls-1{fill:#6a78bd;}.cls-1,.cls-2,.cls-3,.cls-4,.cls-5,.cls-6,.cls-7,.cls-8{stroke-linecap:round;stroke-linejoin:round;}.cls-1,.cls-4{stroke:#000;}.cls-9{stroke:#ef7f6f;stroke-miterlimit:10;}.cls-9,.cls-2,.cls-3,.cls-4,.cls-5,.cls-6,.cls-7,.cls-8{fill:none;}.cls-10{fill:#0074cb;}.cls-11{fill:#32294f;}.cls-2{stroke-dasharray:2 2;}.cls-2,.cls-3,.cls-5,.cls-6{stroke:#c4c4c4;stroke-width:.5px;}.cls-12{fill:#ffe0ba;}.cls-13{fill:#ea5961;}.cls-5{stroke-dasharray:2.02 2.02;}.cls-14{fill:#ffb800;}.cls-15{fill:#fff;}.cls-6{stroke-dasharray:2 2;}.cls-16{fill:#f7fffa;}.cls-17{fill:#ef7f6f;}.cls-7{stroke:#fff;}.cls-18{fill:#ff7903;}.cls-19{fill:#8bd000;}.cls-8{stroke:#050b06;}.cls-20{fill:#a3443a;}.cls-21{fill:#fc9f86;}</style></defs><rect class="cls-18" x="387.95" y="195.2" width="444.74" height="332.31"/><rect class="cls-15" x="401.72" y="208.97" width="417.2" height="299.75"/><rect class="cls-18" x="354.56" y="505.78" width="511.51" height="21.73"/><rect class="cls-18" x="493.08" y="690.21" width="238.93" height="21.73"/><polygon class="cls-18" points="561.75 512.73 459.89 844.52 432.42 844.52 533.54 515.66 561.75 512.73"/><polygon class="cls-18" points="658.89 512.73 760.74 844.52 788.21 844.52 687.09 515.66 658.89 512.73"/><line class="cls-1" x1="387.95" y1="505.78" x2="832.69" y2="505.78"/><line class="cls-4" x1="529.9" y1="527.51" x2="557.21" y2="527.51"/><line class="cls-4" x1="663.42" y1="527.51" x2="690.73" y2="527.51"/><line class="cls-4" x1="713.37" y1="690.21" x2="720.41" y2="713.15"/><line class="cls-4" x1="507.26" y1="690.21" x2="500.59" y2="711.94"/><polyline class="cls-3" points="784.94 479.72 784.94 480.72 783.94 480.72"/><line class="cls-6" x1="781.94" y1="480.72" x2="443.76" y2="480.72"/><polyline class="cls-3" points="442.77 480.72 441.77 480.72 441.77 479.72"/><line class="cls-5" x1="441.77" y1="477.71" x2="441.77" y2="236.78"/><polyline class="cls-3" points="441.77 235.77 441.77 234.77 442.77 234.77"/><line class="cls-6" x1="444.76" y1="234.77" x2="782.94" y2="234.77"/><polyline class="cls-3" points="783.94 234.77 784.94 234.77 784.94 235.77"/><line class="cls-5" x1="784.94" y1="237.78" x2="784.94" y2="478.71"/><line class="cls-3" x1="473.34" y1="234.77" x2="473.34" y2="235.77"/><line class="cls-2" x1="473.34" y1="237.77" x2="473.34" y2="476.53"/><line class="cls-3" x1="473.34" y1="477.53" x2="473.34" y2="478.53"/><line class="cls-3" x1="504.5" y1="234.77" x2="504.5" y2="235.77"/><line class="cls-2" x1="504.5" y1="237.77" x2="504.5" y2="476.53"/><line class="cls-3" x1="504.5" y1="477.53" x2="504.5" y2="478.53"/><line class="cls-3" x1="535.66" y1="234.77" x2="535.66" y2="235.77"/><line class="cls-2" x1="535.66" y1="237.77" x2="535.66" y2="476.53"/><line class="cls-3" x1="535.66" y1="477.53" x2="535.66" y2="478.53"/><line class="cls-3" x1="566.82" y1="234.77" x2="566.82" y2="235.77"/><line class="cls-2" x1="566.82" y1="237.77" x2="566.82" y2="476.53"/><line class="cls-3" x1="566.82" y1="477.53" x2="566.82" y2="478.53"/><line class="cls-3" x1="597.98" y1="234.77" x2="597.98" y2="235.77"/><line class="cls-2" x1="597.98" y1="237.77" x2="597.98" y2="476.53"/><line class="cls-3" x1="597.98" y1="477.53" x2="597.98" y2="478.53"/><line class="cls-3" x1="629.14" y1="234.77" x2="629.14" y2="235.77"/><line class="cls-2" x1="629.14" y1="237.77" x2="629.14" y2="476.53"/><line class="cls-3" x1="629.14" y1="477.53" x2="629.14" y2="478.53"/><line class="cls-3" x1="660.3" y1="234.77" x2="660.3" y2="235.77"/><line class="cls-2" x1="660.3" y1="237.77" x2="660.3" y2="476.53"/><line class="cls-3" x1="660.3" y1="477.53" x2="660.3" y2="478.53"/><line class="cls-3" x1="691.46" y1="234.77" x2="691.46" y2="235.77"/><line class="cls-2" x1="691.46" y1="237.77" x2="691.46" y2="476.53"/><line class="cls-3" x1="691.46" y1="477.53" x2="691.46" y2="478.53"/><line class="cls-3" x1="722.62" y1="234.77" x2="722.62" y2="235.77"/><line class="cls-2" x1="722.62" y1="237.77" x2="722.62" y2="476.53"/><line class="cls-3" x1="722.62" y1="477.53" x2="722.62" y2="478.53"/><line class="cls-3" x1="753.78" y1="234.77" x2="753.78" y2="235.77"/><line class="cls-2" x1="753.78" y1="237.77" x2="753.78" y2="476.53"/><line class="cls-3" x1="753.78" y1="477.53" x2="753.78" y2="478.53"/><line class="cls-3" x1="441.77" y1="265.77" x2="442.77" y2="265.77"/><line class="cls-6" x1="444.76" y1="265.77" x2="782.94" y2="265.77"/><line class="cls-3" x1="783.94" y1="265.77" x2="784.94" y2="265.77"/><line class="cls-3" x1="441.77" y1="297.49" x2="442.77" y2="297.49"/><line class="cls-6" x1="444.76" y1="297.49" x2="782.94" y2="297.49"/><line class="cls-3" x1="783.94" y1="297.49" x2="784.94" y2="297.49"/><line class="cls-3" x1="441.77" y1="329.21" x2="442.77" y2="329.21"/><line class="cls-6" x1="444.76" y1="329.21" x2="782.94" y2="329.21"/><line class="cls-3" x1="783.94" y1="329.21" x2="784.94" y2="329.21"/><line class="cls-3" x1="441.77" y1="360.92" x2="442.77" y2="360.92"/><line class="cls-6" x1="444.76" y1="360.92" x2="782.94" y2="360.92"/><line class="cls-3" x1="783.94" y1="360.92" x2="784.94" y2="360.92"/><line class="cls-3" x1="441.77" y1="392.64" x2="442.77" y2="392.64"/><line class="cls-6" x1="444.76" y1="392.64" x2="782.94" y2="392.64"/><line class="cls-3" x1="783.94" y1="392.64" x2="784.94" y2="392.64"/><line class="cls-3" x1="441.77" y1="424.35" x2="442.77" y2="424.35"/><line class="cls-6" x1="444.76" y1="424.35" x2="782.94" y2="424.35"/><line class="cls-3" x1="783.94" y1="424.35" x2="784.94" y2="424.35"/><line class="cls-3" x1="441.77" y1="456.07" x2="442.77" y2="456.07"/><line class="cls-6" x1="444.76" y1="456.07" x2="782.94" y2="456.07"/><line class="cls-3" x1="783.94" y1="456.07" x2="784.94" y2="456.07"/><path class="cls-19" d="M486.89,334.72h-15.07v-3.4c0-3.45-.81-6.43-2.44-8.94s-4.36-3.77-8.2-3.77c-2.07,0-3.74.39-5.02,1.18-1.28.79-2.32,1.77-3.1,2.95-.79,1.28-1.33,2.73-1.63,4.36-.3,1.63-.44,3.32-.44,5.1,0,2.07.07,3.79.22,5.17.15,1.38.52,2.61,1.11,3.69.59,1.08,1.45,2.02,2.59,2.81,1.13.79,2.68,1.58,4.65,2.36l11.52,4.58c3.35,1.28,6.06,2.78,8.13,4.51,2.07,1.72,3.69,3.72,4.87,5.98,1.08,2.36,1.82,5.05,2.22,8.05.39,3.01.59,6.43.59,10.27,0,4.43-.44,8.55-1.33,12.34-.89,3.79-2.31,7.02-4.28,9.68-2.07,2.76-4.78,4.93-8.13,6.5-3.35,1.57-7.44,2.36-12.26,2.36-3.64,0-7.04-.64-10.19-1.92-3.15-1.28-5.86-3.05-8.13-5.32-2.27-2.26-4.06-4.9-5.39-7.9-1.33-3-1.99-6.28-1.99-9.82v-5.61h15.07v4.73c0,2.76.81,5.24,2.44,7.46,1.62,2.22,4.36,3.32,8.2,3.32,2.56,0,4.55-.37,5.98-1.11,1.43-.74,2.54-1.8,3.32-3.18.79-1.38,1.26-3.03,1.4-4.95.15-1.92.22-4.06.22-6.43,0-2.76-.1-5.02-.3-6.8-.2-1.77-.59-3.2-1.18-4.28-.69-1.08-1.6-1.97-2.73-2.66-1.13-.69-2.64-1.43-4.51-2.22l-10.78-4.43c-6.5-2.66-10.86-6.18-13.07-10.56-2.22-4.38-3.32-9.87-3.32-16.47,0-3.94.54-7.68,1.63-11.23,1.08-3.55,2.71-6.6,4.88-9.16,2.07-2.56,4.7-4.6,7.9-6.13,3.2-1.53,7.02-2.29,11.45-2.29,3.74,0,7.16.69,10.27,2.07,3.1,1.38,5.78,3.2,8.05,5.47,4.53,4.73,6.8,10.15,6.8,16.25v7.39Z"/><path class="cls-19" d="M512.15,409.62v-44.47l-20.68-60.72h15.95l12.11,41.81h.3l12.11-41.81h15.95l-20.68,60.72v44.47h-15.07Z"/><path class="cls-19" d="M604.18,334.72h-15.07v-3.4c0-3.45-.81-6.43-2.44-8.94s-4.36-3.77-8.2-3.77c-2.07,0-3.74.39-5.02,1.18-1.28.79-2.32,1.77-3.1,2.95-.79,1.28-1.33,2.73-1.63,4.36-.3,1.63-.44,3.32-.44,5.1,0,2.07.07,3.79.22,5.17.15,1.38.52,2.61,1.11,3.69.59,1.08,1.45,2.02,2.59,2.81,1.13.79,2.68,1.58,4.65,2.36l11.52,4.58c3.35,1.28,6.06,2.78,8.13,4.51,2.07,1.72,3.69,3.72,4.87,5.98,1.08,2.36,1.82,5.05,2.22,8.05.39,3.01.59,6.43.59,10.27,0,4.43-.44,8.55-1.33,12.34-.89,3.79-2.31,7.02-4.28,9.68-2.07,2.76-4.78,4.93-8.13,6.5-3.35,1.57-7.44,2.36-12.26,2.36-3.64,0-7.04-.64-10.19-1.92-3.15-1.28-5.86-3.05-8.13-5.32-2.27-2.26-4.06-4.9-5.39-7.9-1.33-3-1.99-6.28-1.99-9.82v-5.61h15.07v4.73c0,2.76.81,5.24,2.44,7.46,1.62,2.22,4.36,3.32,8.2,3.32,2.56,0,4.55-.37,5.98-1.11,1.43-.74,2.54-1.8,3.32-3.18.79-1.38,1.26-3.03,1.4-4.95.15-1.92.22-4.06.22-6.43,0-2.76-.1-5.02-.3-6.8-.2-1.77-.59-3.2-1.18-4.28-.69-1.08-1.6-1.97-2.73-2.66-1.13-.69-2.64-1.43-4.51-2.22l-10.78-4.43c-6.5-2.66-10.86-6.18-13.07-10.56-2.22-4.38-3.32-9.87-3.32-16.47,0-3.94.54-7.68,1.63-11.23,1.08-3.55,2.71-6.6,4.88-9.16,2.07-2.56,4.7-4.6,7.9-6.13,3.2-1.53,7.02-2.29,11.45-2.29,3.74,0,7.16.69,10.27,2.07,3.1,1.38,5.78,3.2,8.05,5.47,4.53,4.73,6.8,10.15,6.8,16.25v7.39Z"/><path class="cls-19" d="M625.31,409.62v-91h-17.43v-14.18h49.93v14.18h-17.43v91h-15.07Z"/><path class="cls-19" d="M664.45,409.62v-105.18h44.91v14.18h-29.84v30.88h26v14.18h-26v30.88h29.84v15.07h-44.91Z"/><path class="cls-19" d="M719.11,409.62v-105.18h14.48l19.35,55.69h.3l19.2-55.69h14.63v105.18h-15.07v-63.97h-.3l-14.92,45.2h-7.53l-14.77-45.2h-.3v63.97h-15.07Z"/><polygon class="cls-20" points="240.08 189.54 235.77 269.51 269.24 264.74 263.02 193.76 240.08 189.54"/><polygon class="cls-20" points="285.01 202.42 288.85 248.21 318.62 253.3 308.74 181.55 285.01 202.42"/><path class="cls-21" d="M449.48,266.54l12-22.95s7.08-11.42,10.2-8.86c0,0,3.02,2.47-.34,14.69-.36,1.3,1.06,2.38,2.18,1.61,7.89-5.39,27.28-18.18,33.39-18.15.91,0,1.69.7,1.71,1.61.03,1.64-1.45,4.96-8.65,11.5-.49.44.03,1.23.61.92,5.13-2.75,13.32-6.63,19.67-7.36,1.41-.16,2.48,1.27,1.9,2.57-1.12,2.5-4.36,6.87-13.4,13.67-.53.4-.07,1.22.54.97,3.95-1.6,9.5-3.55,12.88-3.53,1.39,0,2.26,1.5,1.6,2.73-1.26,2.34-4.42,6.61-12.25,12.48-.4.3-.09.93.37.75,3.06-1.16,7.47-2.46,10.52-1.72,1.65.4,2.4,2.37,1.42,3.76-1.68,2.4-6.21,6.39-18.35,10.71,0,0,0,0,0,0l-23.83,18.55-7.39,5.65-29.63-34,4.86-5.6Z"/><path class="cls-9" d="M470,253.3c.04.49,1.37,10.45-7.95,16.3"/><path class="cls-9" d="M505.68,275.79s1.44-12.79-18.62-27.96"/><polygon class="cls-21" points="187.67 762.71 218.37 731.61 190.93 701.13 162.75 729.32 152.04 737.53 160.96 787.75 186.05 795.44 187.67 762.71"/><path class="cls-19" d="M192.33,818.2l-6.28-22.77c-2.82-4.27-9.21-7.03-14.32-8.64-4.46-1.4-7.66-5.3-8.09-9.96l-3.55-38.8,6.79-12.85c-12.91.61-20.75,8.89-20.75,8.89l4.84,47.6c.86,8.41,4.36,16.33,10.02,22.61l26.29,29.2.8-.72c4.06-3.66,5.71-9.3,4.26-14.57Z"/><polygon class="cls-19" points="146.12 734.09 122.87 761.95 128.14 767.81 147.76 750.15 146.12 734.09"/><polygon points="179.74 712.33 218.37 731.61 190.93 701.13 179.74 712.33"/><path class="cls-14" d="M363.18,754.1c10.3-.21-87.93-.85-87.93-.85l-2.22-45.44-42.3,38.76-58.1-61.88s46.38-40.41,51.96-53.55c6.34-14.95,5.28-33.7,1.94-49.59-5.53-26.29-10.09-52.78-13.68-79.4-1.2-8.94-2.3-17.9-3.28-26.87-1.66-15.13-3-30.43-1.11-45.53,44.19-1.61,103.43-3.27,147.62-4.88,1.01-.04,11.65,72.23,20.16,131.14,7.11,49.27,5.94,99.37-3.46,148.26l-9.59,49.83Z"/><path class="cls-7" d="M300.21,473.55l27.68,127.38c6.51,29.94-3.48,61.07-26.19,81.63l-28.67,25.25"/><line class="cls-4" x1="363.18" y1="754.1" x2="275.25" y2="753.25"/><polygon class="cls-21" points="339.85 796.88 337.26 753.25 296.26 753.25 298.36 793.06 297.29 806.52 340.58 833.48 363.08 819.98 339.85 796.88"/><path class="cls-19" d="M384.21,830.54l-21.12-10.56c-5.06-.76-11.38,2.14-16,4.86-4.03,2.38-9.07,2.15-12.82-.65l-31.21-23.31-5-13.64c-8.19,10-7.28,21.37-7.28,21.37l39.68,29.02c6.13,4.49,13.54,6.9,21.14,6.9h40.6v-1.08c0-5.47-3.09-10.47-7.98-12.91Z"/><polygon class="cls-19" points="290.78 808.61 295.92 844.53 303.8 844.53 303.8 818.14 290.78 808.61"/><polygon points="297.12 769.59 337.26 753.25 296.26 753.25 297.12 769.59"/><line class="cls-4" x1="172.63" y1="684.7" x2="230.73" y2="746.58"/><path class="cls-10" d="M450.61,265.5c-.03-.08-2.24-2.64-2.24-2.64,0,0-24.1,14.64-51.08,29.59-5.95-4.59-18.03-12.44-27.37-18.37-6.4-4.07-12.47-8.61-18.58-13.1-6.31-4.63-13.86-7.69-22.15-8.56l-51.25-5.35-2.23-.75-58.25,21.88c-11.56,4.34-22.4,10.43-32.03,18.17-8.09,6.5-15.09,13.62-17.98,21.8l-25.49,73.75c-10.87,31.44,1.05,66.25,28.92,84.42l74.1,48.33,32.5-55.97-29.43-28.29,24.98,24.01-2.26-24.6,39.48-1.02,2.08,29.89,66.45-2.4-9.17-108.56,16.44,11.38c.06.04.11.09.17.13,9.2,6.97,21.72,7.66,31.66,1.8,23.03-13.58,63.09-54.92,63.15-55.14-6.54-11.42-29.54-38.39-30.43-40.41Z"/><path class="cls-18" d="M259.85,275.79c1.43,2.07,10.92,154.03,10.92,154.03l39.48-1.02-11.64-157.59-24.57-3.76-14.19,8.33Z"/><line class="cls-7" x1="203.87" y1="384.8" x2="277.49" y2="458.69"/><line class="cls-7" x1="369.2" y1="300.36" x2="369.2" y2="350.87"/><line class="cls-7" x1="326.38" y1="367.58" x2="351.54" y2="395.08"/><line class="cls-7" x1="260.93" y1="367.58" x2="235.77" y2="395.08"/><polyline class="cls-7" points="263.02 329.28 237.54 316.56 250.46 302.59 237.32 295.42 250.77 255.68"/><polyline class="cls-7" points="303.1 249.69 322.8 288.11 306.35 298.12 322.8 308.14 303.33 325.62"/><path class="cls-16" d="M308.46,261.34c-1.13-8.1-7.19-14.57-15.09-16.73-14.18-3.87-25.2-.26-31.87,3.37-5.32,2.9-9.42,7.77-10.91,13.64-2.86,11.29,5.78,14.56,5.78,14.56,10.19,6.1,24.65-5.26,24.65-5.26,25.74,11.41,28.83.46,27.43-9.58Z"/><path class="cls-21" d="M292.03,244.57l-5.06-21.74-26.03,1.5-1.82,22.31c-.69,8.39,5.62,15.7,14.01,16.28,1.42.1,2.86.15,4.29.16,9.68.02,16.81-9.08,14.62-18.5Z"/><path class="cls-20" d="M257.49,232.56s17.48,25.1,37.09,0l-6.13-16.64-30.51-.6-.45,17.23Z"/><path class="cls-21" d="M289.99,234.61l-2.23,1.68c-5.6,4.23-13.01,4.86-19.25,1.63l-2.48-1.28c-9.28-4.8-15.52-14.28-16.43-25.01l-1.46-17.15c-1.28-15.07,9.4-28.28,23.86-29.51h0c14.46-1.23,27.22,9.99,28.49,25.06l1.46,17.15c.91,10.73-3.63,21.13-11.97,27.43Z"/><path class="cls-21" d="M256.14,207.77c.44,5.22-3.43,9.82-8.66,10.26-5.22.44-9.82-3.43-10.26-8.66-.44-5.22,3.43-9.82,8.66-10.26,5.22-.44,9.82,3.43,10.26,8.66Z"/><path class="cls-21" d="M311.58,201.59c.46,5.39-3.54,10.13-8.93,10.59-5.39.46-10.13-3.54-10.59-8.93-.46-5.39,3.54-10.13,8.93-10.59,5.39-.46,10.13,3.54,10.59,8.93Z"/><path class="cls-20" d="M312.33,182.88c-26.22,23.01-51.39-2.25-51.39-2.25,0,0-2.91,18.59-18.25,20.73-.52.07-1.97-7.14-2.06-7.62-1.02-5.76-1.03-11.89.96-17.45,6.77-18.96,30.63-20.21,46.55-13.79,4.94,1.99,9.66,4.73,13.8,8.08,1.09.88,11.74,11.13,10.39,12.31Z"/><path class="cls-14" d="M256.01,149.85c-6.53,3.9-11.72,9.78-14.76,16.8,39.02,10.13,15.21-16.56,14.76-16.8Z"/><path class="cls-14" d="M310.91,180.33c-.12-6.09-1.74-11.79-4.49-16.78-19.47,8.92-13.09-8.31-11.32-12.47-6.03-4.14-13.36-6.5-21.23-6.35-6.54.13-12.63,1.99-17.87,5.11.45.24,24.26,26.93-14.76,16.8-2,4.63-3.08,9.75-2.97,15.13l72.64-1.44Z"/><path class="cls-14" d="M306.42,163.55c-2.75-5-6.64-9.27-11.32-12.47-1.77,4.16-8.15,21.39,11.32,12.47Z"/><path class="cls-14" d="M312.67,180.04l-73.51,1.46c-3.29.07-5.9,2.79-5.84,6.08h0l85.43-1.7h0c-.07-3.29-2.79-5.9-6.08-5.84Z"/><path class="cls-7" d="M291.53,180.86l-19.54.39,2.48-32.77c-.07-3.67,2.84-6.7,6.51-6.77h0c3.67-.07,6.7,1.82,6.77,5.48l3.78,33.67Z"/><line class="cls-7" x1="275.31" y1="145.12" x2="271.99" y2="181.24"/><line class="cls-7" x1="287.15" y1="144.73" x2="291.53" y2="180.86"/><line class="cls-7" x1="238.28" y1="181.77" x2="310.91" y2="180.33"/><path class="cls-7" d="M295.1,151.08s-8.06,21.78,11.32,12.47"/><path class="cls-7" d="M256.25,149.84c.16-.09,24.74,27.24-15.26,16.67"/><path class="cls-15" d="M213.28,567.91c-.75-2.64.06-5.47,2.03-7.38,50.91-49.38,130.03-153.4,130.03-153.4,2.32-2.82,10.23-.16,17.66,5.94,7.43,6.11,11.57,13.35,9.25,16.17-.2.25-.47.44-.75.6-33.61,26.91-119.05,135.91-130.26,152.17-1.62,2.36-4.46,3.61-7.28,3.16-14.22-2.22-19.04-11.52-20.67-17.26Z"/><path class="cls-12" d="M355.63,422.11c5.36,4.41,11.07,6.33,12.74,4.29,1.67-2.04-1.31-7.26-6.68-11.67-5.36-4.41-11.07-6.33-12.74-4.29s1.31,7.26,6.68,11.67Z"/><path class="cls-8" d="M362.48,430.7s-92.7,98.01-125.66,151.11"/><path class="cls-4" d="M355.48,415.7c.44.17.92.34,1.29.65.4.33.54.84.29,1.32-.38.74-1.32.68-1.99.41-.74-.3-1.47-.76-2.07-1.29-.5-.44-1.01-1.03-.97-1.74.07-1.57,1.93-1.6,3.08-1.41,3.31.56,6.47,2.34,8.78,4.75.45.46.86.96,1.2,1.51,1.28,2.05,1.39,5.24-1.13,6.42"/><path class="cls-21" d="M273.49,465.57l20.83,6.25-2.96,7.04c8.69,5.21,12.24,7.61,12.99,8.12,2.57,1.73,6.24,4.22,10.17,7.03,3.51,2.51,4.31,7.44,1.73,10.9-1.22,1.65-2.63,3.45-4.21,5.34-5.35,6.4-12.66,13.77-21.52,19.35-2.37,1.49-5.38,1.49-7.76.02-6.09-3.75-19.04-11.64-34.36-20.77l25.09-43.29Z"/><path class="cls-9" d="M298.31,499.98c.17.14,6.62,7.04,14.03,9.16"/><path class="cls-9" d="M303.33,518.58s-5.77-1.46-11.16-6.96"/><path class="cls-9" d="M293.68,526.29s-3.93-.7-7.37-4.55"/><path class="cls-17" d="M262.54,203.8c-.1.23-.18.46-.22.71-2.72-.19-4.81,2.35-5.24,5.08-.23,1.45,0,2.96.84,4.15,1.21,1.72,3.4,2.58,5.44,2.03,2.47-.65,4.32-3.16,4.22-5.71-.03-.62-.17-1.23-.4-1.81.05-.02.1-.05.15-.08,1.24-.7,1.94-2.24,1.66-3.64-.64-3.16-5.12-3.66-6.44-.73Z"/><path class="cls-17" d="M278.38,211.81c-.62.02-.56.98.06.96,1.55-.04,3.19-.73,3.84-2.22.63-1.43.03-3.19-1.52-3.67-.95-.29-1.94-.02-2.85.24-.59.18-.28,1.08.31.91.77-.22,1.68-.52,2.46-.17.61.28.93.93.91,1.58-.06,1.61-1.83,2.33-3.2,2.37Z"/><path class="cls-13" d="M285.18,218.42c-4.89.26-8.85-.14-13.51-1.64-.27,1.35-.07,1.92.09,3.51.56,1.19,1.41,2.26,2.41,2.97,2.11,1.52,5.01,1.8,7.45.9.94-.35,1.84-.88,2.56-1.59.02-.42.18-.72.37-.98.46-1.37.92-1.87.63-3.17Z"/><path class="cls-11" d="M275.63,219.09c2.82-.1,5.81.73,7.85,2.71.25.24.48.5.7.77.23-.22.44-.47.63-.73.78-1.08,1.09-2.54.8-3.84-4.89.26-9.82-.38-14.47-1.88-.27,1.35,0,2.83.63,4.16,1.1-.76,2.52-1.14,3.86-1.19Z"/><path class="cls-17" d="M297.68,214.22c1.81-1.02,2.83-3.27,2.42-5.3-.03-.14-.06-.29-.1-.42-1.23-4.22-7.41-4.78-9.29-.64-.81,1.79-.41,4.05.94,5.47.08.08.16.16.24.24,1.53,1.4,3.98,1.68,5.8.66Z"/><path class="cls-11" d="M263.34,207.72c1.01.92,2.6,1.13,3.82.53.05-.02.1-.05.15-.08,1.24-.7,1.94-2.24,1.66-3.64-.64-3.16-5.12-3.66-6.44-.73-.1.23-.18.46-.22.71-.22,1.15.16,2.42,1.03,3.21Z"/><path class="cls-20" d="M262.47,198.85l5.76.85c.21.03.43.06.64,0,.46-.14.68-.69.68-1.17,0-2.32-3.38-4.13-5.4-3.75-1.12.21-2.08.94-2.77,1.84-.31.41-.59.94-.4,1.42.22.56.91.72,1.5.81Z"/><path class="cls-20" d="M286.73,198.83l5.82.13c.22,0,.44,0,.64-.08.44-.19.59-.76.53-1.24-.28-2.3-3.87-3.68-5.82-3.05-1.08.35-1.95,1.19-2.52,2.17-.26.44-.47,1-.23,1.46.28.53.99.6,1.59.62Z"/><path class="cls-11" d="M292.02,207.97c1.24-.7,1.94-2.24,1.66-3.64-.02-.1-.04-.2-.07-.29-.84-2.9-5.09-3.28-6.37-.44-.55,1.23-.28,2.78.64,3.75.05.06.11.11.17.16,1.05.96,2.73,1.15,3.97.45Z"/><path class="cls-17" d="M255.05,222.88c1.46-.29,2.94-.19,4.32.28-.45.11-.88.28-1.28.5-.72.39-1.41,1.16-1.2,2.04.25.99,1.42,1.36,2.3,1.54.99.21,2.01.16,2.99-.08.59-.15.27-1.04-.32-.89-.7.17-1.43.21-2.14.11-.54-.08-1.71-.25-1.91-.87-.19-.58.68-1.02,1.09-1.19.72-.3,1.48-.42,2.26-.39.53.02.51-.69.16-.9-1.9-1.12-4.2-1.51-6.36-1.08-.59.12-.52,1.06.08.94Z"/><path class="cls-17" d="M317.22,216.27c-1.11-.22-2.24-.15-3.29.21.34.09.67.21.97.38.55.3,1.07.88.91,1.55-.19.75-1.08,1.03-1.75,1.17-.75.16-1.53.12-2.27-.06-.45-.11-.2-.79.24-.68.53.13,1.09.16,1.63.08.41-.06,1.3-.19,1.45-.66.14-.44-.52-.78-.83-.9-.55-.23-1.13-.32-1.72-.3-.4.01-.39-.53-.12-.69,1.44-.85,3.19-1.15,4.84-.82.45.09.39.81-.06.72Z"/></svg>